%TF.GenerationSoftware,KiCad,Pcbnew,4.0.7-e2-6376~58~ubuntu16.04.1*%
%TF.CreationDate,2017-12-06T17:26:10+02:00*%
%TF.ProjectId,instrument_cluster,696E737472756D656E745F636C757374,rev?*%
%TF.FileFunction,Legend,Bot*%
%FSLAX46Y46*%
G04 Gerber Fmt 4.6, Leading zero omitted, Abs format (unit mm)*
G04 Created by KiCad (PCBNEW 4.0.7-e2-6376~58~ubuntu16.04.1) date Wed Dec  6 17:26:10 2017*
%MOMM*%
%LPD*%
G01*
G04 APERTURE LIST*
%ADD10C,0.100000*%
%ADD11C,0.120000*%
%ADD12C,0.150000*%
%ADD13R,1.400000X1.650000*%
%ADD14R,1.650000X1.400000*%
%ADD15R,2.200000X2.900000*%
%ADD16R,1.300000X1.600000*%
%ADD17R,1.600000X1.300000*%
%ADD18R,0.750000X0.750000*%
%ADD19R,2.100000X2.100000*%
%ADD20O,2.100000X2.100000*%
%ADD21R,1.100000X1.700000*%
%ADD22R,1.700000X1.100000*%
%ADD23R,1.000000X1.900000*%
%ADD24R,2.500000X2.100000*%
%ADD25R,2.100000X2.500000*%
%ADD26R,0.650000X1.400000*%
%ADD27R,1.400000X0.650000*%
%ADD28R,2.100000X1.800000*%
%ADD29O,2.100000X1.800000*%
%ADD30R,2.900000X2.200000*%
%ADD31R,1.600000X1.600000*%
G04 APERTURE END LIST*
D10*
D11*
X139500000Y-89350000D02*
X138500000Y-89350000D01*
X138500000Y-87650000D02*
X139500000Y-87650000D01*
X146850000Y-92000000D02*
X146850000Y-93000000D01*
X145150000Y-93000000D02*
X145150000Y-92000000D01*
X119350000Y-98500000D02*
X119350000Y-99500000D01*
X117650000Y-99500000D02*
X117650000Y-98500000D01*
X127000000Y-109350000D02*
X126000000Y-109350000D01*
X126000000Y-107650000D02*
X127000000Y-107650000D01*
X146000000Y-122850000D02*
X145000000Y-122850000D01*
X145000000Y-121150000D02*
X146000000Y-121150000D01*
X145000000Y-110150000D02*
X146000000Y-110150000D01*
X146000000Y-111850000D02*
X145000000Y-111850000D01*
X137350000Y-120000000D02*
X137350000Y-121000000D01*
X135650000Y-121000000D02*
X135650000Y-120000000D01*
X137350000Y-113500000D02*
X137350000Y-114500000D01*
X135650000Y-114500000D02*
X135650000Y-113500000D01*
X149350000Y-90600000D02*
X152650000Y-90600000D01*
X152650000Y-90600000D02*
X152650000Y-96000000D01*
X149350000Y-90600000D02*
X149350000Y-96000000D01*
X157750000Y-86500000D02*
X157750000Y-88500000D01*
X157750000Y-88500000D02*
X153850000Y-88500000D01*
X157750000Y-86500000D02*
X153850000Y-86500000D01*
X167000000Y-119750000D02*
X169000000Y-119750000D01*
X169000000Y-119750000D02*
X169000000Y-123650000D01*
X167000000Y-119750000D02*
X167000000Y-123650000D01*
X147050000Y-106500000D02*
X147050000Y-108200000D01*
X145950000Y-106500000D02*
X147050000Y-106500000D01*
X145950000Y-108200000D02*
X145950000Y-106500000D01*
X148500000Y-106950000D02*
X150200000Y-106950000D01*
X148500000Y-108050000D02*
X148500000Y-106950000D01*
X150200000Y-108050000D02*
X148500000Y-108050000D01*
X121650000Y-99120000D02*
X120450000Y-99120000D01*
X120450000Y-100880000D02*
X121650000Y-100880000D01*
X121650000Y-97120000D02*
X120450000Y-97120000D01*
X120450000Y-98880000D02*
X121650000Y-98880000D01*
X128380000Y-106600000D02*
X128380000Y-105400000D01*
X126620000Y-105400000D02*
X126620000Y-106600000D01*
X124620000Y-105400000D02*
X124620000Y-106600000D01*
X126380000Y-106600000D02*
X126380000Y-105400000D01*
X195100000Y-97120000D02*
X193900000Y-97120000D01*
X193900000Y-98880000D02*
X195100000Y-98880000D01*
X195100000Y-93620000D02*
X193900000Y-93620000D01*
X193900000Y-95380000D02*
X195100000Y-95380000D01*
X191600000Y-97120000D02*
X190400000Y-97120000D01*
X190400000Y-98880000D02*
X191600000Y-98880000D01*
X191600000Y-93620000D02*
X190400000Y-93620000D01*
X190400000Y-95380000D02*
X191600000Y-95380000D01*
X138450000Y-122380000D02*
X139650000Y-122380000D01*
X139650000Y-120620000D02*
X138450000Y-120620000D01*
X139650000Y-118620000D02*
X138450000Y-118620000D01*
X138450000Y-120380000D02*
X139650000Y-120380000D01*
X138400000Y-115880000D02*
X139600000Y-115880000D01*
X139600000Y-114120000D02*
X138400000Y-114120000D01*
X139600000Y-112120000D02*
X138400000Y-112120000D01*
X138400000Y-113880000D02*
X139600000Y-113880000D01*
D12*
X187330000Y-120725000D02*
X187355000Y-120725000D01*
X187330000Y-124875000D02*
X187435000Y-124875000D01*
X197480000Y-124875000D02*
X197375000Y-124875000D01*
X197480000Y-120725000D02*
X197375000Y-120725000D01*
X187330000Y-120725000D02*
X187330000Y-124875000D01*
X197480000Y-120725000D02*
X197480000Y-124875000D01*
X187355000Y-120725000D02*
X187355000Y-119350000D01*
X187480000Y-111725000D02*
X187505000Y-111725000D01*
X187480000Y-115875000D02*
X187585000Y-115875000D01*
X197630000Y-115875000D02*
X197525000Y-115875000D01*
X197630000Y-111725000D02*
X197525000Y-111725000D01*
X187480000Y-111725000D02*
X187480000Y-115875000D01*
X197630000Y-111725000D02*
X197630000Y-115875000D01*
X187505000Y-111725000D02*
X187505000Y-110350000D01*
D11*
X136800000Y-94900000D02*
X136800000Y-95200000D01*
X136800000Y-95200000D02*
X144200000Y-95200000D01*
X144200000Y-95200000D02*
X144200000Y-94900000D01*
X136300000Y-90100000D02*
X136800000Y-90100000D01*
X136800000Y-90100000D02*
X136800000Y-89800000D01*
X136800000Y-89800000D02*
X144200000Y-89800000D01*
X144200000Y-89800000D02*
X144200000Y-90100000D01*
X136300000Y-92200000D02*
X136800000Y-92200000D01*
X136800000Y-92200000D02*
X136800000Y-92800000D01*
X144200000Y-92800000D02*
X144200000Y-92200000D01*
X146900000Y-120200000D02*
X147200000Y-120200000D01*
X147200000Y-120200000D02*
X147200000Y-112800000D01*
X147200000Y-112800000D02*
X146900000Y-112800000D01*
X142100000Y-120700000D02*
X142100000Y-120200000D01*
X142100000Y-120200000D02*
X141800000Y-120200000D01*
X141800000Y-120200000D02*
X141800000Y-112800000D01*
X141800000Y-112800000D02*
X142100000Y-112800000D01*
X144200000Y-120700000D02*
X144200000Y-120200000D01*
X144200000Y-120200000D02*
X144800000Y-120200000D01*
X144800000Y-112800000D02*
X144200000Y-112800000D01*
D12*
X134075000Y-97075000D02*
X135075000Y-97075000D01*
X134075000Y-107425000D02*
X135150000Y-107425000D01*
X144425000Y-107425000D02*
X143350000Y-107425000D01*
X144425000Y-97075000D02*
X143350000Y-97075000D01*
X134075000Y-97075000D02*
X134075000Y-98150000D01*
X144425000Y-97075000D02*
X144425000Y-98150000D01*
X144425000Y-107425000D02*
X144425000Y-106350000D01*
X134075000Y-107425000D02*
X134075000Y-106350000D01*
X135075000Y-97075000D02*
X135075000Y-96050000D01*
X149575000Y-119925000D02*
X149575000Y-118925000D01*
X159925000Y-119925000D02*
X159925000Y-118850000D01*
X159925000Y-109575000D02*
X159925000Y-110650000D01*
X149575000Y-109575000D02*
X149575000Y-110650000D01*
X149575000Y-119925000D02*
X150650000Y-119925000D01*
X149575000Y-109575000D02*
X150650000Y-109575000D01*
X159925000Y-109575000D02*
X158850000Y-109575000D01*
X159925000Y-119925000D02*
X158850000Y-119925000D01*
X149575000Y-118925000D02*
X148550000Y-118925000D01*
D11*
X116600000Y-115150000D02*
X116600000Y-111850000D01*
X116600000Y-111850000D02*
X122000000Y-111850000D01*
X116600000Y-115150000D02*
X122000000Y-115150000D01*
X123400000Y-115350000D02*
X123400000Y-118650000D01*
X123400000Y-118650000D02*
X118000000Y-118650000D01*
X123400000Y-115350000D02*
X118000000Y-115350000D01*
X116600000Y-108150000D02*
X116600000Y-104850000D01*
X116600000Y-104850000D02*
X122000000Y-104850000D01*
X116600000Y-108150000D02*
X122000000Y-108150000D01*
X123400000Y-108350000D02*
X123400000Y-111650000D01*
X123400000Y-111650000D02*
X118000000Y-111650000D01*
X123400000Y-108350000D02*
X118000000Y-108350000D01*
X124700000Y-87200000D02*
X124700000Y-85800000D01*
X124700000Y-85800000D02*
X127500000Y-85800000D01*
X124700000Y-87200000D02*
X127500000Y-87200000D01*
X124700000Y-130200000D02*
X124700000Y-128800000D01*
X124700000Y-128800000D02*
X127500000Y-128800000D01*
X124700000Y-130200000D02*
X127500000Y-130200000D01*
X127100000Y-88620000D02*
X125900000Y-88620000D01*
X125900000Y-90380000D02*
X127100000Y-90380000D01*
X125900000Y-126880000D02*
X127100000Y-126880000D01*
X127100000Y-125120000D02*
X125900000Y-125120000D01*
D12*
X139642857Y-87357143D02*
X139690476Y-87404762D01*
X139833333Y-87452381D01*
X139928571Y-87452381D01*
X140071429Y-87404762D01*
X140166667Y-87309524D01*
X140214286Y-87214286D01*
X140261905Y-87023810D01*
X140261905Y-86880952D01*
X140214286Y-86690476D01*
X140166667Y-86595238D01*
X140071429Y-86500000D01*
X139928571Y-86452381D01*
X139833333Y-86452381D01*
X139690476Y-86500000D01*
X139642857Y-86547619D01*
X139261905Y-86547619D02*
X139214286Y-86500000D01*
X139119048Y-86452381D01*
X138880952Y-86452381D01*
X138785714Y-86500000D01*
X138738095Y-86547619D01*
X138690476Y-86642857D01*
X138690476Y-86738095D01*
X138738095Y-86880952D01*
X139309524Y-87452381D01*
X138690476Y-87452381D01*
X137738095Y-87452381D02*
X138309524Y-87452381D01*
X138023810Y-87452381D02*
X138023810Y-86452381D01*
X138119048Y-86595238D01*
X138214286Y-86690476D01*
X138309524Y-86738095D01*
X147857143Y-91857143D02*
X147904762Y-91809524D01*
X147952381Y-91666667D01*
X147952381Y-91571429D01*
X147904762Y-91428571D01*
X147809524Y-91333333D01*
X147714286Y-91285714D01*
X147523810Y-91238095D01*
X147380952Y-91238095D01*
X147190476Y-91285714D01*
X147095238Y-91333333D01*
X147000000Y-91428571D01*
X146952381Y-91571429D01*
X146952381Y-91666667D01*
X147000000Y-91809524D01*
X147047619Y-91857143D01*
X147047619Y-92238095D02*
X147000000Y-92285714D01*
X146952381Y-92380952D01*
X146952381Y-92619048D01*
X147000000Y-92714286D01*
X147047619Y-92761905D01*
X147142857Y-92809524D01*
X147238095Y-92809524D01*
X147380952Y-92761905D01*
X147952381Y-92190476D01*
X147952381Y-92809524D01*
X147047619Y-93190476D02*
X147000000Y-93238095D01*
X146952381Y-93333333D01*
X146952381Y-93571429D01*
X147000000Y-93666667D01*
X147047619Y-93714286D01*
X147142857Y-93761905D01*
X147238095Y-93761905D01*
X147380952Y-93714286D01*
X147952381Y-93142857D01*
X147952381Y-93761905D01*
X120357143Y-98357143D02*
X120404762Y-98309524D01*
X120452381Y-98166667D01*
X120452381Y-98071429D01*
X120404762Y-97928571D01*
X120309524Y-97833333D01*
X120214286Y-97785714D01*
X120023810Y-97738095D01*
X119880952Y-97738095D01*
X119690476Y-97785714D01*
X119595238Y-97833333D01*
X119500000Y-97928571D01*
X119452381Y-98071429D01*
X119452381Y-98166667D01*
X119500000Y-98309524D01*
X119547619Y-98357143D01*
X119547619Y-98738095D02*
X119500000Y-98785714D01*
X119452381Y-98880952D01*
X119452381Y-99119048D01*
X119500000Y-99214286D01*
X119547619Y-99261905D01*
X119642857Y-99309524D01*
X119738095Y-99309524D01*
X119880952Y-99261905D01*
X120452381Y-98690476D01*
X120452381Y-99309524D01*
X119452381Y-99642857D02*
X119452381Y-100261905D01*
X119833333Y-99928571D01*
X119833333Y-100071429D01*
X119880952Y-100166667D01*
X119928571Y-100214286D01*
X120023810Y-100261905D01*
X120261905Y-100261905D01*
X120357143Y-100214286D01*
X120404762Y-100166667D01*
X120452381Y-100071429D01*
X120452381Y-99785714D01*
X120404762Y-99690476D01*
X120357143Y-99642857D01*
X127142857Y-110357143D02*
X127190476Y-110404762D01*
X127333333Y-110452381D01*
X127428571Y-110452381D01*
X127571429Y-110404762D01*
X127666667Y-110309524D01*
X127714286Y-110214286D01*
X127761905Y-110023810D01*
X127761905Y-109880952D01*
X127714286Y-109690476D01*
X127666667Y-109595238D01*
X127571429Y-109500000D01*
X127428571Y-109452381D01*
X127333333Y-109452381D01*
X127190476Y-109500000D01*
X127142857Y-109547619D01*
X126761905Y-109547619D02*
X126714286Y-109500000D01*
X126619048Y-109452381D01*
X126380952Y-109452381D01*
X126285714Y-109500000D01*
X126238095Y-109547619D01*
X126190476Y-109642857D01*
X126190476Y-109738095D01*
X126238095Y-109880952D01*
X126809524Y-110452381D01*
X126190476Y-110452381D01*
X125333333Y-109785714D02*
X125333333Y-110452381D01*
X125571429Y-109404762D02*
X125809524Y-110119048D01*
X125190476Y-110119048D01*
X146142857Y-123857143D02*
X146190476Y-123904762D01*
X146333333Y-123952381D01*
X146428571Y-123952381D01*
X146571429Y-123904762D01*
X146666667Y-123809524D01*
X146714286Y-123714286D01*
X146761905Y-123523810D01*
X146761905Y-123380952D01*
X146714286Y-123190476D01*
X146666667Y-123095238D01*
X146571429Y-123000000D01*
X146428571Y-122952381D01*
X146333333Y-122952381D01*
X146190476Y-123000000D01*
X146142857Y-123047619D01*
X145761905Y-123047619D02*
X145714286Y-123000000D01*
X145619048Y-122952381D01*
X145380952Y-122952381D01*
X145285714Y-123000000D01*
X145238095Y-123047619D01*
X145190476Y-123142857D01*
X145190476Y-123238095D01*
X145238095Y-123380952D01*
X145809524Y-123952381D01*
X145190476Y-123952381D01*
X144285714Y-122952381D02*
X144761905Y-122952381D01*
X144809524Y-123428571D01*
X144761905Y-123380952D01*
X144666667Y-123333333D01*
X144428571Y-123333333D01*
X144333333Y-123380952D01*
X144285714Y-123428571D01*
X144238095Y-123523810D01*
X144238095Y-123761905D01*
X144285714Y-123857143D01*
X144333333Y-123904762D01*
X144428571Y-123952381D01*
X144666667Y-123952381D01*
X144761905Y-123904762D01*
X144809524Y-123857143D01*
X146142857Y-109857143D02*
X146190476Y-109904762D01*
X146333333Y-109952381D01*
X146428571Y-109952381D01*
X146571429Y-109904762D01*
X146666667Y-109809524D01*
X146714286Y-109714286D01*
X146761905Y-109523810D01*
X146761905Y-109380952D01*
X146714286Y-109190476D01*
X146666667Y-109095238D01*
X146571429Y-109000000D01*
X146428571Y-108952381D01*
X146333333Y-108952381D01*
X146190476Y-109000000D01*
X146142857Y-109047619D01*
X145761905Y-109047619D02*
X145714286Y-109000000D01*
X145619048Y-108952381D01*
X145380952Y-108952381D01*
X145285714Y-109000000D01*
X145238095Y-109047619D01*
X145190476Y-109142857D01*
X145190476Y-109238095D01*
X145238095Y-109380952D01*
X145809524Y-109952381D01*
X145190476Y-109952381D01*
X144333333Y-108952381D02*
X144523810Y-108952381D01*
X144619048Y-109000000D01*
X144666667Y-109047619D01*
X144761905Y-109190476D01*
X144809524Y-109380952D01*
X144809524Y-109761905D01*
X144761905Y-109857143D01*
X144714286Y-109904762D01*
X144619048Y-109952381D01*
X144428571Y-109952381D01*
X144333333Y-109904762D01*
X144285714Y-109857143D01*
X144238095Y-109761905D01*
X144238095Y-109523810D01*
X144285714Y-109428571D01*
X144333333Y-109380952D01*
X144428571Y-109333333D01*
X144619048Y-109333333D01*
X144714286Y-109380952D01*
X144761905Y-109428571D01*
X144809524Y-109523810D01*
X135357143Y-119857143D02*
X135404762Y-119809524D01*
X135452381Y-119666667D01*
X135452381Y-119571429D01*
X135404762Y-119428571D01*
X135309524Y-119333333D01*
X135214286Y-119285714D01*
X135023810Y-119238095D01*
X134880952Y-119238095D01*
X134690476Y-119285714D01*
X134595238Y-119333333D01*
X134500000Y-119428571D01*
X134452381Y-119571429D01*
X134452381Y-119666667D01*
X134500000Y-119809524D01*
X134547619Y-119857143D01*
X134547619Y-120238095D02*
X134500000Y-120285714D01*
X134452381Y-120380952D01*
X134452381Y-120619048D01*
X134500000Y-120714286D01*
X134547619Y-120761905D01*
X134642857Y-120809524D01*
X134738095Y-120809524D01*
X134880952Y-120761905D01*
X135452381Y-120190476D01*
X135452381Y-120809524D01*
X134880952Y-121380952D02*
X134833333Y-121285714D01*
X134785714Y-121238095D01*
X134690476Y-121190476D01*
X134642857Y-121190476D01*
X134547619Y-121238095D01*
X134500000Y-121285714D01*
X134452381Y-121380952D01*
X134452381Y-121571429D01*
X134500000Y-121666667D01*
X134547619Y-121714286D01*
X134642857Y-121761905D01*
X134690476Y-121761905D01*
X134785714Y-121714286D01*
X134833333Y-121666667D01*
X134880952Y-121571429D01*
X134880952Y-121380952D01*
X134928571Y-121285714D01*
X134976190Y-121238095D01*
X135071429Y-121190476D01*
X135261905Y-121190476D01*
X135357143Y-121238095D01*
X135404762Y-121285714D01*
X135452381Y-121380952D01*
X135452381Y-121571429D01*
X135404762Y-121666667D01*
X135357143Y-121714286D01*
X135261905Y-121761905D01*
X135071429Y-121761905D01*
X134976190Y-121714286D01*
X134928571Y-121666667D01*
X134880952Y-121571429D01*
X135357143Y-113357143D02*
X135404762Y-113309524D01*
X135452381Y-113166667D01*
X135452381Y-113071429D01*
X135404762Y-112928571D01*
X135309524Y-112833333D01*
X135214286Y-112785714D01*
X135023810Y-112738095D01*
X134880952Y-112738095D01*
X134690476Y-112785714D01*
X134595238Y-112833333D01*
X134500000Y-112928571D01*
X134452381Y-113071429D01*
X134452381Y-113166667D01*
X134500000Y-113309524D01*
X134547619Y-113357143D01*
X134547619Y-113738095D02*
X134500000Y-113785714D01*
X134452381Y-113880952D01*
X134452381Y-114119048D01*
X134500000Y-114214286D01*
X134547619Y-114261905D01*
X134642857Y-114309524D01*
X134738095Y-114309524D01*
X134880952Y-114261905D01*
X135452381Y-113690476D01*
X135452381Y-114309524D01*
X135452381Y-114785714D02*
X135452381Y-114976190D01*
X135404762Y-115071429D01*
X135357143Y-115119048D01*
X135214286Y-115214286D01*
X135023810Y-115261905D01*
X134642857Y-115261905D01*
X134547619Y-115214286D01*
X134500000Y-115166667D01*
X134452381Y-115071429D01*
X134452381Y-114880952D01*
X134500000Y-114785714D01*
X134547619Y-114738095D01*
X134642857Y-114690476D01*
X134880952Y-114690476D01*
X134976190Y-114738095D01*
X135023810Y-114785714D01*
X135071429Y-114880952D01*
X135071429Y-115071429D01*
X135023810Y-115166667D01*
X134976190Y-115214286D01*
X134880952Y-115261905D01*
X148952381Y-93261905D02*
X147952381Y-93261905D01*
X147952381Y-93500000D01*
X148000000Y-93642858D01*
X148095238Y-93738096D01*
X148190476Y-93785715D01*
X148380952Y-93833334D01*
X148523810Y-93833334D01*
X148714286Y-93785715D01*
X148809524Y-93738096D01*
X148904762Y-93642858D01*
X148952381Y-93500000D01*
X148952381Y-93261905D01*
X147952381Y-94166667D02*
X147952381Y-94785715D01*
X148333333Y-94452381D01*
X148333333Y-94595239D01*
X148380952Y-94690477D01*
X148428571Y-94738096D01*
X148523810Y-94785715D01*
X148761905Y-94785715D01*
X148857143Y-94738096D01*
X148904762Y-94690477D01*
X148952381Y-94595239D01*
X148952381Y-94309524D01*
X148904762Y-94214286D01*
X148857143Y-94166667D01*
X156238095Y-85952381D02*
X156238095Y-84952381D01*
X156000000Y-84952381D01*
X155857142Y-85000000D01*
X155761904Y-85095238D01*
X155714285Y-85190476D01*
X155666666Y-85380952D01*
X155666666Y-85523810D01*
X155714285Y-85714286D01*
X155761904Y-85809524D01*
X155857142Y-85904762D01*
X156000000Y-85952381D01*
X156238095Y-85952381D01*
X154761904Y-84952381D02*
X155238095Y-84952381D01*
X155285714Y-85428571D01*
X155238095Y-85380952D01*
X155142857Y-85333333D01*
X154904761Y-85333333D01*
X154809523Y-85380952D01*
X154761904Y-85428571D01*
X154714285Y-85523810D01*
X154714285Y-85761905D01*
X154761904Y-85857143D01*
X154809523Y-85904762D01*
X154904761Y-85952381D01*
X155142857Y-85952381D01*
X155238095Y-85904762D01*
X155285714Y-85857143D01*
X166452381Y-121261905D02*
X165452381Y-121261905D01*
X165452381Y-121500000D01*
X165500000Y-121642858D01*
X165595238Y-121738096D01*
X165690476Y-121785715D01*
X165880952Y-121833334D01*
X166023810Y-121833334D01*
X166214286Y-121785715D01*
X166309524Y-121738096D01*
X166404762Y-121642858D01*
X166452381Y-121500000D01*
X166452381Y-121261905D01*
X165452381Y-122690477D02*
X165452381Y-122500000D01*
X165500000Y-122404762D01*
X165547619Y-122357143D01*
X165690476Y-122261905D01*
X165880952Y-122214286D01*
X166261905Y-122214286D01*
X166357143Y-122261905D01*
X166404762Y-122309524D01*
X166452381Y-122404762D01*
X166452381Y-122595239D01*
X166404762Y-122690477D01*
X166357143Y-122738096D01*
X166261905Y-122785715D01*
X166023810Y-122785715D01*
X165928571Y-122738096D01*
X165880952Y-122690477D01*
X165833333Y-122595239D01*
X165833333Y-122404762D01*
X165880952Y-122309524D01*
X165928571Y-122261905D01*
X166023810Y-122214286D01*
X145552381Y-106761905D02*
X144552381Y-106761905D01*
X144552381Y-107000000D01*
X144600000Y-107142858D01*
X144695238Y-107238096D01*
X144790476Y-107285715D01*
X144980952Y-107333334D01*
X145123810Y-107333334D01*
X145314286Y-107285715D01*
X145409524Y-107238096D01*
X145504762Y-107142858D01*
X145552381Y-107000000D01*
X145552381Y-106761905D01*
X144552381Y-107666667D02*
X144552381Y-108333334D01*
X145552381Y-107904762D01*
X150238095Y-109352381D02*
X150238095Y-108352381D01*
X150000000Y-108352381D01*
X149857142Y-108400000D01*
X149761904Y-108495238D01*
X149714285Y-108590476D01*
X149666666Y-108780952D01*
X149666666Y-108923810D01*
X149714285Y-109114286D01*
X149761904Y-109209524D01*
X149857142Y-109304762D01*
X150000000Y-109352381D01*
X150238095Y-109352381D01*
X149095238Y-108780952D02*
X149190476Y-108733333D01*
X149238095Y-108685714D01*
X149285714Y-108590476D01*
X149285714Y-108542857D01*
X149238095Y-108447619D01*
X149190476Y-108400000D01*
X149095238Y-108352381D01*
X148904761Y-108352381D01*
X148809523Y-108400000D01*
X148761904Y-108447619D01*
X148714285Y-108542857D01*
X148714285Y-108590476D01*
X148761904Y-108685714D01*
X148809523Y-108733333D01*
X148904761Y-108780952D01*
X149095238Y-108780952D01*
X149190476Y-108828571D01*
X149238095Y-108876190D01*
X149285714Y-108971429D01*
X149285714Y-109161905D01*
X149238095Y-109257143D01*
X149190476Y-109304762D01*
X149095238Y-109352381D01*
X148904761Y-109352381D01*
X148809523Y-109304762D01*
X148761904Y-109257143D01*
X148714285Y-109161905D01*
X148714285Y-108971429D01*
X148761904Y-108876190D01*
X148809523Y-108828571D01*
X148904761Y-108780952D01*
X121216666Y-102102381D02*
X121550000Y-101626190D01*
X121788095Y-102102381D02*
X121788095Y-101102381D01*
X121407142Y-101102381D01*
X121311904Y-101150000D01*
X121264285Y-101197619D01*
X121216666Y-101292857D01*
X121216666Y-101435714D01*
X121264285Y-101530952D01*
X121311904Y-101578571D01*
X121407142Y-101626190D01*
X121788095Y-101626190D01*
X120311904Y-101102381D02*
X120788095Y-101102381D01*
X120835714Y-101578571D01*
X120788095Y-101530952D01*
X120692857Y-101483333D01*
X120454761Y-101483333D01*
X120359523Y-101530952D01*
X120311904Y-101578571D01*
X120264285Y-101673810D01*
X120264285Y-101911905D01*
X120311904Y-102007143D01*
X120359523Y-102054762D01*
X120454761Y-102102381D01*
X120692857Y-102102381D01*
X120788095Y-102054762D01*
X120835714Y-102007143D01*
X121216666Y-100102381D02*
X121550000Y-99626190D01*
X121788095Y-100102381D02*
X121788095Y-99102381D01*
X121407142Y-99102381D01*
X121311904Y-99150000D01*
X121264285Y-99197619D01*
X121216666Y-99292857D01*
X121216666Y-99435714D01*
X121264285Y-99530952D01*
X121311904Y-99578571D01*
X121407142Y-99626190D01*
X121788095Y-99626190D01*
X120359523Y-99102381D02*
X120550000Y-99102381D01*
X120645238Y-99150000D01*
X120692857Y-99197619D01*
X120788095Y-99340476D01*
X120835714Y-99530952D01*
X120835714Y-99911905D01*
X120788095Y-100007143D01*
X120740476Y-100054762D01*
X120645238Y-100102381D01*
X120454761Y-100102381D01*
X120359523Y-100054762D01*
X120311904Y-100007143D01*
X120264285Y-99911905D01*
X120264285Y-99673810D01*
X120311904Y-99578571D01*
X120359523Y-99530952D01*
X120454761Y-99483333D01*
X120645238Y-99483333D01*
X120740476Y-99530952D01*
X120788095Y-99578571D01*
X120835714Y-99673810D01*
X126302381Y-105833334D02*
X125826190Y-105500000D01*
X126302381Y-105261905D02*
X125302381Y-105261905D01*
X125302381Y-105642858D01*
X125350000Y-105738096D01*
X125397619Y-105785715D01*
X125492857Y-105833334D01*
X125635714Y-105833334D01*
X125730952Y-105785715D01*
X125778571Y-105738096D01*
X125826190Y-105642858D01*
X125826190Y-105261905D01*
X125302381Y-106166667D02*
X125302381Y-106833334D01*
X126302381Y-106404762D01*
X127602381Y-105833334D02*
X127126190Y-105500000D01*
X127602381Y-105261905D02*
X126602381Y-105261905D01*
X126602381Y-105642858D01*
X126650000Y-105738096D01*
X126697619Y-105785715D01*
X126792857Y-105833334D01*
X126935714Y-105833334D01*
X127030952Y-105785715D01*
X127078571Y-105738096D01*
X127126190Y-105642858D01*
X127126190Y-105261905D01*
X127030952Y-106404762D02*
X126983333Y-106309524D01*
X126935714Y-106261905D01*
X126840476Y-106214286D01*
X126792857Y-106214286D01*
X126697619Y-106261905D01*
X126650000Y-106309524D01*
X126602381Y-106404762D01*
X126602381Y-106595239D01*
X126650000Y-106690477D01*
X126697619Y-106738096D01*
X126792857Y-106785715D01*
X126840476Y-106785715D01*
X126935714Y-106738096D01*
X126983333Y-106690477D01*
X127030952Y-106595239D01*
X127030952Y-106404762D01*
X127078571Y-106309524D01*
X127126190Y-106261905D01*
X127221429Y-106214286D01*
X127411905Y-106214286D01*
X127507143Y-106261905D01*
X127554762Y-106309524D01*
X127602381Y-106404762D01*
X127602381Y-106595239D01*
X127554762Y-106690477D01*
X127507143Y-106738096D01*
X127411905Y-106785715D01*
X127221429Y-106785715D01*
X127126190Y-106738096D01*
X127078571Y-106690477D01*
X127030952Y-106595239D01*
X195142857Y-100102381D02*
X195476191Y-99626190D01*
X195714286Y-100102381D02*
X195714286Y-99102381D01*
X195333333Y-99102381D01*
X195238095Y-99150000D01*
X195190476Y-99197619D01*
X195142857Y-99292857D01*
X195142857Y-99435714D01*
X195190476Y-99530952D01*
X195238095Y-99578571D01*
X195333333Y-99626190D01*
X195714286Y-99626190D01*
X194190476Y-100102381D02*
X194761905Y-100102381D01*
X194476191Y-100102381D02*
X194476191Y-99102381D01*
X194571429Y-99245238D01*
X194666667Y-99340476D01*
X194761905Y-99388095D01*
X193238095Y-100102381D02*
X193809524Y-100102381D01*
X193523810Y-100102381D02*
X193523810Y-99102381D01*
X193619048Y-99245238D01*
X193714286Y-99340476D01*
X193809524Y-99388095D01*
X195142857Y-96602381D02*
X195476191Y-96126190D01*
X195714286Y-96602381D02*
X195714286Y-95602381D01*
X195333333Y-95602381D01*
X195238095Y-95650000D01*
X195190476Y-95697619D01*
X195142857Y-95792857D01*
X195142857Y-95935714D01*
X195190476Y-96030952D01*
X195238095Y-96078571D01*
X195333333Y-96126190D01*
X195714286Y-96126190D01*
X194190476Y-96602381D02*
X194761905Y-96602381D01*
X194476191Y-96602381D02*
X194476191Y-95602381D01*
X194571429Y-95745238D01*
X194666667Y-95840476D01*
X194761905Y-95888095D01*
X193809524Y-95697619D02*
X193761905Y-95650000D01*
X193666667Y-95602381D01*
X193428571Y-95602381D01*
X193333333Y-95650000D01*
X193285714Y-95697619D01*
X193238095Y-95792857D01*
X193238095Y-95888095D01*
X193285714Y-96030952D01*
X193857143Y-96602381D01*
X193238095Y-96602381D01*
X191642857Y-100102381D02*
X191976191Y-99626190D01*
X192214286Y-100102381D02*
X192214286Y-99102381D01*
X191833333Y-99102381D01*
X191738095Y-99150000D01*
X191690476Y-99197619D01*
X191642857Y-99292857D01*
X191642857Y-99435714D01*
X191690476Y-99530952D01*
X191738095Y-99578571D01*
X191833333Y-99626190D01*
X192214286Y-99626190D01*
X190690476Y-100102381D02*
X191261905Y-100102381D01*
X190976191Y-100102381D02*
X190976191Y-99102381D01*
X191071429Y-99245238D01*
X191166667Y-99340476D01*
X191261905Y-99388095D01*
X190357143Y-99102381D02*
X189738095Y-99102381D01*
X190071429Y-99483333D01*
X189928571Y-99483333D01*
X189833333Y-99530952D01*
X189785714Y-99578571D01*
X189738095Y-99673810D01*
X189738095Y-99911905D01*
X189785714Y-100007143D01*
X189833333Y-100054762D01*
X189928571Y-100102381D01*
X190214286Y-100102381D01*
X190309524Y-100054762D01*
X190357143Y-100007143D01*
X191642857Y-96602381D02*
X191976191Y-96126190D01*
X192214286Y-96602381D02*
X192214286Y-95602381D01*
X191833333Y-95602381D01*
X191738095Y-95650000D01*
X191690476Y-95697619D01*
X191642857Y-95792857D01*
X191642857Y-95935714D01*
X191690476Y-96030952D01*
X191738095Y-96078571D01*
X191833333Y-96126190D01*
X192214286Y-96126190D01*
X190690476Y-96602381D02*
X191261905Y-96602381D01*
X190976191Y-96602381D02*
X190976191Y-95602381D01*
X191071429Y-95745238D01*
X191166667Y-95840476D01*
X191261905Y-95888095D01*
X189833333Y-95935714D02*
X189833333Y-96602381D01*
X190071429Y-95554762D02*
X190309524Y-96269048D01*
X189690476Y-96269048D01*
X139642857Y-123452381D02*
X139976191Y-122976190D01*
X140214286Y-123452381D02*
X140214286Y-122452381D01*
X139833333Y-122452381D01*
X139738095Y-122500000D01*
X139690476Y-122547619D01*
X139642857Y-122642857D01*
X139642857Y-122785714D01*
X139690476Y-122880952D01*
X139738095Y-122928571D01*
X139833333Y-122976190D01*
X140214286Y-122976190D01*
X139261905Y-122547619D02*
X139214286Y-122500000D01*
X139119048Y-122452381D01*
X138880952Y-122452381D01*
X138785714Y-122500000D01*
X138738095Y-122547619D01*
X138690476Y-122642857D01*
X138690476Y-122738095D01*
X138738095Y-122880952D01*
X139309524Y-123452381D01*
X138690476Y-123452381D01*
X138071429Y-122452381D02*
X137976190Y-122452381D01*
X137880952Y-122500000D01*
X137833333Y-122547619D01*
X137785714Y-122642857D01*
X137738095Y-122833333D01*
X137738095Y-123071429D01*
X137785714Y-123261905D01*
X137833333Y-123357143D01*
X137880952Y-123404762D01*
X137976190Y-123452381D01*
X138071429Y-123452381D01*
X138166667Y-123404762D01*
X138214286Y-123357143D01*
X138261905Y-123261905D01*
X138309524Y-123071429D01*
X138309524Y-122833333D01*
X138261905Y-122642857D01*
X138214286Y-122547619D01*
X138166667Y-122500000D01*
X138071429Y-122452381D01*
X139642857Y-118452381D02*
X139976191Y-117976190D01*
X140214286Y-118452381D02*
X140214286Y-117452381D01*
X139833333Y-117452381D01*
X139738095Y-117500000D01*
X139690476Y-117547619D01*
X139642857Y-117642857D01*
X139642857Y-117785714D01*
X139690476Y-117880952D01*
X139738095Y-117928571D01*
X139833333Y-117976190D01*
X140214286Y-117976190D01*
X139261905Y-117547619D02*
X139214286Y-117500000D01*
X139119048Y-117452381D01*
X138880952Y-117452381D01*
X138785714Y-117500000D01*
X138738095Y-117547619D01*
X138690476Y-117642857D01*
X138690476Y-117738095D01*
X138738095Y-117880952D01*
X139309524Y-118452381D01*
X138690476Y-118452381D01*
X137738095Y-118452381D02*
X138309524Y-118452381D01*
X138023810Y-118452381D02*
X138023810Y-117452381D01*
X138119048Y-117595238D01*
X138214286Y-117690476D01*
X138309524Y-117738095D01*
X139642857Y-116952381D02*
X139976191Y-116476190D01*
X140214286Y-116952381D02*
X140214286Y-115952381D01*
X139833333Y-115952381D01*
X139738095Y-116000000D01*
X139690476Y-116047619D01*
X139642857Y-116142857D01*
X139642857Y-116285714D01*
X139690476Y-116380952D01*
X139738095Y-116428571D01*
X139833333Y-116476190D01*
X140214286Y-116476190D01*
X139261905Y-116047619D02*
X139214286Y-116000000D01*
X139119048Y-115952381D01*
X138880952Y-115952381D01*
X138785714Y-116000000D01*
X138738095Y-116047619D01*
X138690476Y-116142857D01*
X138690476Y-116238095D01*
X138738095Y-116380952D01*
X139309524Y-116952381D01*
X138690476Y-116952381D01*
X138309524Y-116047619D02*
X138261905Y-116000000D01*
X138166667Y-115952381D01*
X137928571Y-115952381D01*
X137833333Y-116000000D01*
X137785714Y-116047619D01*
X137738095Y-116142857D01*
X137738095Y-116238095D01*
X137785714Y-116380952D01*
X138357143Y-116952381D01*
X137738095Y-116952381D01*
X139642857Y-111952381D02*
X139976191Y-111476190D01*
X140214286Y-111952381D02*
X140214286Y-110952381D01*
X139833333Y-110952381D01*
X139738095Y-111000000D01*
X139690476Y-111047619D01*
X139642857Y-111142857D01*
X139642857Y-111285714D01*
X139690476Y-111380952D01*
X139738095Y-111428571D01*
X139833333Y-111476190D01*
X140214286Y-111476190D01*
X139261905Y-111047619D02*
X139214286Y-111000000D01*
X139119048Y-110952381D01*
X138880952Y-110952381D01*
X138785714Y-111000000D01*
X138738095Y-111047619D01*
X138690476Y-111142857D01*
X138690476Y-111238095D01*
X138738095Y-111380952D01*
X139309524Y-111952381D01*
X138690476Y-111952381D01*
X138357143Y-110952381D02*
X137738095Y-110952381D01*
X138071429Y-111333333D01*
X137928571Y-111333333D01*
X137833333Y-111380952D01*
X137785714Y-111428571D01*
X137738095Y-111523810D01*
X137738095Y-111761905D01*
X137785714Y-111857143D01*
X137833333Y-111904762D01*
X137928571Y-111952381D01*
X138214286Y-111952381D01*
X138309524Y-111904762D01*
X138357143Y-111857143D01*
X185857381Y-122038095D02*
X186666905Y-122038095D01*
X186762143Y-122085714D01*
X186809762Y-122133333D01*
X186857381Y-122228571D01*
X186857381Y-122419048D01*
X186809762Y-122514286D01*
X186762143Y-122561905D01*
X186666905Y-122609524D01*
X185857381Y-122609524D01*
X186285952Y-123228571D02*
X186238333Y-123133333D01*
X186190714Y-123085714D01*
X186095476Y-123038095D01*
X186047857Y-123038095D01*
X185952619Y-123085714D01*
X185905000Y-123133333D01*
X185857381Y-123228571D01*
X185857381Y-123419048D01*
X185905000Y-123514286D01*
X185952619Y-123561905D01*
X186047857Y-123609524D01*
X186095476Y-123609524D01*
X186190714Y-123561905D01*
X186238333Y-123514286D01*
X186285952Y-123419048D01*
X186285952Y-123228571D01*
X186333571Y-123133333D01*
X186381190Y-123085714D01*
X186476429Y-123038095D01*
X186666905Y-123038095D01*
X186762143Y-123085714D01*
X186809762Y-123133333D01*
X186857381Y-123228571D01*
X186857381Y-123419048D01*
X186809762Y-123514286D01*
X186762143Y-123561905D01*
X186666905Y-123609524D01*
X186476429Y-123609524D01*
X186381190Y-123561905D01*
X186333571Y-123514286D01*
X186285952Y-123419048D01*
X186007381Y-112561905D02*
X186816905Y-112561905D01*
X186912143Y-112609524D01*
X186959762Y-112657143D01*
X187007381Y-112752381D01*
X187007381Y-112942858D01*
X186959762Y-113038096D01*
X186912143Y-113085715D01*
X186816905Y-113133334D01*
X186007381Y-113133334D01*
X187007381Y-114133334D02*
X187007381Y-113561905D01*
X187007381Y-113847619D02*
X186007381Y-113847619D01*
X186150238Y-113752381D01*
X186245476Y-113657143D01*
X186293095Y-113561905D01*
X186007381Y-114752381D02*
X186007381Y-114847620D01*
X186055000Y-114942858D01*
X186102619Y-114990477D01*
X186197857Y-115038096D01*
X186388333Y-115085715D01*
X186626429Y-115085715D01*
X186816905Y-115038096D01*
X186912143Y-114990477D01*
X186959762Y-114942858D01*
X187007381Y-114847620D01*
X187007381Y-114752381D01*
X186959762Y-114657143D01*
X186912143Y-114609524D01*
X186816905Y-114561905D01*
X186626429Y-114514286D01*
X186388333Y-114514286D01*
X186197857Y-114561905D01*
X186102619Y-114609524D01*
X186055000Y-114657143D01*
X186007381Y-114752381D01*
X140976191Y-96176190D02*
X140976191Y-96652381D01*
X141309524Y-95652381D02*
X140976191Y-96176190D01*
X140642857Y-95652381D01*
X139785714Y-96652381D02*
X140357143Y-96652381D01*
X140071429Y-96652381D02*
X140071429Y-95652381D01*
X140166667Y-95795238D01*
X140261905Y-95890476D01*
X140357143Y-95938095D01*
X148176190Y-116023809D02*
X148652381Y-116023809D01*
X147652381Y-115690476D02*
X148176190Y-116023809D01*
X147652381Y-116357143D01*
X147747619Y-116642857D02*
X147700000Y-116690476D01*
X147652381Y-116785714D01*
X147652381Y-117023810D01*
X147700000Y-117119048D01*
X147747619Y-117166667D01*
X147842857Y-117214286D01*
X147938095Y-117214286D01*
X148080952Y-117166667D01*
X148652381Y-116595238D01*
X148652381Y-117214286D01*
X131502381Y-101488095D02*
X132311905Y-101488095D01*
X132407143Y-101535714D01*
X132454762Y-101583333D01*
X132502381Y-101678571D01*
X132502381Y-101869048D01*
X132454762Y-101964286D01*
X132407143Y-102011905D01*
X132311905Y-102059524D01*
X131502381Y-102059524D01*
X131502381Y-103011905D02*
X131502381Y-102535714D01*
X131978571Y-102488095D01*
X131930952Y-102535714D01*
X131883333Y-102630952D01*
X131883333Y-102869048D01*
X131930952Y-102964286D01*
X131978571Y-103011905D01*
X132073810Y-103059524D01*
X132311905Y-103059524D01*
X132407143Y-103011905D01*
X132454762Y-102964286D01*
X132502381Y-102869048D01*
X132502381Y-102630952D01*
X132454762Y-102535714D01*
X132407143Y-102488095D01*
X155511905Y-121402381D02*
X155511905Y-122211905D01*
X155464286Y-122307143D01*
X155416667Y-122354762D01*
X155321429Y-122402381D01*
X155130952Y-122402381D01*
X155035714Y-122354762D01*
X154988095Y-122307143D01*
X154940476Y-122211905D01*
X154940476Y-121402381D01*
X154416667Y-122402381D02*
X154226191Y-122402381D01*
X154130952Y-122354762D01*
X154083333Y-122307143D01*
X153988095Y-122164286D01*
X153940476Y-121973810D01*
X153940476Y-121592857D01*
X153988095Y-121497619D01*
X154035714Y-121450000D01*
X154130952Y-121402381D01*
X154321429Y-121402381D01*
X154416667Y-121450000D01*
X154464286Y-121497619D01*
X154511905Y-121592857D01*
X154511905Y-121830952D01*
X154464286Y-121926190D01*
X154416667Y-121973810D01*
X154321429Y-122021429D01*
X154130952Y-122021429D01*
X154035714Y-121973810D01*
X153988095Y-121926190D01*
X153940476Y-121830952D01*
X120738095Y-116452381D02*
X120738095Y-115452381D01*
X120500000Y-115452381D01*
X120357142Y-115500000D01*
X120261904Y-115595238D01*
X120214285Y-115690476D01*
X120166666Y-115880952D01*
X120166666Y-116023810D01*
X120214285Y-116214286D01*
X120261904Y-116309524D01*
X120357142Y-116404762D01*
X120500000Y-116452381D01*
X120738095Y-116452381D01*
X119690476Y-116452381D02*
X119500000Y-116452381D01*
X119404761Y-116404762D01*
X119357142Y-116357143D01*
X119261904Y-116214286D01*
X119214285Y-116023810D01*
X119214285Y-115642857D01*
X119261904Y-115547619D01*
X119309523Y-115500000D01*
X119404761Y-115452381D01*
X119595238Y-115452381D01*
X119690476Y-115500000D01*
X119738095Y-115547619D01*
X119785714Y-115642857D01*
X119785714Y-115880952D01*
X119738095Y-115976190D01*
X119690476Y-116023810D01*
X119595238Y-116071429D01*
X119404761Y-116071429D01*
X119309523Y-116023810D01*
X119261904Y-115976190D01*
X119214285Y-115880952D01*
X121214286Y-114952381D02*
X121214286Y-113952381D01*
X120976191Y-113952381D01*
X120833333Y-114000000D01*
X120738095Y-114095238D01*
X120690476Y-114190476D01*
X120642857Y-114380952D01*
X120642857Y-114523810D01*
X120690476Y-114714286D01*
X120738095Y-114809524D01*
X120833333Y-114904762D01*
X120976191Y-114952381D01*
X121214286Y-114952381D01*
X119690476Y-114952381D02*
X120261905Y-114952381D01*
X119976191Y-114952381D02*
X119976191Y-113952381D01*
X120071429Y-114095238D01*
X120166667Y-114190476D01*
X120261905Y-114238095D01*
X119071429Y-113952381D02*
X118976190Y-113952381D01*
X118880952Y-114000000D01*
X118833333Y-114047619D01*
X118785714Y-114142857D01*
X118738095Y-114333333D01*
X118738095Y-114571429D01*
X118785714Y-114761905D01*
X118833333Y-114857143D01*
X118880952Y-114904762D01*
X118976190Y-114952381D01*
X119071429Y-114952381D01*
X119166667Y-114904762D01*
X119214286Y-114857143D01*
X119261905Y-114761905D01*
X119309524Y-114571429D01*
X119309524Y-114333333D01*
X119261905Y-114142857D01*
X119214286Y-114047619D01*
X119166667Y-114000000D01*
X119071429Y-113952381D01*
X121214286Y-109452381D02*
X121214286Y-108452381D01*
X120976191Y-108452381D01*
X120833333Y-108500000D01*
X120738095Y-108595238D01*
X120690476Y-108690476D01*
X120642857Y-108880952D01*
X120642857Y-109023810D01*
X120690476Y-109214286D01*
X120738095Y-109309524D01*
X120833333Y-109404762D01*
X120976191Y-109452381D01*
X121214286Y-109452381D01*
X119690476Y-109452381D02*
X120261905Y-109452381D01*
X119976191Y-109452381D02*
X119976191Y-108452381D01*
X120071429Y-108595238D01*
X120166667Y-108690476D01*
X120261905Y-108738095D01*
X118738095Y-109452381D02*
X119309524Y-109452381D01*
X119023810Y-109452381D02*
X119023810Y-108452381D01*
X119119048Y-108595238D01*
X119214286Y-108690476D01*
X119309524Y-108738095D01*
X121214286Y-107952381D02*
X121214286Y-106952381D01*
X120976191Y-106952381D01*
X120833333Y-107000000D01*
X120738095Y-107095238D01*
X120690476Y-107190476D01*
X120642857Y-107380952D01*
X120642857Y-107523810D01*
X120690476Y-107714286D01*
X120738095Y-107809524D01*
X120833333Y-107904762D01*
X120976191Y-107952381D01*
X121214286Y-107952381D01*
X119690476Y-107952381D02*
X120261905Y-107952381D01*
X119976191Y-107952381D02*
X119976191Y-106952381D01*
X120071429Y-107095238D01*
X120166667Y-107190476D01*
X120261905Y-107238095D01*
X119309524Y-107047619D02*
X119261905Y-107000000D01*
X119166667Y-106952381D01*
X118928571Y-106952381D01*
X118833333Y-107000000D01*
X118785714Y-107047619D01*
X118738095Y-107142857D01*
X118738095Y-107238095D01*
X118785714Y-107380952D01*
X119357143Y-107952381D01*
X118738095Y-107952381D01*
X127714286Y-88402381D02*
X127714286Y-87402381D01*
X127476191Y-87402381D01*
X127333333Y-87450000D01*
X127238095Y-87545238D01*
X127190476Y-87640476D01*
X127142857Y-87830952D01*
X127142857Y-87973810D01*
X127190476Y-88164286D01*
X127238095Y-88259524D01*
X127333333Y-88354762D01*
X127476191Y-88402381D01*
X127714286Y-88402381D01*
X126190476Y-88402381D02*
X126761905Y-88402381D01*
X126476191Y-88402381D02*
X126476191Y-87402381D01*
X126571429Y-87545238D01*
X126666667Y-87640476D01*
X126761905Y-87688095D01*
X125857143Y-87402381D02*
X125238095Y-87402381D01*
X125571429Y-87783333D01*
X125428571Y-87783333D01*
X125333333Y-87830952D01*
X125285714Y-87878571D01*
X125238095Y-87973810D01*
X125238095Y-88211905D01*
X125285714Y-88307143D01*
X125333333Y-88354762D01*
X125428571Y-88402381D01*
X125714286Y-88402381D01*
X125809524Y-88354762D01*
X125857143Y-88307143D01*
X127714286Y-128452381D02*
X127714286Y-127452381D01*
X127476191Y-127452381D01*
X127333333Y-127500000D01*
X127238095Y-127595238D01*
X127190476Y-127690476D01*
X127142857Y-127880952D01*
X127142857Y-128023810D01*
X127190476Y-128214286D01*
X127238095Y-128309524D01*
X127333333Y-128404762D01*
X127476191Y-128452381D01*
X127714286Y-128452381D01*
X126190476Y-128452381D02*
X126761905Y-128452381D01*
X126476191Y-128452381D02*
X126476191Y-127452381D01*
X126571429Y-127595238D01*
X126666667Y-127690476D01*
X126761905Y-127738095D01*
X125333333Y-127785714D02*
X125333333Y-128452381D01*
X125571429Y-127404762D02*
X125809524Y-128119048D01*
X125190476Y-128119048D01*
X127142857Y-91602381D02*
X127476191Y-91126190D01*
X127714286Y-91602381D02*
X127714286Y-90602381D01*
X127333333Y-90602381D01*
X127238095Y-90650000D01*
X127190476Y-90697619D01*
X127142857Y-90792857D01*
X127142857Y-90935714D01*
X127190476Y-91030952D01*
X127238095Y-91078571D01*
X127333333Y-91126190D01*
X127714286Y-91126190D01*
X126190476Y-91602381D02*
X126761905Y-91602381D01*
X126476191Y-91602381D02*
X126476191Y-90602381D01*
X126571429Y-90745238D01*
X126666667Y-90840476D01*
X126761905Y-90888095D01*
X125285714Y-90602381D02*
X125761905Y-90602381D01*
X125809524Y-91078571D01*
X125761905Y-91030952D01*
X125666667Y-90983333D01*
X125428571Y-90983333D01*
X125333333Y-91030952D01*
X125285714Y-91078571D01*
X125238095Y-91173810D01*
X125238095Y-91411905D01*
X125285714Y-91507143D01*
X125333333Y-91554762D01*
X125428571Y-91602381D01*
X125666667Y-91602381D01*
X125761905Y-91554762D01*
X125809524Y-91507143D01*
X127142857Y-124802381D02*
X127476191Y-124326190D01*
X127714286Y-124802381D02*
X127714286Y-123802381D01*
X127333333Y-123802381D01*
X127238095Y-123850000D01*
X127190476Y-123897619D01*
X127142857Y-123992857D01*
X127142857Y-124135714D01*
X127190476Y-124230952D01*
X127238095Y-124278571D01*
X127333333Y-124326190D01*
X127714286Y-124326190D01*
X126190476Y-124802381D02*
X126761905Y-124802381D01*
X126476191Y-124802381D02*
X126476191Y-123802381D01*
X126571429Y-123945238D01*
X126666667Y-124040476D01*
X126761905Y-124088095D01*
X125333333Y-123802381D02*
X125523810Y-123802381D01*
X125619048Y-123850000D01*
X125666667Y-123897619D01*
X125761905Y-124040476D01*
X125809524Y-124230952D01*
X125809524Y-124611905D01*
X125761905Y-124707143D01*
X125714286Y-124754762D01*
X125619048Y-124802381D01*
X125428571Y-124802381D01*
X125333333Y-124754762D01*
X125285714Y-124707143D01*
X125238095Y-124611905D01*
X125238095Y-124373810D01*
X125285714Y-124278571D01*
X125333333Y-124230952D01*
X125428571Y-124183333D01*
X125619048Y-124183333D01*
X125714286Y-124230952D01*
X125761905Y-124278571D01*
X125809524Y-124373810D01*
%LPC*%
D13*
X138000000Y-88500000D03*
X140000000Y-88500000D03*
D14*
X146000000Y-93500000D03*
X146000000Y-91500000D03*
X118500000Y-100000000D03*
X118500000Y-98000000D03*
D13*
X125500000Y-108500000D03*
X127500000Y-108500000D03*
X144500000Y-122000000D03*
X146500000Y-122000000D03*
X146500000Y-111000000D03*
X144500000Y-111000000D03*
D14*
X136500000Y-121500000D03*
X136500000Y-119500000D03*
X136500000Y-115000000D03*
X136500000Y-113000000D03*
D15*
X151000000Y-92000000D03*
X151000000Y-96000000D03*
D16*
X157150000Y-87500000D03*
X153850000Y-87500000D03*
D17*
X168000000Y-120350000D03*
X168000000Y-123650000D03*
D18*
X146500000Y-108225000D03*
X146500000Y-106775000D03*
X150225000Y-107500000D03*
X148775000Y-107500000D03*
D19*
X118110000Y-87630000D03*
D20*
X118110000Y-90170000D03*
X118110000Y-92710000D03*
X118110000Y-95250000D03*
D19*
X118110000Y-129000000D03*
D20*
X118110000Y-126460000D03*
X118110000Y-123920000D03*
X118110000Y-121380000D03*
D21*
X120100000Y-100000000D03*
X122000000Y-100000000D03*
X120100000Y-98000000D03*
X122000000Y-98000000D03*
D22*
X127500000Y-105050000D03*
X127500000Y-106950000D03*
X125500000Y-106950000D03*
X125500000Y-105050000D03*
D21*
X193550000Y-98000000D03*
X195450000Y-98000000D03*
X193550000Y-94500000D03*
X195450000Y-94500000D03*
X190050000Y-98000000D03*
X191950000Y-98000000D03*
X190050000Y-94500000D03*
X191950000Y-94500000D03*
X140000000Y-121500000D03*
X138100000Y-121500000D03*
X138100000Y-119500000D03*
X140000000Y-119500000D03*
X139950000Y-115000000D03*
X138050000Y-115000000D03*
X138050000Y-113000000D03*
X139950000Y-113000000D03*
D23*
X187960000Y-120100000D03*
X189230000Y-120100000D03*
X190500000Y-120100000D03*
X191770000Y-120100000D03*
X193040000Y-120100000D03*
X194310000Y-120100000D03*
X195580000Y-120100000D03*
X196850000Y-120100000D03*
X196850000Y-125500000D03*
X195580000Y-125500000D03*
X194310000Y-125500000D03*
X193040000Y-125500000D03*
X191770000Y-125500000D03*
X190500000Y-125500000D03*
X189230000Y-125500000D03*
X187960000Y-125500000D03*
X188110000Y-111100000D03*
X189380000Y-111100000D03*
X190650000Y-111100000D03*
X191920000Y-111100000D03*
X193190000Y-111100000D03*
X194460000Y-111100000D03*
X195730000Y-111100000D03*
X197000000Y-111100000D03*
X197000000Y-116500000D03*
X195730000Y-116500000D03*
X194460000Y-116500000D03*
X193190000Y-116500000D03*
X191920000Y-116500000D03*
X190650000Y-116500000D03*
X189380000Y-116500000D03*
X188110000Y-116500000D03*
D24*
X137550000Y-91150000D03*
X143450000Y-91150000D03*
X143450000Y-93850000D03*
X137550000Y-93850000D03*
D25*
X143150000Y-119450000D03*
X143150000Y-113550000D03*
X145850000Y-113550000D03*
X145850000Y-119450000D03*
D26*
X135500000Y-96550000D03*
X136000000Y-96550000D03*
X136500000Y-96550000D03*
X137000000Y-96550000D03*
X137500000Y-96550000D03*
X138000000Y-96550000D03*
X138500000Y-96550000D03*
X139000000Y-96550000D03*
X139500000Y-96550000D03*
X140000000Y-96550000D03*
X140500000Y-96550000D03*
X141000000Y-96550000D03*
X141500000Y-96550000D03*
X142000000Y-96550000D03*
X142500000Y-96550000D03*
X143000000Y-96550000D03*
D27*
X144950000Y-98500000D03*
X144950000Y-99000000D03*
X144950000Y-99500000D03*
X144950000Y-100000000D03*
X144950000Y-100500000D03*
X144950000Y-101000000D03*
X144950000Y-101500000D03*
X144950000Y-102000000D03*
X144950000Y-102500000D03*
X144950000Y-103000000D03*
X144950000Y-103500000D03*
X144950000Y-104000000D03*
X144950000Y-104500000D03*
X144950000Y-105000000D03*
X144950000Y-105500000D03*
X144950000Y-106000000D03*
D26*
X143000000Y-107950000D03*
X142500000Y-107950000D03*
X142000000Y-107950000D03*
X141500000Y-107950000D03*
X141000000Y-107950000D03*
X140500000Y-107950000D03*
X140000000Y-107950000D03*
X139500000Y-107950000D03*
X139000000Y-107950000D03*
X138500000Y-107950000D03*
X138000000Y-107950000D03*
X137500000Y-107950000D03*
X137000000Y-107950000D03*
X136500000Y-107950000D03*
X136000000Y-107950000D03*
X135500000Y-107950000D03*
D27*
X133550000Y-106000000D03*
X133550000Y-105500000D03*
X133550000Y-105000000D03*
X133550000Y-104500000D03*
X133550000Y-104000000D03*
X133550000Y-103500000D03*
X133550000Y-103000000D03*
X133550000Y-102500000D03*
X133550000Y-102000000D03*
X133550000Y-101500000D03*
X133550000Y-101000000D03*
X133550000Y-100500000D03*
X133550000Y-100000000D03*
X133550000Y-99500000D03*
X133550000Y-99000000D03*
X133550000Y-98500000D03*
X149050000Y-118500000D03*
X149050000Y-118000000D03*
X149050000Y-117500000D03*
X149050000Y-117000000D03*
X149050000Y-116500000D03*
X149050000Y-116000000D03*
X149050000Y-115500000D03*
X149050000Y-115000000D03*
X149050000Y-114500000D03*
X149050000Y-114000000D03*
X149050000Y-113500000D03*
X149050000Y-113000000D03*
X149050000Y-112500000D03*
X149050000Y-112000000D03*
X149050000Y-111500000D03*
X149050000Y-111000000D03*
D26*
X151000000Y-109050000D03*
X151500000Y-109050000D03*
X152000000Y-109050000D03*
X152500000Y-109050000D03*
X153000000Y-109050000D03*
X153500000Y-109050000D03*
X154000000Y-109050000D03*
X154500000Y-109050000D03*
X155000000Y-109050000D03*
X155500000Y-109050000D03*
X156000000Y-109050000D03*
X156500000Y-109050000D03*
X157000000Y-109050000D03*
X157500000Y-109050000D03*
X158000000Y-109050000D03*
X158500000Y-109050000D03*
D27*
X160450000Y-111000000D03*
X160450000Y-111500000D03*
X160450000Y-112000000D03*
X160450000Y-112500000D03*
X160450000Y-113000000D03*
X160450000Y-113500000D03*
X160450000Y-114000000D03*
X160450000Y-114500000D03*
X160450000Y-115000000D03*
X160450000Y-115500000D03*
X160450000Y-116000000D03*
X160450000Y-116500000D03*
X160450000Y-117000000D03*
X160450000Y-117500000D03*
X160450000Y-118000000D03*
X160450000Y-118500000D03*
D26*
X158500000Y-120450000D03*
X158000000Y-120450000D03*
X157500000Y-120450000D03*
X157000000Y-120450000D03*
X156500000Y-120450000D03*
X156000000Y-120450000D03*
X155500000Y-120450000D03*
X155000000Y-120450000D03*
X154500000Y-120450000D03*
X154000000Y-120450000D03*
X153500000Y-120450000D03*
X153000000Y-120450000D03*
X152500000Y-120450000D03*
X152000000Y-120450000D03*
X151500000Y-120450000D03*
X151000000Y-120450000D03*
D28*
X200660000Y-127000000D03*
D29*
X200660000Y-124460000D03*
X200660000Y-121920000D03*
X200660000Y-119380000D03*
X200660000Y-116840000D03*
X200660000Y-114300000D03*
X200660000Y-111760000D03*
X200660000Y-109220000D03*
X200660000Y-106680000D03*
X200660000Y-104140000D03*
X200660000Y-101600000D03*
X200660000Y-99060000D03*
X200660000Y-96520000D03*
X200660000Y-93980000D03*
X200660000Y-91440000D03*
X200660000Y-88900000D03*
X203200000Y-127000000D03*
X203200000Y-124460000D03*
X203200000Y-121920000D03*
X203200000Y-119380000D03*
X203200000Y-116840000D03*
X203200000Y-114300000D03*
X203200000Y-111760000D03*
X203200000Y-109220000D03*
X203200000Y-106680000D03*
X203200000Y-104140000D03*
X203200000Y-101600000D03*
X203200000Y-99060000D03*
X203200000Y-96520000D03*
X203200000Y-93980000D03*
X203200000Y-91440000D03*
X203200000Y-88900000D03*
D28*
X114300000Y-127000000D03*
D29*
X114300000Y-121920000D03*
X114300000Y-124460000D03*
X114300000Y-119380000D03*
X114300000Y-116840000D03*
X114300000Y-114300000D03*
X114300000Y-111760000D03*
X114300000Y-109220000D03*
X114300000Y-106680000D03*
X114300000Y-104140000D03*
X114300000Y-101600000D03*
X114300000Y-99060000D03*
X114300000Y-96520000D03*
X114300000Y-93980000D03*
X114300000Y-91440000D03*
X114300000Y-88900000D03*
X111760000Y-127000000D03*
X111760000Y-124460000D03*
X111760000Y-121920000D03*
X111760000Y-119380000D03*
X111760000Y-116840000D03*
X111760000Y-114300000D03*
X111760000Y-111760000D03*
X111760000Y-109220000D03*
X111760000Y-106680000D03*
X111760000Y-104140000D03*
X111760000Y-101600000D03*
X111760000Y-99060000D03*
X111760000Y-96520000D03*
X111760000Y-93980000D03*
X111760000Y-91440000D03*
X111760000Y-88900000D03*
D30*
X118000000Y-113500000D03*
X122000000Y-113500000D03*
X122000000Y-117000000D03*
X118000000Y-117000000D03*
X118000000Y-106500000D03*
X122000000Y-106500000D03*
X122000000Y-110000000D03*
X118000000Y-110000000D03*
D31*
X127600000Y-86500000D03*
X125400000Y-86500000D03*
X127600000Y-129500000D03*
X125400000Y-129500000D03*
D21*
X125550000Y-89500000D03*
X127450000Y-89500000D03*
X127450000Y-126000000D03*
X125550000Y-126000000D03*
M02*
