%TF.GenerationSoftware,KiCad,Pcbnew,4.0.7-e2-6376~58~ubuntu16.04.1*%
%TF.CreationDate,2017-12-06T17:26:10+02:00*%
%TF.ProjectId,instrument_cluster,696E737472756D656E745F636C757374,rev?*%
%TF.FileFunction,Paste,Bot*%
%FSLAX46Y46*%
G04 Gerber Fmt 4.6, Leading zero omitted, Abs format (unit mm)*
G04 Created by KiCad (PCBNEW 4.0.7-e2-6376~58~ubuntu16.04.1) date Wed Dec  6 17:26:10 2017*
%MOMM*%
%LPD*%
G01*
G04 APERTURE LIST*
%ADD10C,0.100000*%
%ADD11R,1.000000X1.250000*%
%ADD12R,1.250000X1.000000*%
%ADD13R,1.800000X2.500000*%
%ADD14R,0.900000X1.200000*%
%ADD15R,1.200000X0.900000*%
%ADD16R,0.350000X0.350000*%
%ADD17R,0.700000X1.300000*%
%ADD18R,1.300000X0.700000*%
%ADD19R,0.600000X1.500000*%
%ADD20R,2.100000X1.700000*%
%ADD21R,1.700000X2.100000*%
%ADD22R,0.250000X1.000000*%
%ADD23R,1.000000X0.250000*%
%ADD24R,2.500000X1.800000*%
%ADD25R,1.200000X1.200000*%
G04 APERTURE END LIST*
D10*
D11*
X138000000Y-88500000D03*
X140000000Y-88500000D03*
D12*
X146000000Y-93500000D03*
X146000000Y-91500000D03*
X118500000Y-100000000D03*
X118500000Y-98000000D03*
D11*
X125500000Y-108500000D03*
X127500000Y-108500000D03*
X144500000Y-122000000D03*
X146500000Y-122000000D03*
X146500000Y-111000000D03*
X144500000Y-111000000D03*
D12*
X136500000Y-121500000D03*
X136500000Y-119500000D03*
X136500000Y-115000000D03*
X136500000Y-113000000D03*
D13*
X151000000Y-92000000D03*
X151000000Y-96000000D03*
D14*
X157150000Y-87500000D03*
X153850000Y-87500000D03*
D15*
X168000000Y-120350000D03*
X168000000Y-123650000D03*
D16*
X146500000Y-108225000D03*
X146500000Y-106775000D03*
X150225000Y-107500000D03*
X148775000Y-107500000D03*
D17*
X120100000Y-100000000D03*
X122000000Y-100000000D03*
X120100000Y-98000000D03*
X122000000Y-98000000D03*
D18*
X127500000Y-105050000D03*
X127500000Y-106950000D03*
X125500000Y-106950000D03*
X125500000Y-105050000D03*
D17*
X193550000Y-98000000D03*
X195450000Y-98000000D03*
X193550000Y-94500000D03*
X195450000Y-94500000D03*
X190050000Y-98000000D03*
X191950000Y-98000000D03*
X190050000Y-94500000D03*
X191950000Y-94500000D03*
X140000000Y-121500000D03*
X138100000Y-121500000D03*
X138100000Y-119500000D03*
X140000000Y-119500000D03*
X139950000Y-115000000D03*
X138050000Y-115000000D03*
X138050000Y-113000000D03*
X139950000Y-113000000D03*
D19*
X187960000Y-120100000D03*
X189230000Y-120100000D03*
X190500000Y-120100000D03*
X191770000Y-120100000D03*
X193040000Y-120100000D03*
X194310000Y-120100000D03*
X195580000Y-120100000D03*
X196850000Y-120100000D03*
X196850000Y-125500000D03*
X195580000Y-125500000D03*
X194310000Y-125500000D03*
X193040000Y-125500000D03*
X191770000Y-125500000D03*
X190500000Y-125500000D03*
X189230000Y-125500000D03*
X187960000Y-125500000D03*
X188110000Y-111100000D03*
X189380000Y-111100000D03*
X190650000Y-111100000D03*
X191920000Y-111100000D03*
X193190000Y-111100000D03*
X194460000Y-111100000D03*
X195730000Y-111100000D03*
X197000000Y-111100000D03*
X197000000Y-116500000D03*
X195730000Y-116500000D03*
X194460000Y-116500000D03*
X193190000Y-116500000D03*
X191920000Y-116500000D03*
X190650000Y-116500000D03*
X189380000Y-116500000D03*
X188110000Y-116500000D03*
D20*
X137550000Y-91150000D03*
X143450000Y-91150000D03*
X143450000Y-93850000D03*
X137550000Y-93850000D03*
D21*
X143150000Y-119450000D03*
X143150000Y-113550000D03*
X145850000Y-113550000D03*
X145850000Y-119450000D03*
D22*
X135500000Y-96550000D03*
X136000000Y-96550000D03*
X136500000Y-96550000D03*
X137000000Y-96550000D03*
X137500000Y-96550000D03*
X138000000Y-96550000D03*
X138500000Y-96550000D03*
X139000000Y-96550000D03*
X139500000Y-96550000D03*
X140000000Y-96550000D03*
X140500000Y-96550000D03*
X141000000Y-96550000D03*
X141500000Y-96550000D03*
X142000000Y-96550000D03*
X142500000Y-96550000D03*
X143000000Y-96550000D03*
D23*
X144950000Y-98500000D03*
X144950000Y-99000000D03*
X144950000Y-99500000D03*
X144950000Y-100000000D03*
X144950000Y-100500000D03*
X144950000Y-101000000D03*
X144950000Y-101500000D03*
X144950000Y-102000000D03*
X144950000Y-102500000D03*
X144950000Y-103000000D03*
X144950000Y-103500000D03*
X144950000Y-104000000D03*
X144950000Y-104500000D03*
X144950000Y-105000000D03*
X144950000Y-105500000D03*
X144950000Y-106000000D03*
D22*
X143000000Y-107950000D03*
X142500000Y-107950000D03*
X142000000Y-107950000D03*
X141500000Y-107950000D03*
X141000000Y-107950000D03*
X140500000Y-107950000D03*
X140000000Y-107950000D03*
X139500000Y-107950000D03*
X139000000Y-107950000D03*
X138500000Y-107950000D03*
X138000000Y-107950000D03*
X137500000Y-107950000D03*
X137000000Y-107950000D03*
X136500000Y-107950000D03*
X136000000Y-107950000D03*
X135500000Y-107950000D03*
D23*
X133550000Y-106000000D03*
X133550000Y-105500000D03*
X133550000Y-105000000D03*
X133550000Y-104500000D03*
X133550000Y-104000000D03*
X133550000Y-103500000D03*
X133550000Y-103000000D03*
X133550000Y-102500000D03*
X133550000Y-102000000D03*
X133550000Y-101500000D03*
X133550000Y-101000000D03*
X133550000Y-100500000D03*
X133550000Y-100000000D03*
X133550000Y-99500000D03*
X133550000Y-99000000D03*
X133550000Y-98500000D03*
X149050000Y-118500000D03*
X149050000Y-118000000D03*
X149050000Y-117500000D03*
X149050000Y-117000000D03*
X149050000Y-116500000D03*
X149050000Y-116000000D03*
X149050000Y-115500000D03*
X149050000Y-115000000D03*
X149050000Y-114500000D03*
X149050000Y-114000000D03*
X149050000Y-113500000D03*
X149050000Y-113000000D03*
X149050000Y-112500000D03*
X149050000Y-112000000D03*
X149050000Y-111500000D03*
X149050000Y-111000000D03*
D22*
X151000000Y-109050000D03*
X151500000Y-109050000D03*
X152000000Y-109050000D03*
X152500000Y-109050000D03*
X153000000Y-109050000D03*
X153500000Y-109050000D03*
X154000000Y-109050000D03*
X154500000Y-109050000D03*
X155000000Y-109050000D03*
X155500000Y-109050000D03*
X156000000Y-109050000D03*
X156500000Y-109050000D03*
X157000000Y-109050000D03*
X157500000Y-109050000D03*
X158000000Y-109050000D03*
X158500000Y-109050000D03*
D23*
X160450000Y-111000000D03*
X160450000Y-111500000D03*
X160450000Y-112000000D03*
X160450000Y-112500000D03*
X160450000Y-113000000D03*
X160450000Y-113500000D03*
X160450000Y-114000000D03*
X160450000Y-114500000D03*
X160450000Y-115000000D03*
X160450000Y-115500000D03*
X160450000Y-116000000D03*
X160450000Y-116500000D03*
X160450000Y-117000000D03*
X160450000Y-117500000D03*
X160450000Y-118000000D03*
X160450000Y-118500000D03*
D22*
X158500000Y-120450000D03*
X158000000Y-120450000D03*
X157500000Y-120450000D03*
X157000000Y-120450000D03*
X156500000Y-120450000D03*
X156000000Y-120450000D03*
X155500000Y-120450000D03*
X155000000Y-120450000D03*
X154500000Y-120450000D03*
X154000000Y-120450000D03*
X153500000Y-120450000D03*
X153000000Y-120450000D03*
X152500000Y-120450000D03*
X152000000Y-120450000D03*
X151500000Y-120450000D03*
X151000000Y-120450000D03*
D24*
X118000000Y-113500000D03*
X122000000Y-113500000D03*
X122000000Y-117000000D03*
X118000000Y-117000000D03*
X118000000Y-106500000D03*
X122000000Y-106500000D03*
X122000000Y-110000000D03*
X118000000Y-110000000D03*
D25*
X127600000Y-86500000D03*
X125400000Y-86500000D03*
X127600000Y-129500000D03*
X125400000Y-129500000D03*
D17*
X125550000Y-89500000D03*
X127450000Y-89500000D03*
X127450000Y-126000000D03*
X125550000Y-126000000D03*
M02*
