%FSLAX45Y45*%
G04 Gerber Fmt 4.5, Leading zero omitted, Abs format (unit mm)*
G04 Created by KiCad (PCBNEW 4.0.7-e2-6376~58~ubuntu16.04.1) date Wed Dec  6 17:26:13 2017*
%MOMM*%
%LPD*%
G01*
G04 APERTURE LIST*
%ADD10C,0.127000*%
%ADD11C,0.150000*%
%ADD12C,0.200000*%
%ADD13C,0.300000*%
G04 APERTURE END LIST*
D10*
D11*
X10795000Y-13081000D02*
X10795000Y-8509000D01*
X20701000Y-13081000D02*
X10795000Y-13081000D01*
X20701000Y-8509000D02*
X10795000Y-8509000D01*
X20701000Y-13081000D02*
X20701000Y-8509000D01*
D12*
X11885000Y-10135000D02*
X11915000Y-10165000D01*
X11915000Y-10135000D02*
X11885000Y-10165000D01*
X12080000Y-10285000D02*
X12110000Y-10315000D01*
X12110000Y-10285000D02*
X12080000Y-10315000D01*
X12085000Y-9785000D02*
X12115000Y-9815000D01*
X12115000Y-9785000D02*
X12085000Y-9815000D01*
X12085000Y-11885000D02*
X12115000Y-11915000D01*
X12115000Y-11885000D02*
X12085000Y-11915000D01*
X12135000Y-10185000D02*
X12165000Y-10215000D01*
X12165000Y-10185000D02*
X12135000Y-10215000D01*
X12185000Y-11185000D02*
X12215000Y-11215000D01*
X12215000Y-11185000D02*
X12185000Y-11215000D01*
X12285000Y-9871500D02*
X12315000Y-9901500D01*
X12315000Y-9871500D02*
X12285000Y-9901500D01*
X12285000Y-9998500D02*
X12315000Y-10028500D01*
X12315000Y-9998500D02*
X12285000Y-10028500D01*
X12335000Y-9485000D02*
X12365000Y-9515000D01*
X12365000Y-9485000D02*
X12335000Y-9515000D01*
X12485000Y-11548245D02*
X12515000Y-11578245D01*
X12515000Y-11548245D02*
X12485000Y-11578245D01*
X12486378Y-10384510D02*
X12516378Y-10414510D01*
X12516378Y-10384510D02*
X12486378Y-10414510D01*
X12486848Y-10588315D02*
X12516848Y-10618315D01*
X12516848Y-10588315D02*
X12486848Y-10618315D01*
X12535000Y-11485000D02*
X12565000Y-11515000D01*
X12565000Y-11485000D02*
X12535000Y-11515000D01*
X12585122Y-9535178D02*
X12615122Y-9565178D01*
X12615122Y-9535178D02*
X12585122Y-9565178D01*
X12635068Y-10986271D02*
X12665068Y-11016271D01*
X12665068Y-10986271D02*
X12635068Y-11016271D01*
X12735072Y-9535100D02*
X12765072Y-9565100D01*
X12765072Y-9535100D02*
X12735072Y-9565100D01*
X12834919Y-9535614D02*
X12864919Y-9565614D01*
X12864919Y-9535614D02*
X12834919Y-9565614D01*
X12860310Y-9985000D02*
X12890310Y-10015000D01*
X12890310Y-9985000D02*
X12860310Y-10015000D01*
X12862419Y-10725241D02*
X12892419Y-10755241D01*
X12892419Y-10725241D02*
X12862419Y-10755241D01*
X12885044Y-10535065D02*
X12915044Y-10565065D01*
X12915044Y-10535065D02*
X12885044Y-10565065D01*
X12893822Y-10412153D02*
X12923822Y-10442153D01*
X12923822Y-10412153D02*
X12893822Y-10442153D01*
X13083404Y-10483224D02*
X13113404Y-10513224D01*
X13113404Y-10483224D02*
X13083404Y-10513224D01*
X13185000Y-9885000D02*
X13215000Y-9915000D01*
X13215000Y-9885000D02*
X13185000Y-9915000D01*
X13185000Y-9985000D02*
X13215000Y-10015000D01*
X13215000Y-9985000D02*
X13185000Y-10015000D01*
X13285000Y-12335000D02*
X13315000Y-12365000D01*
X13315000Y-12335000D02*
X13285000Y-12365000D01*
X13285000Y-12435000D02*
X13315000Y-12465000D01*
X13315000Y-12435000D02*
X13285000Y-12465000D01*
X13285000Y-12535000D02*
X13315000Y-12565000D01*
X13315000Y-12535000D02*
X13285000Y-12565000D01*
X13285457Y-11884508D02*
X13315457Y-11914508D01*
X13315457Y-11884508D02*
X13285457Y-11914508D01*
X13335000Y-12835000D02*
X13365000Y-12865000D01*
X13365000Y-12835000D02*
X13335000Y-12865000D01*
X13360439Y-11218426D02*
X13390439Y-11248426D01*
X13390439Y-11218426D02*
X13360439Y-11248426D01*
X13385000Y-8935000D02*
X13415000Y-8965000D01*
X13415000Y-8935000D02*
X13385000Y-8965000D01*
X13385000Y-11435000D02*
X13415000Y-11465000D01*
X13415000Y-11435000D02*
X13385000Y-11465000D01*
X13385012Y-11884992D02*
X13415012Y-11914992D01*
X13415012Y-11884992D02*
X13385012Y-11914992D01*
X13434986Y-10686298D02*
X13464986Y-10716298D01*
X13464986Y-10686298D02*
X13434986Y-10716298D01*
X13435001Y-10439115D02*
X13465001Y-10469115D01*
X13465001Y-10439115D02*
X13435001Y-10469115D01*
X13435092Y-9742403D02*
X13465092Y-9772403D01*
X13465092Y-9742403D02*
X13435092Y-9772403D01*
X13485000Y-9935000D02*
X13515000Y-9965000D01*
X13515000Y-9935000D02*
X13485000Y-9965000D01*
X13485000Y-10085000D02*
X13515000Y-10115000D01*
X13515000Y-10085000D02*
X13485000Y-10115000D01*
X13485000Y-11035000D02*
X13515000Y-11065000D01*
X13515000Y-11035000D02*
X13485000Y-11065000D01*
X13485000Y-11385000D02*
X13515000Y-11415000D01*
X13515000Y-11385000D02*
X13485000Y-11415000D01*
X13485061Y-12035065D02*
X13515061Y-12065065D01*
X13515061Y-12035065D02*
X13485061Y-12065065D01*
X13585000Y-9235000D02*
X13615000Y-9265000D01*
X13615000Y-9235000D02*
X13585000Y-9265000D01*
X13635670Y-8931879D02*
X13665670Y-8961879D01*
X13665670Y-8931879D02*
X13635670Y-8961879D01*
X13685000Y-12735000D02*
X13715000Y-12765000D01*
X13715000Y-12735000D02*
X13685000Y-12765000D01*
X13730188Y-12436236D02*
X13760188Y-12466236D01*
X13760188Y-12436236D02*
X13730188Y-12466236D01*
X13785000Y-10535000D02*
X13815000Y-10565000D01*
X13815000Y-10535000D02*
X13785000Y-10565000D01*
X13885000Y-10535000D02*
X13915000Y-10565000D01*
X13915000Y-10535000D02*
X13885000Y-10565000D01*
X13885000Y-11285000D02*
X13915000Y-11315000D01*
X13915000Y-11285000D02*
X13885000Y-11315000D01*
X13885016Y-11935029D02*
X13915016Y-11965029D01*
X13915016Y-11935029D02*
X13885016Y-11965029D01*
X14035000Y-9285000D02*
X14065000Y-9315000D01*
X14065000Y-9285000D02*
X14035000Y-9315000D01*
X14035000Y-9835000D02*
X14065000Y-9865000D01*
X14065000Y-9835000D02*
X14035000Y-9865000D01*
X14079998Y-11935080D02*
X14109998Y-11965080D01*
X14109998Y-11935080D02*
X14079998Y-11965080D01*
X14085000Y-10435000D02*
X14115000Y-10465000D01*
X14115000Y-10435000D02*
X14085000Y-10465000D01*
X14085000Y-11285000D02*
X14115000Y-11315000D01*
X14115000Y-11285000D02*
X14085000Y-11315000D01*
X14085000Y-11485000D02*
X14115000Y-11515000D01*
X14115000Y-11485000D02*
X14085000Y-11515000D01*
X14085000Y-12035000D02*
X14115000Y-12065000D01*
X14115000Y-12035000D02*
X14085000Y-12065000D01*
X14085000Y-12435000D02*
X14115000Y-12465000D01*
X14115000Y-12435000D02*
X14085000Y-12465000D01*
X14085000Y-12535000D02*
X14115000Y-12565000D01*
X14115000Y-12535000D02*
X14085000Y-12565000D01*
X14085000Y-12635000D02*
X14115000Y-12665000D01*
X14115000Y-12635000D02*
X14085000Y-12665000D01*
X14224108Y-10335000D02*
X14254108Y-10365000D01*
X14254108Y-10335000D02*
X14224108Y-10365000D01*
X14335000Y-10335000D02*
X14365000Y-10365000D01*
X14365000Y-10335000D02*
X14335000Y-10365000D01*
X14535000Y-12485000D02*
X14565000Y-12515000D01*
X14565000Y-12485000D02*
X14535000Y-12515000D01*
X14603000Y-9667000D02*
X14633000Y-9697000D01*
X14633000Y-9667000D02*
X14603000Y-9697000D01*
X14713061Y-10396671D02*
X14743061Y-10426671D01*
X14743061Y-10396671D02*
X14713061Y-10426671D01*
X14785015Y-10534965D02*
X14815015Y-10564965D01*
X14815015Y-10534965D02*
X14785015Y-10564965D01*
X14835435Y-9135000D02*
X14865435Y-9165000D01*
X14865435Y-9135000D02*
X14835435Y-9165000D01*
X14985000Y-12185000D02*
X15015000Y-12215000D01*
X15015000Y-12185000D02*
X14985000Y-12215000D01*
X15035000Y-11135000D02*
X15065000Y-11165000D01*
X15065000Y-11135000D02*
X15035000Y-11165000D01*
X15035000Y-11635000D02*
X15065000Y-11665000D01*
X15065000Y-11635000D02*
X15035000Y-11665000D01*
X15035973Y-12494985D02*
X15065973Y-12524985D01*
X15065973Y-12494985D02*
X15035973Y-12524985D01*
X15070000Y-11835000D02*
X15100000Y-11865000D01*
X15100000Y-11835000D02*
X15070000Y-11865000D01*
X15085000Y-11385000D02*
X15115000Y-11415000D01*
X15115000Y-11385000D02*
X15085000Y-11415000D01*
X15105000Y-11065000D02*
X15135000Y-11095000D01*
X15135000Y-11065000D02*
X15105000Y-11095000D01*
X15113765Y-12624321D02*
X15143765Y-12654321D01*
X15143765Y-12624321D02*
X15113765Y-12654321D01*
X15135000Y-12535000D02*
X15165000Y-12565000D01*
X15165000Y-12535000D02*
X15135000Y-12565000D01*
X15185000Y-11485000D02*
X15215000Y-11515000D01*
X15215000Y-11485000D02*
X15185000Y-11515000D01*
X15185000Y-12185000D02*
X15215000Y-12215000D01*
X15215000Y-12185000D02*
X15185000Y-12215000D01*
X15225338Y-8685578D02*
X15255338Y-8715578D01*
X15255338Y-8685578D02*
X15225338Y-8715578D01*
X15235000Y-11085000D02*
X15265000Y-11115000D01*
X15265000Y-11085000D02*
X15235000Y-11115000D01*
X15235169Y-10185404D02*
X15265169Y-10215404D01*
X15265169Y-10185404D02*
X15235169Y-10215404D01*
X15252144Y-12244385D02*
X15282144Y-12274385D01*
X15282144Y-12244385D02*
X15252144Y-12274385D01*
X15285000Y-9235000D02*
X15315000Y-9265000D01*
X15315000Y-9235000D02*
X15285000Y-9265000D01*
X15319999Y-12181073D02*
X15349999Y-12211073D01*
X15349999Y-12181073D02*
X15319999Y-12211073D01*
X15385128Y-12312583D02*
X15415128Y-12342583D01*
X15415128Y-12312583D02*
X15385128Y-12342583D01*
X15385372Y-10690098D02*
X15415372Y-10720098D01*
X15415372Y-10690098D02*
X15385372Y-10720098D01*
X15434463Y-10508333D02*
X15464463Y-10538333D01*
X15464463Y-10508333D02*
X15434463Y-10538333D01*
X15435000Y-9635000D02*
X15465000Y-9665000D01*
X15465000Y-9635000D02*
X15435000Y-9665000D01*
X15437587Y-10335535D02*
X15467587Y-10365535D01*
X15467587Y-10335535D02*
X15437587Y-10365535D01*
X15462709Y-12256160D02*
X15492709Y-12286160D01*
X15492709Y-12256160D02*
X15462709Y-12286160D01*
X15485200Y-10690098D02*
X15515200Y-10720098D01*
X15515200Y-10690098D02*
X15485200Y-10720098D01*
X15519131Y-12321987D02*
X15549131Y-12351987D01*
X15549131Y-12321987D02*
X15519131Y-12351987D01*
X15522311Y-9733742D02*
X15552311Y-9763742D01*
X15552311Y-9733742D02*
X15522311Y-9763742D01*
X15635000Y-9635000D02*
X15665000Y-9665000D01*
X15665000Y-9635000D02*
X15635000Y-9665000D01*
X15635010Y-10135034D02*
X15665010Y-10165034D01*
X15665010Y-10135034D02*
X15635010Y-10165034D01*
X15651626Y-12459497D02*
X15681626Y-12489497D01*
X15681626Y-12459497D02*
X15651626Y-12489497D01*
X15709289Y-10245000D02*
X15739289Y-10275000D01*
X15739289Y-10245000D02*
X15709289Y-10275000D01*
X15759695Y-12860611D02*
X15789695Y-12890611D01*
X15789695Y-12860611D02*
X15759695Y-12890611D01*
X15785000Y-11885000D02*
X15815000Y-11915000D01*
X15815000Y-11885000D02*
X15785000Y-11915000D01*
X15835000Y-8785000D02*
X15865000Y-8815000D01*
X15865000Y-8785000D02*
X15835000Y-8815000D01*
X15860000Y-12535000D02*
X15890000Y-12565000D01*
X15890000Y-12535000D02*
X15860000Y-12565000D01*
X15865628Y-12227372D02*
X15895628Y-12257372D01*
X15895628Y-12227372D02*
X15865628Y-12257372D01*
X15885000Y-11085000D02*
X15915000Y-11115000D01*
X15915000Y-11085000D02*
X15885000Y-11115000D01*
X15885000Y-11685000D02*
X15915000Y-11715000D01*
X15915000Y-11685000D02*
X15885000Y-11715000D01*
X15935000Y-12635000D02*
X15965000Y-12665000D01*
X15965000Y-12635000D02*
X15935000Y-12665000D01*
X15935146Y-12386353D02*
X15965146Y-12416353D01*
X15965146Y-12386353D02*
X15935146Y-12416353D01*
X16235018Y-11085045D02*
X16265018Y-11115045D01*
X16265018Y-11085045D02*
X16235018Y-11115045D01*
X16285020Y-10234998D02*
X16315020Y-10264998D01*
X16315020Y-10234998D02*
X16285020Y-10264998D01*
X16285036Y-11735056D02*
X16315036Y-11765056D01*
X16315036Y-11735056D02*
X16285036Y-11765056D01*
X16285038Y-11285001D02*
X16315038Y-11315001D01*
X16315038Y-11285001D02*
X16285038Y-11315001D01*
X16303000Y-11883000D02*
X16333000Y-11913000D01*
X16333000Y-11883000D02*
X16303000Y-11913000D01*
X16335047Y-11185004D02*
X16365047Y-11215004D01*
X16365047Y-11185004D02*
X16335047Y-11215004D01*
X16375257Y-10159760D02*
X16405257Y-10189760D01*
X16405257Y-10159760D02*
X16375257Y-10189760D01*
X16385080Y-11284917D02*
X16415080Y-11314917D01*
X16415080Y-11284917D02*
X16385080Y-11314917D01*
X16435000Y-11385000D02*
X16465000Y-11415000D01*
X16465000Y-11385000D02*
X16435000Y-11415000D01*
X16435000Y-11635000D02*
X16465000Y-11665000D01*
X16465000Y-11635000D02*
X16435000Y-11665000D01*
X16435000Y-12067000D02*
X16465000Y-12097000D01*
X16465000Y-12067000D02*
X16435000Y-12097000D01*
X16435498Y-10734360D02*
X16465498Y-10764360D01*
X16465498Y-10734360D02*
X16435498Y-10764360D01*
X16467613Y-10109384D02*
X16497613Y-10139384D01*
X16497613Y-10109384D02*
X16467613Y-10139384D01*
X16733439Y-11587837D02*
X16763439Y-11617837D01*
X16763439Y-11587837D02*
X16733439Y-11617837D01*
X16935000Y-11835000D02*
X16965000Y-11865000D01*
X16965000Y-11835000D02*
X16935000Y-11865000D01*
X16935557Y-10133781D02*
X16965557Y-10163781D01*
X16965557Y-10133781D02*
X16935557Y-10163781D01*
X17235000Y-8835000D02*
X17265000Y-8865000D01*
X17265000Y-8835000D02*
X17235000Y-8865000D01*
X17435870Y-11185514D02*
X17465870Y-11215514D01*
X17465870Y-11185514D02*
X17435870Y-11215514D01*
X17535000Y-12857143D02*
X17565000Y-12887143D01*
X17565000Y-12857143D02*
X17535000Y-12887143D01*
X17892000Y-12177000D02*
X17922000Y-12207000D01*
X17922000Y-12177000D02*
X17892000Y-12207000D01*
X18019000Y-12507200D02*
X18049000Y-12537200D01*
X18049000Y-12507200D02*
X18019000Y-12537200D01*
X19285000Y-9585000D02*
X19315000Y-9615000D01*
X19315000Y-9585000D02*
X19285000Y-9615000D01*
X19335083Y-8935013D02*
X19365083Y-8965013D01*
X19365083Y-8935013D02*
X19335083Y-8965013D01*
X19585000Y-12155836D02*
X19615000Y-12185836D01*
X19615000Y-12155836D02*
X19585000Y-12185836D01*
X19586356Y-10882521D02*
X19616356Y-10912521D01*
X19616356Y-10882521D02*
X19586356Y-10912521D01*
X19835000Y-8785000D02*
X19865000Y-8815000D01*
X19865000Y-8785000D02*
X19835000Y-8815000D01*
X11226000Y-8890000D02*
G75*
G03X11226000Y-8890000I-50000J0D01*
G01*
X11226000Y-9144000D02*
G75*
G03X11226000Y-9144000I-50000J0D01*
G01*
X11226000Y-9398000D02*
G75*
G03X11226000Y-9398000I-50000J0D01*
G01*
X11226000Y-9652000D02*
G75*
G03X11226000Y-9652000I-50000J0D01*
G01*
X11226000Y-9906000D02*
G75*
G03X11226000Y-9906000I-50000J0D01*
G01*
X11226000Y-10160000D02*
G75*
G03X11226000Y-10160000I-50000J0D01*
G01*
X11226000Y-10414000D02*
G75*
G03X11226000Y-10414000I-50000J0D01*
G01*
X11226000Y-10668000D02*
G75*
G03X11226000Y-10668000I-50000J0D01*
G01*
X11226000Y-10922000D02*
G75*
G03X11226000Y-10922000I-50000J0D01*
G01*
X11226000Y-11176000D02*
G75*
G03X11226000Y-11176000I-50000J0D01*
G01*
X11226000Y-11430000D02*
G75*
G03X11226000Y-11430000I-50000J0D01*
G01*
X11226000Y-11684000D02*
G75*
G03X11226000Y-11684000I-50000J0D01*
G01*
X11226000Y-11938000D02*
G75*
G03X11226000Y-11938000I-50000J0D01*
G01*
X11226000Y-12192000D02*
G75*
G03X11226000Y-12192000I-50000J0D01*
G01*
X11226000Y-12446000D02*
G75*
G03X11226000Y-12446000I-50000J0D01*
G01*
X11226000Y-12700000D02*
G75*
G03X11226000Y-12700000I-50000J0D01*
G01*
X11480000Y-8890000D02*
G75*
G03X11480000Y-8890000I-50000J0D01*
G01*
X11480000Y-9144000D02*
G75*
G03X11480000Y-9144000I-50000J0D01*
G01*
X11480000Y-9398000D02*
G75*
G03X11480000Y-9398000I-50000J0D01*
G01*
X11480000Y-9652000D02*
G75*
G03X11480000Y-9652000I-50000J0D01*
G01*
X11480000Y-9906000D02*
G75*
G03X11480000Y-9906000I-50000J0D01*
G01*
X11480000Y-10160000D02*
G75*
G03X11480000Y-10160000I-50000J0D01*
G01*
X11480000Y-10414000D02*
G75*
G03X11480000Y-10414000I-50000J0D01*
G01*
X11480000Y-10668000D02*
G75*
G03X11480000Y-10668000I-50000J0D01*
G01*
X11480000Y-10922000D02*
G75*
G03X11480000Y-10922000I-50000J0D01*
G01*
X11480000Y-11176000D02*
G75*
G03X11480000Y-11176000I-50000J0D01*
G01*
X11480000Y-11430000D02*
G75*
G03X11480000Y-11430000I-50000J0D01*
G01*
X11480000Y-11684000D02*
G75*
G03X11480000Y-11684000I-50000J0D01*
G01*
X11480000Y-11938000D02*
G75*
G03X11480000Y-11938000I-50000J0D01*
G01*
X11480000Y-12192000D02*
G75*
G03X11480000Y-12192000I-50000J0D01*
G01*
X11480000Y-12446000D02*
G75*
G03X11480000Y-12446000I-50000J0D01*
G01*
X11480000Y-12700000D02*
G75*
G03X11480000Y-12700000I-50000J0D01*
G01*
X11861000Y-8763000D02*
G75*
G03X11861000Y-8763000I-50000J0D01*
G01*
X11861000Y-9017000D02*
G75*
G03X11861000Y-9017000I-50000J0D01*
G01*
X11861000Y-9271000D02*
G75*
G03X11861000Y-9271000I-50000J0D01*
G01*
X11861000Y-9525000D02*
G75*
G03X11861000Y-9525000I-50000J0D01*
G01*
X11861000Y-12138000D02*
G75*
G03X11861000Y-12138000I-50000J0D01*
G01*
X11861000Y-12392000D02*
G75*
G03X11861000Y-12392000I-50000J0D01*
G01*
X11861000Y-12646000D02*
G75*
G03X11861000Y-12646000I-50000J0D01*
G01*
X11861000Y-12900000D02*
G75*
G03X11861000Y-12900000I-50000J0D01*
G01*
X20116000Y-8890000D02*
G75*
G03X20116000Y-8890000I-50000J0D01*
G01*
X20116000Y-9144000D02*
G75*
G03X20116000Y-9144000I-50000J0D01*
G01*
X20116000Y-9398000D02*
G75*
G03X20116000Y-9398000I-50000J0D01*
G01*
X20116000Y-9652000D02*
G75*
G03X20116000Y-9652000I-50000J0D01*
G01*
X20116000Y-9906000D02*
G75*
G03X20116000Y-9906000I-50000J0D01*
G01*
X20116000Y-10160000D02*
G75*
G03X20116000Y-10160000I-50000J0D01*
G01*
X20116000Y-10414000D02*
G75*
G03X20116000Y-10414000I-50000J0D01*
G01*
X20116000Y-10668000D02*
G75*
G03X20116000Y-10668000I-50000J0D01*
G01*
X20116000Y-10922000D02*
G75*
G03X20116000Y-10922000I-50000J0D01*
G01*
X20116000Y-11176000D02*
G75*
G03X20116000Y-11176000I-50000J0D01*
G01*
X20116000Y-11430000D02*
G75*
G03X20116000Y-11430000I-50000J0D01*
G01*
X20116000Y-11684000D02*
G75*
G03X20116000Y-11684000I-50000J0D01*
G01*
X20116000Y-11938000D02*
G75*
G03X20116000Y-11938000I-50000J0D01*
G01*
X20116000Y-12192000D02*
G75*
G03X20116000Y-12192000I-50000J0D01*
G01*
X20116000Y-12446000D02*
G75*
G03X20116000Y-12446000I-50000J0D01*
G01*
X20116000Y-12700000D02*
G75*
G03X20116000Y-12700000I-50000J0D01*
G01*
X20370000Y-8890000D02*
G75*
G03X20370000Y-8890000I-50000J0D01*
G01*
X20370000Y-9144000D02*
G75*
G03X20370000Y-9144000I-50000J0D01*
G01*
X20370000Y-9398000D02*
G75*
G03X20370000Y-9398000I-50000J0D01*
G01*
X20370000Y-9652000D02*
G75*
G03X20370000Y-9652000I-50000J0D01*
G01*
X20370000Y-9906000D02*
G75*
G03X20370000Y-9906000I-50000J0D01*
G01*
X20370000Y-10160000D02*
G75*
G03X20370000Y-10160000I-50000J0D01*
G01*
X20370000Y-10414000D02*
G75*
G03X20370000Y-10414000I-50000J0D01*
G01*
X20370000Y-10668000D02*
G75*
G03X20370000Y-10668000I-50000J0D01*
G01*
X20370000Y-10922000D02*
G75*
G03X20370000Y-10922000I-50000J0D01*
G01*
X20370000Y-11176000D02*
G75*
G03X20370000Y-11176000I-50000J0D01*
G01*
X20370000Y-11430000D02*
G75*
G03X20370000Y-11430000I-50000J0D01*
G01*
X20370000Y-11684000D02*
G75*
G03X20370000Y-11684000I-50000J0D01*
G01*
X20370000Y-11938000D02*
G75*
G03X20370000Y-11938000I-50000J0D01*
G01*
X20370000Y-12192000D02*
G75*
G03X20370000Y-12192000I-50000J0D01*
G01*
X20370000Y-12446000D02*
G75*
G03X20370000Y-12446000I-50000J0D01*
G01*
X20370000Y-12700000D02*
G75*
G03X20370000Y-12700000I-50000J0D01*
G01*
D13*
X11058929Y-13554214D02*
X11058929Y-13254214D01*
X11130357Y-13254214D01*
X11173214Y-13268500D01*
X11201786Y-13297071D01*
X11216071Y-13325643D01*
X11230357Y-13382786D01*
X11230357Y-13425643D01*
X11216071Y-13482786D01*
X11201786Y-13511357D01*
X11173214Y-13539929D01*
X11130357Y-13554214D01*
X11058929Y-13554214D01*
X11358928Y-13554214D02*
X11358928Y-13354214D01*
X11358928Y-13411357D02*
X11373214Y-13382786D01*
X11387500Y-13368500D01*
X11416071Y-13354214D01*
X11444643Y-13354214D01*
X11544643Y-13554214D02*
X11544643Y-13354214D01*
X11544643Y-13254214D02*
X11530357Y-13268500D01*
X11544643Y-13282786D01*
X11558928Y-13268500D01*
X11544643Y-13254214D01*
X11544643Y-13282786D01*
X11730357Y-13554214D02*
X11701786Y-13539929D01*
X11687500Y-13511357D01*
X11687500Y-13254214D01*
X11887500Y-13554214D02*
X11858928Y-13539929D01*
X11844643Y-13511357D01*
X11844643Y-13254214D01*
X12230357Y-13554214D02*
X12230357Y-13254214D01*
X12330357Y-13468500D01*
X12430357Y-13254214D01*
X12430357Y-13554214D01*
X12701786Y-13554214D02*
X12701786Y-13397071D01*
X12687500Y-13368500D01*
X12658928Y-13354214D01*
X12601786Y-13354214D01*
X12573214Y-13368500D01*
X12701786Y-13539929D02*
X12673214Y-13554214D01*
X12601786Y-13554214D01*
X12573214Y-13539929D01*
X12558928Y-13511357D01*
X12558928Y-13482786D01*
X12573214Y-13454214D01*
X12601786Y-13439929D01*
X12673214Y-13439929D01*
X12701786Y-13425643D01*
X12844643Y-13354214D02*
X12844643Y-13654214D01*
X12844643Y-13368500D02*
X12873214Y-13354214D01*
X12930357Y-13354214D01*
X12958928Y-13368500D01*
X12973214Y-13382786D01*
X12987500Y-13411357D01*
X12987500Y-13497071D01*
X12973214Y-13525643D01*
X12958928Y-13539929D01*
X12930357Y-13554214D01*
X12873214Y-13554214D01*
X12844643Y-13539929D01*
X13116071Y-13525643D02*
X13130357Y-13539929D01*
X13116071Y-13554214D01*
X13101786Y-13539929D01*
X13116071Y-13525643D01*
X13116071Y-13554214D01*
X13116071Y-13368500D02*
X13130357Y-13382786D01*
X13116071Y-13397071D01*
X13101786Y-13382786D01*
X13116071Y-13368500D01*
X13116071Y-13397071D01*
X10757500Y-14033500D02*
X10787500Y-14063500D01*
X10787500Y-14033500D02*
X10757500Y-14063500D01*
X11116071Y-13884214D02*
X11144643Y-13884214D01*
X11173214Y-13898500D01*
X11187500Y-13912786D01*
X11201786Y-13941357D01*
X11216071Y-13998500D01*
X11216071Y-14069929D01*
X11201786Y-14127071D01*
X11187500Y-14155643D01*
X11173214Y-14169929D01*
X11144643Y-14184214D01*
X11116071Y-14184214D01*
X11087500Y-14169929D01*
X11073214Y-14155643D01*
X11058929Y-14127071D01*
X11044643Y-14069929D01*
X11044643Y-13998500D01*
X11058929Y-13941357D01*
X11073214Y-13912786D01*
X11087500Y-13898500D01*
X11116071Y-13884214D01*
X11344643Y-14155643D02*
X11358928Y-14169929D01*
X11344643Y-14184214D01*
X11330357Y-14169929D01*
X11344643Y-14155643D01*
X11344643Y-14184214D01*
X11458928Y-13884214D02*
X11644643Y-13884214D01*
X11544643Y-13998500D01*
X11587500Y-13998500D01*
X11616071Y-14012786D01*
X11630357Y-14027071D01*
X11644643Y-14055643D01*
X11644643Y-14127071D01*
X11630357Y-14155643D01*
X11616071Y-14169929D01*
X11587500Y-14184214D01*
X11501786Y-14184214D01*
X11473214Y-14169929D01*
X11458928Y-14155643D01*
X11830357Y-13884214D02*
X11858928Y-13884214D01*
X11887500Y-13898500D01*
X11901786Y-13912786D01*
X11916071Y-13941357D01*
X11930357Y-13998500D01*
X11930357Y-14069929D01*
X11916071Y-14127071D01*
X11901786Y-14155643D01*
X11887500Y-14169929D01*
X11858928Y-14184214D01*
X11830357Y-14184214D01*
X11801786Y-14169929D01*
X11787500Y-14155643D01*
X11773214Y-14127071D01*
X11758928Y-14069929D01*
X11758928Y-13998500D01*
X11773214Y-13941357D01*
X11787500Y-13912786D01*
X11801786Y-13898500D01*
X11830357Y-13884214D01*
X12058928Y-14184214D02*
X12058928Y-13984214D01*
X12058928Y-14012786D02*
X12073214Y-13998500D01*
X12101786Y-13984214D01*
X12144643Y-13984214D01*
X12173214Y-13998500D01*
X12187500Y-14027071D01*
X12187500Y-14184214D01*
X12187500Y-14027071D02*
X12201786Y-13998500D01*
X12230357Y-13984214D01*
X12273214Y-13984214D01*
X12301786Y-13998500D01*
X12316071Y-14027071D01*
X12316071Y-14184214D01*
X12458928Y-14184214D02*
X12458928Y-13984214D01*
X12458928Y-14012786D02*
X12473214Y-13998500D01*
X12501786Y-13984214D01*
X12544643Y-13984214D01*
X12573214Y-13998500D01*
X12587500Y-14027071D01*
X12587500Y-14184214D01*
X12587500Y-14027071D02*
X12601786Y-13998500D01*
X12630357Y-13984214D01*
X12673214Y-13984214D01*
X12701786Y-13998500D01*
X12716071Y-14027071D01*
X12716071Y-14184214D01*
X13301786Y-13869929D02*
X13044643Y-14255643D01*
X13687500Y-13884214D02*
X13716071Y-13884214D01*
X13744643Y-13898500D01*
X13758928Y-13912786D01*
X13773214Y-13941357D01*
X13787500Y-13998500D01*
X13787500Y-14069929D01*
X13773214Y-14127071D01*
X13758928Y-14155643D01*
X13744643Y-14169929D01*
X13716071Y-14184214D01*
X13687500Y-14184214D01*
X13658928Y-14169929D01*
X13644643Y-14155643D01*
X13630357Y-14127071D01*
X13616071Y-14069929D01*
X13616071Y-13998500D01*
X13630357Y-13941357D01*
X13644643Y-13912786D01*
X13658928Y-13898500D01*
X13687500Y-13884214D01*
X13916071Y-14155643D02*
X13930357Y-14169929D01*
X13916071Y-14184214D01*
X13901786Y-14169929D01*
X13916071Y-14155643D01*
X13916071Y-14184214D01*
X14116071Y-13884214D02*
X14144643Y-13884214D01*
X14173214Y-13898500D01*
X14187500Y-13912786D01*
X14201785Y-13941357D01*
X14216071Y-13998500D01*
X14216071Y-14069929D01*
X14201785Y-14127071D01*
X14187500Y-14155643D01*
X14173214Y-14169929D01*
X14144643Y-14184214D01*
X14116071Y-14184214D01*
X14087500Y-14169929D01*
X14073214Y-14155643D01*
X14058928Y-14127071D01*
X14044643Y-14069929D01*
X14044643Y-13998500D01*
X14058928Y-13941357D01*
X14073214Y-13912786D01*
X14087500Y-13898500D01*
X14116071Y-13884214D01*
X14501785Y-14184214D02*
X14330357Y-14184214D01*
X14416071Y-14184214D02*
X14416071Y-13884214D01*
X14387500Y-13927071D01*
X14358928Y-13955643D01*
X14330357Y-13969929D01*
X14616071Y-13912786D02*
X14630357Y-13898500D01*
X14658928Y-13884214D01*
X14730357Y-13884214D01*
X14758928Y-13898500D01*
X14773214Y-13912786D01*
X14787500Y-13941357D01*
X14787500Y-13969929D01*
X14773214Y-14012786D01*
X14601785Y-14184214D01*
X14787500Y-14184214D01*
X14901786Y-13884214D02*
X14901786Y-13941357D01*
X15016071Y-13884214D02*
X15016071Y-13941357D01*
X15458928Y-14298500D02*
X15444643Y-14284214D01*
X15416071Y-14241357D01*
X15401785Y-14212786D01*
X15387500Y-14169929D01*
X15373214Y-14098500D01*
X15373214Y-14041357D01*
X15387500Y-13969929D01*
X15401785Y-13927071D01*
X15416071Y-13898500D01*
X15444643Y-13855643D01*
X15458928Y-13841357D01*
X15730357Y-14184214D02*
X15558928Y-14184214D01*
X15644643Y-14184214D02*
X15644643Y-13884214D01*
X15616071Y-13927071D01*
X15587500Y-13955643D01*
X15558928Y-13969929D01*
X15830357Y-13884214D02*
X16016071Y-13884214D01*
X15916071Y-13998500D01*
X15958928Y-13998500D01*
X15987500Y-14012786D01*
X16001785Y-14027071D01*
X16016071Y-14055643D01*
X16016071Y-14127071D01*
X16001785Y-14155643D01*
X15987500Y-14169929D01*
X15958928Y-14184214D01*
X15873214Y-14184214D01*
X15844643Y-14169929D01*
X15830357Y-14155643D01*
X16301785Y-14184214D02*
X16130357Y-14184214D01*
X16216071Y-14184214D02*
X16216071Y-13884214D01*
X16187500Y-13927071D01*
X16158928Y-13955643D01*
X16130357Y-13969929D01*
X16658928Y-14184214D02*
X16658928Y-13884214D01*
X16787500Y-14184214D02*
X16787500Y-14027071D01*
X16773214Y-13998500D01*
X16744643Y-13984214D01*
X16701785Y-13984214D01*
X16673214Y-13998500D01*
X16658928Y-14012786D01*
X16973214Y-14184214D02*
X16944643Y-14169929D01*
X16930357Y-14155643D01*
X16916071Y-14127071D01*
X16916071Y-14041357D01*
X16930357Y-14012786D01*
X16944643Y-13998500D01*
X16973214Y-13984214D01*
X17016071Y-13984214D01*
X17044643Y-13998500D01*
X17058928Y-14012786D01*
X17073214Y-14041357D01*
X17073214Y-14127071D01*
X17058928Y-14155643D01*
X17044643Y-14169929D01*
X17016071Y-14184214D01*
X16973214Y-14184214D01*
X17244643Y-14184214D02*
X17216071Y-14169929D01*
X17201786Y-14141357D01*
X17201786Y-13884214D01*
X17473214Y-14169929D02*
X17444643Y-14184214D01*
X17387500Y-14184214D01*
X17358929Y-14169929D01*
X17344643Y-14141357D01*
X17344643Y-14027071D01*
X17358929Y-13998500D01*
X17387500Y-13984214D01*
X17444643Y-13984214D01*
X17473214Y-13998500D01*
X17487500Y-14027071D01*
X17487500Y-14055643D01*
X17344643Y-14084214D01*
X17601786Y-14169929D02*
X17630357Y-14184214D01*
X17687500Y-14184214D01*
X17716071Y-14169929D01*
X17730357Y-14141357D01*
X17730357Y-14127071D01*
X17716071Y-14098500D01*
X17687500Y-14084214D01*
X17644643Y-14084214D01*
X17616071Y-14069929D01*
X17601786Y-14041357D01*
X17601786Y-14027071D01*
X17616071Y-13998500D01*
X17644643Y-13984214D01*
X17687500Y-13984214D01*
X17716071Y-13998500D01*
X17830357Y-14298500D02*
X17844643Y-14284214D01*
X17873214Y-14241357D01*
X17887500Y-14212786D01*
X17901786Y-14169929D01*
X17916071Y-14098500D01*
X17916071Y-14041357D01*
X17901786Y-13969929D01*
X17887500Y-13927071D01*
X17873214Y-13898500D01*
X17844643Y-13855643D01*
X17830357Y-13841357D01*
X10787500Y-14444500D02*
G75*
G03X10787500Y-14444500I-50000J0D01*
G01*
X11216071Y-14580214D02*
X11044643Y-14580214D01*
X11130357Y-14580214D02*
X11130357Y-14280214D01*
X11101786Y-14323071D01*
X11073214Y-14351643D01*
X11044643Y-14365929D01*
X11344643Y-14551643D02*
X11358928Y-14565929D01*
X11344643Y-14580214D01*
X11330357Y-14565929D01*
X11344643Y-14551643D01*
X11344643Y-14580214D01*
X11544643Y-14280214D02*
X11573214Y-14280214D01*
X11601786Y-14294500D01*
X11616071Y-14308786D01*
X11630357Y-14337357D01*
X11644643Y-14394500D01*
X11644643Y-14465929D01*
X11630357Y-14523071D01*
X11616071Y-14551643D01*
X11601786Y-14565929D01*
X11573214Y-14580214D01*
X11544643Y-14580214D01*
X11516071Y-14565929D01*
X11501786Y-14551643D01*
X11487500Y-14523071D01*
X11473214Y-14465929D01*
X11473214Y-14394500D01*
X11487500Y-14337357D01*
X11501786Y-14308786D01*
X11516071Y-14294500D01*
X11544643Y-14280214D01*
X11830357Y-14280214D02*
X11858928Y-14280214D01*
X11887500Y-14294500D01*
X11901786Y-14308786D01*
X11916071Y-14337357D01*
X11930357Y-14394500D01*
X11930357Y-14465929D01*
X11916071Y-14523071D01*
X11901786Y-14551643D01*
X11887500Y-14565929D01*
X11858928Y-14580214D01*
X11830357Y-14580214D01*
X11801786Y-14565929D01*
X11787500Y-14551643D01*
X11773214Y-14523071D01*
X11758928Y-14465929D01*
X11758928Y-14394500D01*
X11773214Y-14337357D01*
X11787500Y-14308786D01*
X11801786Y-14294500D01*
X11830357Y-14280214D01*
X12058928Y-14580214D02*
X12058928Y-14380214D01*
X12058928Y-14408786D02*
X12073214Y-14394500D01*
X12101786Y-14380214D01*
X12144643Y-14380214D01*
X12173214Y-14394500D01*
X12187500Y-14423071D01*
X12187500Y-14580214D01*
X12187500Y-14423071D02*
X12201786Y-14394500D01*
X12230357Y-14380214D01*
X12273214Y-14380214D01*
X12301786Y-14394500D01*
X12316071Y-14423071D01*
X12316071Y-14580214D01*
X12458928Y-14580214D02*
X12458928Y-14380214D01*
X12458928Y-14408786D02*
X12473214Y-14394500D01*
X12501786Y-14380214D01*
X12544643Y-14380214D01*
X12573214Y-14394500D01*
X12587500Y-14423071D01*
X12587500Y-14580214D01*
X12587500Y-14423071D02*
X12601786Y-14394500D01*
X12630357Y-14380214D01*
X12673214Y-14380214D01*
X12701786Y-14394500D01*
X12716071Y-14423071D01*
X12716071Y-14580214D01*
X13301786Y-14265929D02*
X13044643Y-14651643D01*
X13687500Y-14280214D02*
X13716071Y-14280214D01*
X13744643Y-14294500D01*
X13758928Y-14308786D01*
X13773214Y-14337357D01*
X13787500Y-14394500D01*
X13787500Y-14465929D01*
X13773214Y-14523071D01*
X13758928Y-14551643D01*
X13744643Y-14565929D01*
X13716071Y-14580214D01*
X13687500Y-14580214D01*
X13658928Y-14565929D01*
X13644643Y-14551643D01*
X13630357Y-14523071D01*
X13616071Y-14465929D01*
X13616071Y-14394500D01*
X13630357Y-14337357D01*
X13644643Y-14308786D01*
X13658928Y-14294500D01*
X13687500Y-14280214D01*
X13916071Y-14551643D02*
X13930357Y-14565929D01*
X13916071Y-14580214D01*
X13901786Y-14565929D01*
X13916071Y-14551643D01*
X13916071Y-14580214D01*
X14116071Y-14280214D02*
X14144643Y-14280214D01*
X14173214Y-14294500D01*
X14187500Y-14308786D01*
X14201785Y-14337357D01*
X14216071Y-14394500D01*
X14216071Y-14465929D01*
X14201785Y-14523071D01*
X14187500Y-14551643D01*
X14173214Y-14565929D01*
X14144643Y-14580214D01*
X14116071Y-14580214D01*
X14087500Y-14565929D01*
X14073214Y-14551643D01*
X14058928Y-14523071D01*
X14044643Y-14465929D01*
X14044643Y-14394500D01*
X14058928Y-14337357D01*
X14073214Y-14308786D01*
X14087500Y-14294500D01*
X14116071Y-14280214D01*
X14316071Y-14280214D02*
X14501785Y-14280214D01*
X14401785Y-14394500D01*
X14444643Y-14394500D01*
X14473214Y-14408786D01*
X14487500Y-14423071D01*
X14501785Y-14451643D01*
X14501785Y-14523071D01*
X14487500Y-14551643D01*
X14473214Y-14565929D01*
X14444643Y-14580214D01*
X14358928Y-14580214D01*
X14330357Y-14565929D01*
X14316071Y-14551643D01*
X14644643Y-14580214D02*
X14701785Y-14580214D01*
X14730357Y-14565929D01*
X14744643Y-14551643D01*
X14773214Y-14508786D01*
X14787500Y-14451643D01*
X14787500Y-14337357D01*
X14773214Y-14308786D01*
X14758928Y-14294500D01*
X14730357Y-14280214D01*
X14673214Y-14280214D01*
X14644643Y-14294500D01*
X14630357Y-14308786D01*
X14616071Y-14337357D01*
X14616071Y-14408786D01*
X14630357Y-14437357D01*
X14644643Y-14451643D01*
X14673214Y-14465929D01*
X14730357Y-14465929D01*
X14758928Y-14451643D01*
X14773214Y-14437357D01*
X14787500Y-14408786D01*
X14901786Y-14280214D02*
X14901786Y-14337357D01*
X15016071Y-14280214D02*
X15016071Y-14337357D01*
X15458928Y-14694500D02*
X15444643Y-14680214D01*
X15416071Y-14637357D01*
X15401785Y-14608786D01*
X15387500Y-14565929D01*
X15373214Y-14494500D01*
X15373214Y-14437357D01*
X15387500Y-14365929D01*
X15401785Y-14323071D01*
X15416071Y-14294500D01*
X15444643Y-14251643D01*
X15458928Y-14237357D01*
X15544643Y-14280214D02*
X15744643Y-14280214D01*
X15616071Y-14580214D01*
X15844643Y-14308786D02*
X15858928Y-14294500D01*
X15887500Y-14280214D01*
X15958928Y-14280214D01*
X15987500Y-14294500D01*
X16001785Y-14308786D01*
X16016071Y-14337357D01*
X16016071Y-14365929D01*
X16001785Y-14408786D01*
X15830357Y-14580214D01*
X16016071Y-14580214D01*
X16373214Y-14580214D02*
X16373214Y-14280214D01*
X16501785Y-14580214D02*
X16501785Y-14423071D01*
X16487500Y-14394500D01*
X16458928Y-14380214D01*
X16416071Y-14380214D01*
X16387500Y-14394500D01*
X16373214Y-14408786D01*
X16687500Y-14580214D02*
X16658928Y-14565929D01*
X16644643Y-14551643D01*
X16630357Y-14523071D01*
X16630357Y-14437357D01*
X16644643Y-14408786D01*
X16658928Y-14394500D01*
X16687500Y-14380214D01*
X16730357Y-14380214D01*
X16758928Y-14394500D01*
X16773214Y-14408786D01*
X16787500Y-14437357D01*
X16787500Y-14523071D01*
X16773214Y-14551643D01*
X16758928Y-14565929D01*
X16730357Y-14580214D01*
X16687500Y-14580214D01*
X16958928Y-14580214D02*
X16930357Y-14565929D01*
X16916071Y-14537357D01*
X16916071Y-14280214D01*
X17187500Y-14565929D02*
X17158929Y-14580214D01*
X17101786Y-14580214D01*
X17073214Y-14565929D01*
X17058929Y-14537357D01*
X17058929Y-14423071D01*
X17073214Y-14394500D01*
X17101786Y-14380214D01*
X17158929Y-14380214D01*
X17187500Y-14394500D01*
X17201786Y-14423071D01*
X17201786Y-14451643D01*
X17058929Y-14480214D01*
X17316071Y-14565929D02*
X17344643Y-14580214D01*
X17401786Y-14580214D01*
X17430357Y-14565929D01*
X17444643Y-14537357D01*
X17444643Y-14523071D01*
X17430357Y-14494500D01*
X17401786Y-14480214D01*
X17358929Y-14480214D01*
X17330357Y-14465929D01*
X17316071Y-14437357D01*
X17316071Y-14423071D01*
X17330357Y-14394500D01*
X17358929Y-14380214D01*
X17401786Y-14380214D01*
X17430357Y-14394500D01*
X17544643Y-14694500D02*
X17558929Y-14680214D01*
X17587500Y-14637357D01*
X17601786Y-14608786D01*
X17616071Y-14565929D01*
X17630357Y-14494500D01*
X17630357Y-14437357D01*
X17616071Y-14365929D01*
X17601786Y-14323071D01*
X17587500Y-14294500D01*
X17558929Y-14251643D01*
X17544643Y-14237357D01*
M02*
