M48
;DRILL file {KiCad 4.0.7-e2-6376~58~ubuntu16.04.1} date Wed Dec  6 17:26:12 2017
;FORMAT={3:3/ absolute / metric / suppress leading zeros}
FMAT,2
METRIC,TZ
T1C0.300
T2C1.000
%
G90
G05
M71
T1
X119000Y-101500
X120950Y-103000
X121000Y-98000
X121000Y-119000
X121500Y-102000
X122000Y-112000
X123000Y-98865
X123000Y-100135
X123500Y-95000
X125000Y-115632
X125014Y-103995
X125018Y-106033
X125500Y-115000
X126001Y-95502
X126501Y-110013
X127501Y-95501
X128499Y-95506
X128753Y-100000
X128774Y-107402
X129000Y-105501
X129088Y-104272
X130984Y-104982
X132000Y-99000
X132000Y-100000
X133000Y-123500
X133000Y-124500
X133000Y-125500
X133005Y-118995
X133500Y-128500
X133754Y-112334
X134000Y-89500
X134000Y-114500
X134000Y-119000
X134500Y-107013
X134500Y-104541
X134501Y-97574
X135000Y-99500
X135000Y-101000
X135000Y-110500
X135000Y-114000
X135001Y-120501
X136000Y-92500
X136507Y-89469
X137000Y-127500
X137452Y-124512
X138000Y-105500
X139000Y-105500
X139000Y-113000
X139000Y-119500
X140500Y-93000
X140500Y-98500
X140950Y-119501
X141000Y-104500
X141000Y-113000
X141000Y-115000
X141000Y-120500
X141000Y-124500
X141000Y-125500
X141000Y-126500
X142391Y-103500
X143500Y-103500
X145500Y-125000
X146180Y-96820
X147281Y-104117
X148000Y-105500
X148504Y-91500
X150000Y-122000
X150500Y-111500
X150500Y-116500
X150510Y-125100
X150850Y-118500
X151000Y-114000
X151200Y-110800
X151288Y-126393
X151500Y-125500
X152000Y-115000
X152000Y-122000
X152403Y-87006
X152500Y-111000
X152502Y-102004
X152671Y-122594
X153000Y-92500
X153350Y-121961
X154001Y-123276
X154004Y-107051
X154495Y-105233
X154500Y-96500
X154526Y-103505
X154777Y-122712
X155002Y-107051
X155341Y-123370
X155373Y-97487
X156500Y-96500
X156500Y-101500
X156666Y-124745
X157243Y-102600
X157747Y-128756
X158000Y-119000
X158500Y-88000
X158750Y-125500
X158806Y-122424
X159000Y-111000
X159000Y-117000
X159500Y-126500
X159501Y-124014
X162500Y-111000
X163000Y-102500
X163000Y-117501
X163000Y-113000
X163180Y-118980
X163500Y-112000
X163903Y-101748
X164001Y-112999
X164500Y-114000
X164500Y-116500
X164500Y-120820
X164505Y-107494
X164826Y-101244
X167484Y-116028
X169500Y-118500
X169506Y-101488
X172500Y-88500
X174509Y-112005
X175500Y-128721
X179070Y-121920
X180340Y-125222
X193000Y-96000
X193501Y-89500
X196000Y-121708
X196014Y-108975
X198500Y-88000
T2
X111760Y-88900
X111760Y-91440
X111760Y-93980
X111760Y-96520
X111760Y-99060
X111760Y-101600
X111760Y-104140
X111760Y-106680
X111760Y-109220
X111760Y-111760
X111760Y-114300
X111760Y-116840
X111760Y-119380
X111760Y-121920
X111760Y-124460
X111760Y-127000
X114300Y-88900
X114300Y-91440
X114300Y-93980
X114300Y-96520
X114300Y-99060
X114300Y-101600
X114300Y-104140
X114300Y-106680
X114300Y-109220
X114300Y-111760
X114300Y-114300
X114300Y-116840
X114300Y-119380
X114300Y-121920
X114300Y-124460
X114300Y-127000
X118110Y-87630
X118110Y-90170
X118110Y-92710
X118110Y-95250
X118110Y-121380
X118110Y-123920
X118110Y-126460
X118110Y-129000
X200660Y-88900
X200660Y-91440
X200660Y-93980
X200660Y-96520
X200660Y-99060
X200660Y-101600
X200660Y-104140
X200660Y-106680
X200660Y-109220
X200660Y-111760
X200660Y-114300
X200660Y-116840
X200660Y-119380
X200660Y-121920
X200660Y-124460
X200660Y-127000
X203200Y-88900
X203200Y-91440
X203200Y-93980
X203200Y-96520
X203200Y-99060
X203200Y-101600
X203200Y-104140
X203200Y-106680
X203200Y-109220
X203200Y-111760
X203200Y-114300
X203200Y-116840
X203200Y-119380
X203200Y-121920
X203200Y-124460
X203200Y-127000
T0
M30
