%TF.GenerationSoftware,KiCad,Pcbnew,4.0.7-e2-6376~58~ubuntu16.04.1*%
%TF.CreationDate,2017-12-06T17:26:10+02:00*%
%TF.ProjectId,instrument_cluster,696E737472756D656E745F636C757374,rev?*%
%TF.FileFunction,Other,Fab,Bot*%
%FSLAX46Y46*%
G04 Gerber Fmt 4.6, Leading zero omitted, Abs format (unit mm)*
G04 Created by KiCad (PCBNEW 4.0.7-e2-6376~58~ubuntu16.04.1) date Wed Dec  6 17:26:10 2017*
%MOMM*%
%LPD*%
G01*
G04 APERTURE LIST*
%ADD10C,0.100000*%
%ADD11C,0.150000*%
%ADD12C,0.075000*%
%ADD13C,0.135000*%
G04 APERTURE END LIST*
D10*
X138000000Y-87880000D02*
X138000000Y-89120000D01*
X140000000Y-87880000D02*
X138000000Y-87880000D01*
X140000000Y-89120000D02*
X140000000Y-87880000D01*
X138000000Y-89120000D02*
X140000000Y-89120000D01*
X145380000Y-93500000D02*
X146620000Y-93500000D01*
X145380000Y-91500000D02*
X145380000Y-93500000D01*
X146620000Y-91500000D02*
X145380000Y-91500000D01*
X146620000Y-93500000D02*
X146620000Y-91500000D01*
X117880000Y-100000000D02*
X119120000Y-100000000D01*
X117880000Y-98000000D02*
X117880000Y-100000000D01*
X119120000Y-98000000D02*
X117880000Y-98000000D01*
X119120000Y-100000000D02*
X119120000Y-98000000D01*
X125500000Y-107880000D02*
X125500000Y-109120000D01*
X127500000Y-107880000D02*
X125500000Y-107880000D01*
X127500000Y-109120000D02*
X127500000Y-107880000D01*
X125500000Y-109120000D02*
X127500000Y-109120000D01*
X144500000Y-121380000D02*
X144500000Y-122620000D01*
X146500000Y-121380000D02*
X144500000Y-121380000D01*
X146500000Y-122620000D02*
X146500000Y-121380000D01*
X144500000Y-122620000D02*
X146500000Y-122620000D01*
X146500000Y-111620000D02*
X146500000Y-110380000D01*
X144500000Y-111620000D02*
X146500000Y-111620000D01*
X144500000Y-110380000D02*
X144500000Y-111620000D01*
X146500000Y-110380000D02*
X144500000Y-110380000D01*
X135880000Y-121500000D02*
X137120000Y-121500000D01*
X135880000Y-119500000D02*
X135880000Y-121500000D01*
X137120000Y-119500000D02*
X135880000Y-119500000D01*
X137120000Y-121500000D02*
X137120000Y-119500000D01*
X135880000Y-115000000D02*
X137120000Y-115000000D01*
X135880000Y-113000000D02*
X135880000Y-115000000D01*
X137120000Y-113000000D02*
X135880000Y-113000000D01*
X137120000Y-115000000D02*
X137120000Y-113000000D01*
X152500000Y-96300000D02*
X152500000Y-91700000D01*
X152500000Y-91700000D02*
X149500000Y-91700000D01*
X149500000Y-96300000D02*
X152500000Y-96300000D01*
X149500000Y-96300000D02*
X149500000Y-91700000D01*
X151001020Y-93350560D02*
X151001020Y-92448860D01*
X151001020Y-94501180D02*
X151001020Y-95499400D01*
X150200920Y-93350560D02*
X151801120Y-93350560D01*
X151750320Y-94501180D02*
X150200920Y-94501180D01*
X151001020Y-93350560D02*
X151750320Y-94501180D01*
X151001020Y-93350560D02*
X150200920Y-94501180D01*
X155250000Y-87500000D02*
X154750000Y-87500000D01*
X155250000Y-87900000D02*
X155850000Y-87500000D01*
X155250000Y-87100000D02*
X155250000Y-87900000D01*
X155850000Y-87500000D02*
X155250000Y-87100000D01*
X155850000Y-87500000D02*
X155850000Y-88050000D01*
X155850000Y-87500000D02*
X155850000Y-86950000D01*
X156250000Y-87500000D02*
X155850000Y-87500000D01*
X156900000Y-88400000D02*
X156900000Y-86600000D01*
X154100000Y-88400000D02*
X156900000Y-88400000D01*
X154100000Y-86600000D02*
X154100000Y-88400000D01*
X156900000Y-86600000D02*
X154100000Y-86600000D01*
X168000000Y-122250000D02*
X168000000Y-122750000D01*
X168400000Y-122250000D02*
X168000000Y-121650000D01*
X167600000Y-122250000D02*
X168400000Y-122250000D01*
X168000000Y-121650000D02*
X167600000Y-122250000D01*
X168000000Y-121650000D02*
X168550000Y-121650000D01*
X168000000Y-121650000D02*
X167450000Y-121650000D01*
X168000000Y-121250000D02*
X168000000Y-121650000D01*
X168900000Y-120600000D02*
X167100000Y-120600000D01*
X168900000Y-123400000D02*
X168900000Y-120600000D01*
X167100000Y-123400000D02*
X168900000Y-123400000D01*
X167100000Y-120600000D02*
X167100000Y-123400000D01*
X146900000Y-106850000D02*
X146100000Y-106850000D01*
X146900000Y-108150000D02*
X146900000Y-106850000D01*
X146100000Y-108150000D02*
X146900000Y-108150000D01*
X146100000Y-106850000D02*
X146100000Y-108150000D01*
X146500000Y-107300000D02*
X146275000Y-107700000D01*
X146500000Y-107300000D02*
X146500000Y-107025000D01*
X146725000Y-107700000D02*
X146500000Y-107300000D01*
X146275000Y-107700000D02*
X146725000Y-107700000D01*
X146225000Y-107300000D02*
X146775000Y-107300000D01*
X146500000Y-107700000D02*
X146500000Y-107950000D01*
X148850000Y-107100000D02*
X148850000Y-107900000D01*
X150150000Y-107100000D02*
X148850000Y-107100000D01*
X150150000Y-107900000D02*
X150150000Y-107100000D01*
X148850000Y-107900000D02*
X150150000Y-107900000D01*
X149300000Y-107500000D02*
X149700000Y-107725000D01*
X149300000Y-107500000D02*
X149025000Y-107500000D01*
X149700000Y-107275000D02*
X149300000Y-107500000D01*
X149700000Y-107725000D02*
X149700000Y-107275000D01*
X149300000Y-107775000D02*
X149300000Y-107225000D01*
X149700000Y-107500000D02*
X149950000Y-107500000D01*
X120050000Y-99380000D02*
X120050000Y-100620000D01*
X122050000Y-99380000D02*
X120050000Y-99380000D01*
X122050000Y-100620000D02*
X122050000Y-99380000D01*
X120050000Y-100620000D02*
X122050000Y-100620000D01*
X120050000Y-97380000D02*
X120050000Y-98620000D01*
X122050000Y-97380000D02*
X120050000Y-97380000D01*
X122050000Y-98620000D02*
X122050000Y-97380000D01*
X120050000Y-98620000D02*
X122050000Y-98620000D01*
X128120000Y-105000000D02*
X126880000Y-105000000D01*
X128120000Y-107000000D02*
X128120000Y-105000000D01*
X126880000Y-107000000D02*
X128120000Y-107000000D01*
X126880000Y-105000000D02*
X126880000Y-107000000D01*
X124880000Y-107000000D02*
X126120000Y-107000000D01*
X124880000Y-105000000D02*
X124880000Y-107000000D01*
X126120000Y-105000000D02*
X124880000Y-105000000D01*
X126120000Y-107000000D02*
X126120000Y-105000000D01*
X193500000Y-97380000D02*
X193500000Y-98620000D01*
X195500000Y-97380000D02*
X193500000Y-97380000D01*
X195500000Y-98620000D02*
X195500000Y-97380000D01*
X193500000Y-98620000D02*
X195500000Y-98620000D01*
X193500000Y-93880000D02*
X193500000Y-95120000D01*
X195500000Y-93880000D02*
X193500000Y-93880000D01*
X195500000Y-95120000D02*
X195500000Y-93880000D01*
X193500000Y-95120000D02*
X195500000Y-95120000D01*
X190000000Y-97380000D02*
X190000000Y-98620000D01*
X192000000Y-97380000D02*
X190000000Y-97380000D01*
X192000000Y-98620000D02*
X192000000Y-97380000D01*
X190000000Y-98620000D02*
X192000000Y-98620000D01*
X190000000Y-93880000D02*
X190000000Y-95120000D01*
X192000000Y-93880000D02*
X190000000Y-93880000D01*
X192000000Y-95120000D02*
X192000000Y-93880000D01*
X190000000Y-95120000D02*
X192000000Y-95120000D01*
X140050000Y-122120000D02*
X140050000Y-120880000D01*
X138050000Y-122120000D02*
X140050000Y-122120000D01*
X138050000Y-120880000D02*
X138050000Y-122120000D01*
X140050000Y-120880000D02*
X138050000Y-120880000D01*
X138050000Y-118880000D02*
X138050000Y-120120000D01*
X140050000Y-118880000D02*
X138050000Y-118880000D01*
X140050000Y-120120000D02*
X140050000Y-118880000D01*
X138050000Y-120120000D02*
X140050000Y-120120000D01*
X140000000Y-115620000D02*
X140000000Y-114380000D01*
X138000000Y-115620000D02*
X140000000Y-115620000D01*
X138000000Y-114380000D02*
X138000000Y-115620000D01*
X140000000Y-114380000D02*
X138000000Y-114380000D01*
X138000000Y-112380000D02*
X138000000Y-113620000D01*
X140000000Y-112380000D02*
X138000000Y-112380000D01*
X140000000Y-113620000D02*
X140000000Y-112380000D01*
X138000000Y-113620000D02*
X140000000Y-113620000D01*
D11*
X187455000Y-121850000D02*
X187455000Y-124750000D01*
X187455000Y-124750000D02*
X197355000Y-124750000D01*
X197355000Y-124750000D02*
X197355000Y-120850000D01*
X197355000Y-120850000D02*
X188455000Y-120850000D01*
X188455000Y-120850000D02*
X187455000Y-121850000D01*
X187605000Y-112850000D02*
X187605000Y-115750000D01*
X187605000Y-115750000D02*
X197505000Y-115750000D01*
X197505000Y-115750000D02*
X197505000Y-111850000D01*
X197505000Y-111850000D02*
X188605000Y-111850000D01*
X188605000Y-111850000D02*
X187605000Y-112850000D01*
D10*
X137200000Y-95000000D02*
X143800000Y-95000000D01*
X143800000Y-95000000D02*
X144000000Y-94800000D01*
X144000000Y-94800000D02*
X144000000Y-90200000D01*
X144000000Y-90200000D02*
X143800000Y-90000000D01*
X143800000Y-90000000D02*
X137200000Y-90000000D01*
X137200000Y-90000000D02*
X137000000Y-90200000D01*
X137000000Y-90200000D02*
X137000000Y-94800000D01*
X137000000Y-94800000D02*
X137200000Y-95000000D01*
X137000000Y-91000000D02*
X138000000Y-90000000D01*
X147000000Y-119800000D02*
X147000000Y-113200000D01*
X147000000Y-113200000D02*
X146800000Y-113000000D01*
X146800000Y-113000000D02*
X142200000Y-113000000D01*
X142200000Y-113000000D02*
X142000000Y-113200000D01*
X142000000Y-113200000D02*
X142000000Y-119800000D01*
X142000000Y-119800000D02*
X142200000Y-120000000D01*
X142200000Y-120000000D02*
X146800000Y-120000000D01*
X146800000Y-120000000D02*
X147000000Y-119800000D01*
X143000000Y-120000000D02*
X142000000Y-119000000D01*
D11*
X134250000Y-98250000D02*
X134250000Y-107250000D01*
X134250000Y-107250000D02*
X144250000Y-107250000D01*
X144250000Y-107250000D02*
X144250000Y-97250000D01*
X144250000Y-97250000D02*
X135250000Y-97250000D01*
X135250000Y-97250000D02*
X134250000Y-98250000D01*
X150750000Y-119750000D02*
X159750000Y-119750000D01*
X159750000Y-119750000D02*
X159750000Y-109750000D01*
X159750000Y-109750000D02*
X149750000Y-109750000D01*
X149750000Y-109750000D02*
X149750000Y-118750000D01*
X149750000Y-118750000D02*
X150750000Y-119750000D01*
D10*
X122300000Y-112000000D02*
X117700000Y-112000000D01*
X117700000Y-112000000D02*
X117700000Y-115000000D01*
X122300000Y-115000000D02*
X122300000Y-112000000D01*
X122300000Y-115000000D02*
X117700000Y-115000000D01*
X119350560Y-113498980D02*
X118448860Y-113498980D01*
X120501180Y-113498980D02*
X121499400Y-113498980D01*
X119350560Y-114299080D02*
X119350560Y-112698880D01*
X120501180Y-112749680D02*
X120501180Y-114299080D01*
X119350560Y-113498980D02*
X120501180Y-112749680D01*
X119350560Y-113498980D02*
X120501180Y-114299080D01*
X117700000Y-118500000D02*
X122300000Y-118500000D01*
X122300000Y-118500000D02*
X122300000Y-115500000D01*
X117700000Y-115500000D02*
X117700000Y-118500000D01*
X117700000Y-115500000D02*
X122300000Y-115500000D01*
X120649440Y-117001020D02*
X121551140Y-117001020D01*
X119498820Y-117001020D02*
X118500600Y-117001020D01*
X120649440Y-116200920D02*
X120649440Y-117801120D01*
X119498820Y-117750320D02*
X119498820Y-116200920D01*
X120649440Y-117001020D02*
X119498820Y-117750320D01*
X120649440Y-117001020D02*
X119498820Y-116200920D01*
X122300000Y-105000000D02*
X117700000Y-105000000D01*
X117700000Y-105000000D02*
X117700000Y-108000000D01*
X122300000Y-108000000D02*
X122300000Y-105000000D01*
X122300000Y-108000000D02*
X117700000Y-108000000D01*
X119350560Y-106498980D02*
X118448860Y-106498980D01*
X120501180Y-106498980D02*
X121499400Y-106498980D01*
X119350560Y-107299080D02*
X119350560Y-105698880D01*
X120501180Y-105749680D02*
X120501180Y-107299080D01*
X119350560Y-106498980D02*
X120501180Y-105749680D01*
X119350560Y-106498980D02*
X120501180Y-107299080D01*
X117700000Y-111500000D02*
X122300000Y-111500000D01*
X122300000Y-111500000D02*
X122300000Y-108500000D01*
X117700000Y-108500000D02*
X117700000Y-111500000D01*
X117700000Y-108500000D02*
X122300000Y-108500000D01*
X120649440Y-110001020D02*
X121551140Y-110001020D01*
X119498820Y-110001020D02*
X118500600Y-110001020D01*
X120649440Y-109200920D02*
X120649440Y-110801120D01*
X119498820Y-110750320D02*
X119498820Y-109200920D01*
X120649440Y-110001020D02*
X119498820Y-110750320D01*
X120649440Y-110001020D02*
X119498820Y-109200920D01*
X126100000Y-86900000D02*
X126100000Y-86100000D01*
X126100000Y-86500000D02*
X126700000Y-86900000D01*
X126700000Y-86100000D02*
X126100000Y-86500000D01*
X126700000Y-86900000D02*
X126700000Y-86100000D01*
X127500000Y-85900000D02*
X125500000Y-85900000D01*
X127500000Y-87100000D02*
X127500000Y-85900000D01*
X125500000Y-87100000D02*
X127500000Y-87100000D01*
X125500000Y-85900000D02*
X125500000Y-87100000D01*
X126100000Y-129900000D02*
X126100000Y-129100000D01*
X126100000Y-129500000D02*
X126700000Y-129900000D01*
X126700000Y-129100000D02*
X126100000Y-129500000D01*
X126700000Y-129900000D02*
X126700000Y-129100000D01*
X127500000Y-128900000D02*
X125500000Y-128900000D01*
X127500000Y-130100000D02*
X127500000Y-128900000D01*
X125500000Y-130100000D02*
X127500000Y-130100000D01*
X125500000Y-128900000D02*
X125500000Y-130100000D01*
X125500000Y-88880000D02*
X125500000Y-90120000D01*
X127500000Y-88880000D02*
X125500000Y-88880000D01*
X127500000Y-90120000D02*
X127500000Y-88880000D01*
X125500000Y-90120000D02*
X127500000Y-90120000D01*
X127500000Y-126620000D02*
X127500000Y-125380000D01*
X125500000Y-126620000D02*
X127500000Y-126620000D01*
X125500000Y-125380000D02*
X125500000Y-126620000D01*
X127500000Y-125380000D02*
X125500000Y-125380000D01*
D11*
X140071428Y-87202381D02*
X140642857Y-87202381D01*
X140357143Y-87202381D02*
X140357143Y-86202381D01*
X140452381Y-86345238D01*
X140547619Y-86440476D01*
X140642857Y-86488095D01*
X139214285Y-86202381D02*
X139404762Y-86202381D01*
X139500000Y-86250000D01*
X139547619Y-86297619D01*
X139642857Y-86440476D01*
X139690476Y-86630952D01*
X139690476Y-87011905D01*
X139642857Y-87107143D01*
X139595238Y-87154762D01*
X139500000Y-87202381D01*
X139309523Y-87202381D01*
X139214285Y-87154762D01*
X139166666Y-87107143D01*
X139119047Y-87011905D01*
X139119047Y-86773810D01*
X139166666Y-86678571D01*
X139214285Y-86630952D01*
X139309523Y-86583333D01*
X139500000Y-86583333D01*
X139595238Y-86630952D01*
X139642857Y-86678571D01*
X139690476Y-86773810D01*
X138690476Y-86535714D02*
X138690476Y-87535714D01*
X138690476Y-86583333D02*
X138595238Y-86535714D01*
X138404761Y-86535714D01*
X138309523Y-86583333D01*
X138261904Y-86630952D01*
X138214285Y-86726190D01*
X138214285Y-87011905D01*
X138261904Y-87107143D01*
X138309523Y-87154762D01*
X138404761Y-87202381D01*
X138595238Y-87202381D01*
X138690476Y-87154762D01*
X137452380Y-86678571D02*
X137785714Y-86678571D01*
X137785714Y-87202381D02*
X137785714Y-86202381D01*
X137309523Y-86202381D01*
X139642857Y-90357143D02*
X139690476Y-90404762D01*
X139833333Y-90452381D01*
X139928571Y-90452381D01*
X140071429Y-90404762D01*
X140166667Y-90309524D01*
X140214286Y-90214286D01*
X140261905Y-90023810D01*
X140261905Y-89880952D01*
X140214286Y-89690476D01*
X140166667Y-89595238D01*
X140071429Y-89500000D01*
X139928571Y-89452381D01*
X139833333Y-89452381D01*
X139690476Y-89500000D01*
X139642857Y-89547619D01*
X139261905Y-89547619D02*
X139214286Y-89500000D01*
X139119048Y-89452381D01*
X138880952Y-89452381D01*
X138785714Y-89500000D01*
X138738095Y-89547619D01*
X138690476Y-89642857D01*
X138690476Y-89738095D01*
X138738095Y-89880952D01*
X139309524Y-90452381D01*
X138690476Y-90452381D01*
X137738095Y-90452381D02*
X138309524Y-90452381D01*
X138023810Y-90452381D02*
X138023810Y-89452381D01*
X138119048Y-89595238D01*
X138214286Y-89690476D01*
X138309524Y-89738095D01*
X144702381Y-91428572D02*
X144702381Y-90857143D01*
X144702381Y-91142857D02*
X143702381Y-91142857D01*
X143845238Y-91047619D01*
X143940476Y-90952381D01*
X143988095Y-90857143D01*
X143702381Y-92285715D02*
X143702381Y-92095238D01*
X143750000Y-92000000D01*
X143797619Y-91952381D01*
X143940476Y-91857143D01*
X144130952Y-91809524D01*
X144511905Y-91809524D01*
X144607143Y-91857143D01*
X144654762Y-91904762D01*
X144702381Y-92000000D01*
X144702381Y-92190477D01*
X144654762Y-92285715D01*
X144607143Y-92333334D01*
X144511905Y-92380953D01*
X144273810Y-92380953D01*
X144178571Y-92333334D01*
X144130952Y-92285715D01*
X144083333Y-92190477D01*
X144083333Y-92000000D01*
X144130952Y-91904762D01*
X144178571Y-91857143D01*
X144273810Y-91809524D01*
X144035714Y-92809524D02*
X145035714Y-92809524D01*
X144083333Y-92809524D02*
X144035714Y-92904762D01*
X144035714Y-93095239D01*
X144083333Y-93190477D01*
X144130952Y-93238096D01*
X144226190Y-93285715D01*
X144511905Y-93285715D01*
X144607143Y-93238096D01*
X144654762Y-93190477D01*
X144702381Y-93095239D01*
X144702381Y-92904762D01*
X144654762Y-92809524D01*
X144178571Y-94047620D02*
X144178571Y-93714286D01*
X144702381Y-93714286D02*
X143702381Y-93714286D01*
X143702381Y-94190477D01*
X147857143Y-91857143D02*
X147904762Y-91809524D01*
X147952381Y-91666667D01*
X147952381Y-91571429D01*
X147904762Y-91428571D01*
X147809524Y-91333333D01*
X147714286Y-91285714D01*
X147523810Y-91238095D01*
X147380952Y-91238095D01*
X147190476Y-91285714D01*
X147095238Y-91333333D01*
X147000000Y-91428571D01*
X146952381Y-91571429D01*
X146952381Y-91666667D01*
X147000000Y-91809524D01*
X147047619Y-91857143D01*
X147047619Y-92238095D02*
X147000000Y-92285714D01*
X146952381Y-92380952D01*
X146952381Y-92619048D01*
X147000000Y-92714286D01*
X147047619Y-92761905D01*
X147142857Y-92809524D01*
X147238095Y-92809524D01*
X147380952Y-92761905D01*
X147952381Y-92190476D01*
X147952381Y-92809524D01*
X147047619Y-93190476D02*
X147000000Y-93238095D01*
X146952381Y-93333333D01*
X146952381Y-93571429D01*
X147000000Y-93666667D01*
X147047619Y-93714286D01*
X147142857Y-93761905D01*
X147238095Y-93761905D01*
X147380952Y-93714286D01*
X147952381Y-93142857D01*
X147952381Y-93761905D01*
X117202381Y-97928572D02*
X117202381Y-97357143D01*
X117202381Y-97642857D02*
X116202381Y-97642857D01*
X116345238Y-97547619D01*
X116440476Y-97452381D01*
X116488095Y-97357143D01*
X116202381Y-98547619D02*
X116202381Y-98642858D01*
X116250000Y-98738096D01*
X116297619Y-98785715D01*
X116392857Y-98833334D01*
X116583333Y-98880953D01*
X116821429Y-98880953D01*
X117011905Y-98833334D01*
X117107143Y-98785715D01*
X117154762Y-98738096D01*
X117202381Y-98642858D01*
X117202381Y-98547619D01*
X117154762Y-98452381D01*
X117107143Y-98404762D01*
X117011905Y-98357143D01*
X116821429Y-98309524D01*
X116583333Y-98309524D01*
X116392857Y-98357143D01*
X116297619Y-98404762D01*
X116250000Y-98452381D01*
X116202381Y-98547619D01*
X116535714Y-99309524D02*
X117535714Y-99309524D01*
X116583333Y-99309524D02*
X116535714Y-99404762D01*
X116535714Y-99595239D01*
X116583333Y-99690477D01*
X116630952Y-99738096D01*
X116726190Y-99785715D01*
X117011905Y-99785715D01*
X117107143Y-99738096D01*
X117154762Y-99690477D01*
X117202381Y-99595239D01*
X117202381Y-99404762D01*
X117154762Y-99309524D01*
X116678571Y-100547620D02*
X116678571Y-100214286D01*
X117202381Y-100214286D02*
X116202381Y-100214286D01*
X116202381Y-100690477D01*
X120357143Y-98357143D02*
X120404762Y-98309524D01*
X120452381Y-98166667D01*
X120452381Y-98071429D01*
X120404762Y-97928571D01*
X120309524Y-97833333D01*
X120214286Y-97785714D01*
X120023810Y-97738095D01*
X119880952Y-97738095D01*
X119690476Y-97785714D01*
X119595238Y-97833333D01*
X119500000Y-97928571D01*
X119452381Y-98071429D01*
X119452381Y-98166667D01*
X119500000Y-98309524D01*
X119547619Y-98357143D01*
X119547619Y-98738095D02*
X119500000Y-98785714D01*
X119452381Y-98880952D01*
X119452381Y-99119048D01*
X119500000Y-99214286D01*
X119547619Y-99261905D01*
X119642857Y-99309524D01*
X119738095Y-99309524D01*
X119880952Y-99261905D01*
X120452381Y-98690476D01*
X120452381Y-99309524D01*
X119452381Y-99642857D02*
X119452381Y-100261905D01*
X119833333Y-99928571D01*
X119833333Y-100071429D01*
X119880952Y-100166667D01*
X119928571Y-100214286D01*
X120023810Y-100261905D01*
X120261905Y-100261905D01*
X120357143Y-100214286D01*
X120404762Y-100166667D01*
X120452381Y-100071429D01*
X120452381Y-99785714D01*
X120404762Y-99690476D01*
X120357143Y-99642857D01*
X127571428Y-107202381D02*
X128142857Y-107202381D01*
X127857143Y-107202381D02*
X127857143Y-106202381D01*
X127952381Y-106345238D01*
X128047619Y-106440476D01*
X128142857Y-106488095D01*
X126952381Y-106202381D02*
X126857142Y-106202381D01*
X126761904Y-106250000D01*
X126714285Y-106297619D01*
X126666666Y-106392857D01*
X126619047Y-106583333D01*
X126619047Y-106821429D01*
X126666666Y-107011905D01*
X126714285Y-107107143D01*
X126761904Y-107154762D01*
X126857142Y-107202381D01*
X126952381Y-107202381D01*
X127047619Y-107154762D01*
X127095238Y-107107143D01*
X127142857Y-107011905D01*
X127190476Y-106821429D01*
X127190476Y-106583333D01*
X127142857Y-106392857D01*
X127095238Y-106297619D01*
X127047619Y-106250000D01*
X126952381Y-106202381D01*
X126190476Y-106535714D02*
X126190476Y-107535714D01*
X126190476Y-106583333D02*
X126095238Y-106535714D01*
X125904761Y-106535714D01*
X125809523Y-106583333D01*
X125761904Y-106630952D01*
X125714285Y-106726190D01*
X125714285Y-107011905D01*
X125761904Y-107107143D01*
X125809523Y-107154762D01*
X125904761Y-107202381D01*
X126095238Y-107202381D01*
X126190476Y-107154762D01*
X124952380Y-106678571D02*
X125285714Y-106678571D01*
X125285714Y-107202381D02*
X125285714Y-106202381D01*
X124809523Y-106202381D01*
X127142857Y-110357143D02*
X127190476Y-110404762D01*
X127333333Y-110452381D01*
X127428571Y-110452381D01*
X127571429Y-110404762D01*
X127666667Y-110309524D01*
X127714286Y-110214286D01*
X127761905Y-110023810D01*
X127761905Y-109880952D01*
X127714286Y-109690476D01*
X127666667Y-109595238D01*
X127571429Y-109500000D01*
X127428571Y-109452381D01*
X127333333Y-109452381D01*
X127190476Y-109500000D01*
X127142857Y-109547619D01*
X126761905Y-109547619D02*
X126714286Y-109500000D01*
X126619048Y-109452381D01*
X126380952Y-109452381D01*
X126285714Y-109500000D01*
X126238095Y-109547619D01*
X126190476Y-109642857D01*
X126190476Y-109738095D01*
X126238095Y-109880952D01*
X126809524Y-110452381D01*
X126190476Y-110452381D01*
X125333333Y-109785714D02*
X125333333Y-110452381D01*
X125571429Y-109404762D02*
X125809524Y-110119048D01*
X125190476Y-110119048D01*
X146571428Y-120702381D02*
X147142857Y-120702381D01*
X146857143Y-120702381D02*
X146857143Y-119702381D01*
X146952381Y-119845238D01*
X147047619Y-119940476D01*
X147142857Y-119988095D01*
X145714285Y-119702381D02*
X145904762Y-119702381D01*
X146000000Y-119750000D01*
X146047619Y-119797619D01*
X146142857Y-119940476D01*
X146190476Y-120130952D01*
X146190476Y-120511905D01*
X146142857Y-120607143D01*
X146095238Y-120654762D01*
X146000000Y-120702381D01*
X145809523Y-120702381D01*
X145714285Y-120654762D01*
X145666666Y-120607143D01*
X145619047Y-120511905D01*
X145619047Y-120273810D01*
X145666666Y-120178571D01*
X145714285Y-120130952D01*
X145809523Y-120083333D01*
X146000000Y-120083333D01*
X146095238Y-120130952D01*
X146142857Y-120178571D01*
X146190476Y-120273810D01*
X145190476Y-120035714D02*
X145190476Y-121035714D01*
X145190476Y-120083333D02*
X145095238Y-120035714D01*
X144904761Y-120035714D01*
X144809523Y-120083333D01*
X144761904Y-120130952D01*
X144714285Y-120226190D01*
X144714285Y-120511905D01*
X144761904Y-120607143D01*
X144809523Y-120654762D01*
X144904761Y-120702381D01*
X145095238Y-120702381D01*
X145190476Y-120654762D01*
X143952380Y-120178571D02*
X144285714Y-120178571D01*
X144285714Y-120702381D02*
X144285714Y-119702381D01*
X143809523Y-119702381D01*
X146142857Y-123857143D02*
X146190476Y-123904762D01*
X146333333Y-123952381D01*
X146428571Y-123952381D01*
X146571429Y-123904762D01*
X146666667Y-123809524D01*
X146714286Y-123714286D01*
X146761905Y-123523810D01*
X146761905Y-123380952D01*
X146714286Y-123190476D01*
X146666667Y-123095238D01*
X146571429Y-123000000D01*
X146428571Y-122952381D01*
X146333333Y-122952381D01*
X146190476Y-123000000D01*
X146142857Y-123047619D01*
X145761905Y-123047619D02*
X145714286Y-123000000D01*
X145619048Y-122952381D01*
X145380952Y-122952381D01*
X145285714Y-123000000D01*
X145238095Y-123047619D01*
X145190476Y-123142857D01*
X145190476Y-123238095D01*
X145238095Y-123380952D01*
X145809524Y-123952381D01*
X145190476Y-123952381D01*
X144285714Y-122952381D02*
X144761905Y-122952381D01*
X144809524Y-123428571D01*
X144761905Y-123380952D01*
X144666667Y-123333333D01*
X144428571Y-123333333D01*
X144333333Y-123380952D01*
X144285714Y-123428571D01*
X144238095Y-123523810D01*
X144238095Y-123761905D01*
X144285714Y-123857143D01*
X144333333Y-123904762D01*
X144428571Y-123952381D01*
X144666667Y-123952381D01*
X144761905Y-123904762D01*
X144809524Y-123857143D01*
X146571428Y-113202381D02*
X147142857Y-113202381D01*
X146857143Y-113202381D02*
X146857143Y-112202381D01*
X146952381Y-112345238D01*
X147047619Y-112440476D01*
X147142857Y-112488095D01*
X145714285Y-112202381D02*
X145904762Y-112202381D01*
X146000000Y-112250000D01*
X146047619Y-112297619D01*
X146142857Y-112440476D01*
X146190476Y-112630952D01*
X146190476Y-113011905D01*
X146142857Y-113107143D01*
X146095238Y-113154762D01*
X146000000Y-113202381D01*
X145809523Y-113202381D01*
X145714285Y-113154762D01*
X145666666Y-113107143D01*
X145619047Y-113011905D01*
X145619047Y-112773810D01*
X145666666Y-112678571D01*
X145714285Y-112630952D01*
X145809523Y-112583333D01*
X146000000Y-112583333D01*
X146095238Y-112630952D01*
X146142857Y-112678571D01*
X146190476Y-112773810D01*
X145190476Y-112535714D02*
X145190476Y-113535714D01*
X145190476Y-112583333D02*
X145095238Y-112535714D01*
X144904761Y-112535714D01*
X144809523Y-112583333D01*
X144761904Y-112630952D01*
X144714285Y-112726190D01*
X144714285Y-113011905D01*
X144761904Y-113107143D01*
X144809523Y-113154762D01*
X144904761Y-113202381D01*
X145095238Y-113202381D01*
X145190476Y-113154762D01*
X143952380Y-112678571D02*
X144285714Y-112678571D01*
X144285714Y-113202381D02*
X144285714Y-112202381D01*
X143809523Y-112202381D01*
X146142857Y-109857143D02*
X146190476Y-109904762D01*
X146333333Y-109952381D01*
X146428571Y-109952381D01*
X146571429Y-109904762D01*
X146666667Y-109809524D01*
X146714286Y-109714286D01*
X146761905Y-109523810D01*
X146761905Y-109380952D01*
X146714286Y-109190476D01*
X146666667Y-109095238D01*
X146571429Y-109000000D01*
X146428571Y-108952381D01*
X146333333Y-108952381D01*
X146190476Y-109000000D01*
X146142857Y-109047619D01*
X145761905Y-109047619D02*
X145714286Y-109000000D01*
X145619048Y-108952381D01*
X145380952Y-108952381D01*
X145285714Y-109000000D01*
X145238095Y-109047619D01*
X145190476Y-109142857D01*
X145190476Y-109238095D01*
X145238095Y-109380952D01*
X145809524Y-109952381D01*
X145190476Y-109952381D01*
X144333333Y-108952381D02*
X144523810Y-108952381D01*
X144619048Y-109000000D01*
X144666667Y-109047619D01*
X144761905Y-109190476D01*
X144809524Y-109380952D01*
X144809524Y-109761905D01*
X144761905Y-109857143D01*
X144714286Y-109904762D01*
X144619048Y-109952381D01*
X144428571Y-109952381D01*
X144333333Y-109904762D01*
X144285714Y-109857143D01*
X144238095Y-109761905D01*
X144238095Y-109523810D01*
X144285714Y-109428571D01*
X144333333Y-109380952D01*
X144428571Y-109333333D01*
X144619048Y-109333333D01*
X144714286Y-109380952D01*
X144761905Y-109428571D01*
X144809524Y-109523810D01*
X135202381Y-119428572D02*
X135202381Y-118857143D01*
X135202381Y-119142857D02*
X134202381Y-119142857D01*
X134345238Y-119047619D01*
X134440476Y-118952381D01*
X134488095Y-118857143D01*
X134202381Y-120047619D02*
X134202381Y-120142858D01*
X134250000Y-120238096D01*
X134297619Y-120285715D01*
X134392857Y-120333334D01*
X134583333Y-120380953D01*
X134821429Y-120380953D01*
X135011905Y-120333334D01*
X135107143Y-120285715D01*
X135154762Y-120238096D01*
X135202381Y-120142858D01*
X135202381Y-120047619D01*
X135154762Y-119952381D01*
X135107143Y-119904762D01*
X135011905Y-119857143D01*
X134821429Y-119809524D01*
X134583333Y-119809524D01*
X134392857Y-119857143D01*
X134297619Y-119904762D01*
X134250000Y-119952381D01*
X134202381Y-120047619D01*
X134535714Y-120809524D02*
X135535714Y-120809524D01*
X134583333Y-120809524D02*
X134535714Y-120904762D01*
X134535714Y-121095239D01*
X134583333Y-121190477D01*
X134630952Y-121238096D01*
X134726190Y-121285715D01*
X135011905Y-121285715D01*
X135107143Y-121238096D01*
X135154762Y-121190477D01*
X135202381Y-121095239D01*
X135202381Y-120904762D01*
X135154762Y-120809524D01*
X134678571Y-122047620D02*
X134678571Y-121714286D01*
X135202381Y-121714286D02*
X134202381Y-121714286D01*
X134202381Y-122190477D01*
X138357143Y-119857143D02*
X138404762Y-119809524D01*
X138452381Y-119666667D01*
X138452381Y-119571429D01*
X138404762Y-119428571D01*
X138309524Y-119333333D01*
X138214286Y-119285714D01*
X138023810Y-119238095D01*
X137880952Y-119238095D01*
X137690476Y-119285714D01*
X137595238Y-119333333D01*
X137500000Y-119428571D01*
X137452381Y-119571429D01*
X137452381Y-119666667D01*
X137500000Y-119809524D01*
X137547619Y-119857143D01*
X137547619Y-120238095D02*
X137500000Y-120285714D01*
X137452381Y-120380952D01*
X137452381Y-120619048D01*
X137500000Y-120714286D01*
X137547619Y-120761905D01*
X137642857Y-120809524D01*
X137738095Y-120809524D01*
X137880952Y-120761905D01*
X138452381Y-120190476D01*
X138452381Y-120809524D01*
X137880952Y-121380952D02*
X137833333Y-121285714D01*
X137785714Y-121238095D01*
X137690476Y-121190476D01*
X137642857Y-121190476D01*
X137547619Y-121238095D01*
X137500000Y-121285714D01*
X137452381Y-121380952D01*
X137452381Y-121571429D01*
X137500000Y-121666667D01*
X137547619Y-121714286D01*
X137642857Y-121761905D01*
X137690476Y-121761905D01*
X137785714Y-121714286D01*
X137833333Y-121666667D01*
X137880952Y-121571429D01*
X137880952Y-121380952D01*
X137928571Y-121285714D01*
X137976190Y-121238095D01*
X138071429Y-121190476D01*
X138261905Y-121190476D01*
X138357143Y-121238095D01*
X138404762Y-121285714D01*
X138452381Y-121380952D01*
X138452381Y-121571429D01*
X138404762Y-121666667D01*
X138357143Y-121714286D01*
X138261905Y-121761905D01*
X138071429Y-121761905D01*
X137976190Y-121714286D01*
X137928571Y-121666667D01*
X137880952Y-121571429D01*
X135202381Y-112928572D02*
X135202381Y-112357143D01*
X135202381Y-112642857D02*
X134202381Y-112642857D01*
X134345238Y-112547619D01*
X134440476Y-112452381D01*
X134488095Y-112357143D01*
X134202381Y-113547619D02*
X134202381Y-113642858D01*
X134250000Y-113738096D01*
X134297619Y-113785715D01*
X134392857Y-113833334D01*
X134583333Y-113880953D01*
X134821429Y-113880953D01*
X135011905Y-113833334D01*
X135107143Y-113785715D01*
X135154762Y-113738096D01*
X135202381Y-113642858D01*
X135202381Y-113547619D01*
X135154762Y-113452381D01*
X135107143Y-113404762D01*
X135011905Y-113357143D01*
X134821429Y-113309524D01*
X134583333Y-113309524D01*
X134392857Y-113357143D01*
X134297619Y-113404762D01*
X134250000Y-113452381D01*
X134202381Y-113547619D01*
X134535714Y-114309524D02*
X135535714Y-114309524D01*
X134583333Y-114309524D02*
X134535714Y-114404762D01*
X134535714Y-114595239D01*
X134583333Y-114690477D01*
X134630952Y-114738096D01*
X134726190Y-114785715D01*
X135011905Y-114785715D01*
X135107143Y-114738096D01*
X135154762Y-114690477D01*
X135202381Y-114595239D01*
X135202381Y-114404762D01*
X135154762Y-114309524D01*
X134678571Y-115547620D02*
X134678571Y-115214286D01*
X135202381Y-115214286D02*
X134202381Y-115214286D01*
X134202381Y-115690477D01*
X138357143Y-113357143D02*
X138404762Y-113309524D01*
X138452381Y-113166667D01*
X138452381Y-113071429D01*
X138404762Y-112928571D01*
X138309524Y-112833333D01*
X138214286Y-112785714D01*
X138023810Y-112738095D01*
X137880952Y-112738095D01*
X137690476Y-112785714D01*
X137595238Y-112833333D01*
X137500000Y-112928571D01*
X137452381Y-113071429D01*
X137452381Y-113166667D01*
X137500000Y-113309524D01*
X137547619Y-113357143D01*
X137547619Y-113738095D02*
X137500000Y-113785714D01*
X137452381Y-113880952D01*
X137452381Y-114119048D01*
X137500000Y-114214286D01*
X137547619Y-114261905D01*
X137642857Y-114309524D01*
X137738095Y-114309524D01*
X137880952Y-114261905D01*
X138452381Y-113690476D01*
X138452381Y-114309524D01*
X138452381Y-114785714D02*
X138452381Y-114976190D01*
X138404762Y-115071429D01*
X138357143Y-115119048D01*
X138214286Y-115214286D01*
X138023810Y-115261905D01*
X137642857Y-115261905D01*
X137547619Y-115214286D01*
X137500000Y-115166667D01*
X137452381Y-115071429D01*
X137452381Y-114880952D01*
X137500000Y-114785714D01*
X137547619Y-114738095D01*
X137642857Y-114690476D01*
X137880952Y-114690476D01*
X137976190Y-114738095D01*
X138023810Y-114785714D01*
X138071429Y-114880952D01*
X138071429Y-115071429D01*
X138023810Y-115166667D01*
X137976190Y-115214286D01*
X137880952Y-115261905D01*
X154004762Y-85404761D02*
X154052381Y-85547618D01*
X154052381Y-85785714D01*
X154004762Y-85880952D01*
X153957143Y-85928571D01*
X153861905Y-85976190D01*
X153766667Y-85976190D01*
X153671429Y-85928571D01*
X153623810Y-85880952D01*
X153576190Y-85785714D01*
X153528571Y-85595237D01*
X153480952Y-85499999D01*
X153433333Y-85452380D01*
X153338095Y-85404761D01*
X153242857Y-85404761D01*
X153147619Y-85452380D01*
X153100000Y-85499999D01*
X153052381Y-85595237D01*
X153052381Y-85833333D01*
X153100000Y-85976190D01*
X154004762Y-86357142D02*
X154052381Y-86499999D01*
X154052381Y-86738095D01*
X154004762Y-86833333D01*
X153957143Y-86880952D01*
X153861905Y-86928571D01*
X153766667Y-86928571D01*
X153671429Y-86880952D01*
X153623810Y-86833333D01*
X153576190Y-86738095D01*
X153528571Y-86547618D01*
X153480952Y-86452380D01*
X153433333Y-86404761D01*
X153338095Y-86357142D01*
X153242857Y-86357142D01*
X153147619Y-86404761D01*
X153100000Y-86452380D01*
X153052381Y-86547618D01*
X153052381Y-86785714D01*
X153100000Y-86928571D01*
X153147619Y-87309523D02*
X153100000Y-87357142D01*
X153052381Y-87452380D01*
X153052381Y-87690476D01*
X153100000Y-87785714D01*
X153147619Y-87833333D01*
X153242857Y-87880952D01*
X153338095Y-87880952D01*
X153480952Y-87833333D01*
X154052381Y-87261904D01*
X154052381Y-87880952D01*
X153147619Y-88261904D02*
X153100000Y-88309523D01*
X153052381Y-88404761D01*
X153052381Y-88642857D01*
X153100000Y-88738095D01*
X153147619Y-88785714D01*
X153242857Y-88833333D01*
X153338095Y-88833333D01*
X153480952Y-88785714D01*
X154052381Y-88214285D01*
X154052381Y-88833333D01*
X153766667Y-89214285D02*
X153766667Y-89690476D01*
X154052381Y-89119047D02*
X153052381Y-89452380D01*
X154052381Y-89785714D01*
X153671429Y-90119047D02*
X153671429Y-90880952D01*
X154004762Y-91309523D02*
X154052381Y-91452380D01*
X154052381Y-91690476D01*
X154004762Y-91785714D01*
X153957143Y-91833333D01*
X153861905Y-91880952D01*
X153766667Y-91880952D01*
X153671429Y-91833333D01*
X153623810Y-91785714D01*
X153576190Y-91690476D01*
X153528571Y-91499999D01*
X153480952Y-91404761D01*
X153433333Y-91357142D01*
X153338095Y-91309523D01*
X153242857Y-91309523D01*
X153147619Y-91357142D01*
X153100000Y-91404761D01*
X153052381Y-91499999D01*
X153052381Y-91738095D01*
X153100000Y-91880952D01*
X154004762Y-92261904D02*
X154052381Y-92404761D01*
X154052381Y-92642857D01*
X154004762Y-92738095D01*
X153957143Y-92785714D01*
X153861905Y-92833333D01*
X153766667Y-92833333D01*
X153671429Y-92785714D01*
X153623810Y-92738095D01*
X153576190Y-92642857D01*
X153528571Y-92452380D01*
X153480952Y-92357142D01*
X153433333Y-92309523D01*
X153338095Y-92261904D01*
X153242857Y-92261904D01*
X153147619Y-92309523D01*
X153100000Y-92357142D01*
X153052381Y-92452380D01*
X153052381Y-92690476D01*
X153100000Y-92833333D01*
X153147619Y-93214285D02*
X153100000Y-93261904D01*
X153052381Y-93357142D01*
X153052381Y-93595238D01*
X153100000Y-93690476D01*
X153147619Y-93738095D01*
X153242857Y-93785714D01*
X153338095Y-93785714D01*
X153480952Y-93738095D01*
X154052381Y-93166666D01*
X154052381Y-93785714D01*
X154052381Y-94738095D02*
X154052381Y-94166666D01*
X154052381Y-94452380D02*
X153052381Y-94452380D01*
X153195238Y-94357142D01*
X153290476Y-94261904D01*
X153338095Y-94166666D01*
X153052381Y-95357142D02*
X153052381Y-95452381D01*
X153100000Y-95547619D01*
X153147619Y-95595238D01*
X153242857Y-95642857D01*
X153433333Y-95690476D01*
X153671429Y-95690476D01*
X153861905Y-95642857D01*
X153957143Y-95595238D01*
X154004762Y-95547619D01*
X154052381Y-95452381D01*
X154052381Y-95357142D01*
X154004762Y-95261904D01*
X153957143Y-95214285D01*
X153861905Y-95166666D01*
X153671429Y-95119047D01*
X153433333Y-95119047D01*
X153242857Y-95166666D01*
X153147619Y-95214285D01*
X153100000Y-95261904D01*
X153052381Y-95357142D01*
X153766667Y-96071428D02*
X153766667Y-96547619D01*
X154052381Y-95976190D02*
X153052381Y-96309523D01*
X154052381Y-96642857D01*
X153671429Y-96976190D02*
X153671429Y-97738095D01*
X153385714Y-98642857D02*
X154195238Y-98642857D01*
X154290476Y-98595238D01*
X154338095Y-98547619D01*
X154385714Y-98452380D01*
X154385714Y-98309523D01*
X154338095Y-98214285D01*
X154004762Y-98642857D02*
X154052381Y-98547619D01*
X154052381Y-98357142D01*
X154004762Y-98261904D01*
X153957143Y-98214285D01*
X153861905Y-98166666D01*
X153576190Y-98166666D01*
X153480952Y-98214285D01*
X153433333Y-98261904D01*
X153385714Y-98357142D01*
X153385714Y-98547619D01*
X153433333Y-98642857D01*
X154052381Y-99547619D02*
X153528571Y-99547619D01*
X153433333Y-99500000D01*
X153385714Y-99404762D01*
X153385714Y-99214285D01*
X153433333Y-99119047D01*
X154004762Y-99547619D02*
X154052381Y-99452381D01*
X154052381Y-99214285D01*
X154004762Y-99119047D01*
X153909524Y-99071428D01*
X153814286Y-99071428D01*
X153719048Y-99119047D01*
X153671429Y-99214285D01*
X153671429Y-99452381D01*
X153623810Y-99547619D01*
X154052381Y-100166666D02*
X154004762Y-100071428D01*
X153909524Y-100023809D01*
X153052381Y-100023809D01*
X154052381Y-100976191D02*
X153528571Y-100976191D01*
X153433333Y-100928572D01*
X153385714Y-100833334D01*
X153385714Y-100642857D01*
X153433333Y-100547619D01*
X154004762Y-100976191D02*
X154052381Y-100880953D01*
X154052381Y-100642857D01*
X154004762Y-100547619D01*
X153909524Y-100500000D01*
X153814286Y-100500000D01*
X153719048Y-100547619D01*
X153671429Y-100642857D01*
X153671429Y-100880953D01*
X153623810Y-100976191D01*
X154052381Y-101357143D02*
X153385714Y-101880953D01*
X153385714Y-101357143D02*
X154052381Y-101880953D01*
X153385714Y-102166667D02*
X154052381Y-102404762D01*
X153385714Y-102642858D02*
X154052381Y-102404762D01*
X154290476Y-102309524D01*
X154338095Y-102261905D01*
X154385714Y-102166667D01*
X148952381Y-93261905D02*
X147952381Y-93261905D01*
X147952381Y-93500000D01*
X148000000Y-93642858D01*
X148095238Y-93738096D01*
X148190476Y-93785715D01*
X148380952Y-93833334D01*
X148523810Y-93833334D01*
X148714286Y-93785715D01*
X148809524Y-93738096D01*
X148904762Y-93642858D01*
X148952381Y-93500000D01*
X148952381Y-93261905D01*
X147952381Y-94166667D02*
X147952381Y-94785715D01*
X148333333Y-94452381D01*
X148333333Y-94595239D01*
X148380952Y-94690477D01*
X148428571Y-94738096D01*
X148523810Y-94785715D01*
X148761905Y-94785715D01*
X148857143Y-94738096D01*
X148904762Y-94690477D01*
X148952381Y-94595239D01*
X148952381Y-94309524D01*
X148904762Y-94214286D01*
X148857143Y-94166667D01*
X157642857Y-90052381D02*
X158214286Y-90052381D01*
X157928572Y-90052381D02*
X157928572Y-89052381D01*
X158023810Y-89195238D01*
X158119048Y-89290476D01*
X158214286Y-89338095D01*
X157214286Y-90052381D02*
X157214286Y-89052381D01*
X156642857Y-90052381D01*
X156642857Y-89052381D01*
X155690476Y-89052381D02*
X156166667Y-89052381D01*
X156214286Y-89528571D01*
X156166667Y-89480952D01*
X156071429Y-89433333D01*
X155833333Y-89433333D01*
X155738095Y-89480952D01*
X155690476Y-89528571D01*
X155642857Y-89623810D01*
X155642857Y-89861905D01*
X155690476Y-89957143D01*
X155738095Y-90004762D01*
X155833333Y-90052381D01*
X156071429Y-90052381D01*
X156166667Y-90004762D01*
X156214286Y-89957143D01*
X155071429Y-89480952D02*
X155166667Y-89433333D01*
X155214286Y-89385714D01*
X155261905Y-89290476D01*
X155261905Y-89242857D01*
X155214286Y-89147619D01*
X155166667Y-89100000D01*
X155071429Y-89052381D01*
X154880952Y-89052381D01*
X154785714Y-89100000D01*
X154738095Y-89147619D01*
X154690476Y-89242857D01*
X154690476Y-89290476D01*
X154738095Y-89385714D01*
X154785714Y-89433333D01*
X154880952Y-89480952D01*
X155071429Y-89480952D01*
X155166667Y-89528571D01*
X155214286Y-89576190D01*
X155261905Y-89671429D01*
X155261905Y-89861905D01*
X155214286Y-89957143D01*
X155166667Y-90004762D01*
X155071429Y-90052381D01*
X154880952Y-90052381D01*
X154785714Y-90004762D01*
X154738095Y-89957143D01*
X154690476Y-89861905D01*
X154690476Y-89671429D01*
X154738095Y-89576190D01*
X154785714Y-89528571D01*
X154880952Y-89480952D01*
X153738095Y-90052381D02*
X154309524Y-90052381D01*
X154023810Y-90052381D02*
X154023810Y-89052381D01*
X154119048Y-89195238D01*
X154214286Y-89290476D01*
X154309524Y-89338095D01*
X153261905Y-90052381D02*
X153071429Y-90052381D01*
X152976190Y-90004762D01*
X152928571Y-89957143D01*
X152833333Y-89814286D01*
X152785714Y-89623810D01*
X152785714Y-89242857D01*
X152833333Y-89147619D01*
X152880952Y-89100000D01*
X152976190Y-89052381D01*
X153166667Y-89052381D01*
X153261905Y-89100000D01*
X153309524Y-89147619D01*
X153357143Y-89242857D01*
X153357143Y-89480952D01*
X153309524Y-89576190D01*
X153261905Y-89623810D01*
X153166667Y-89671429D01*
X152976190Y-89671429D01*
X152880952Y-89623810D01*
X152833333Y-89576190D01*
X152785714Y-89480952D01*
X156238095Y-85952381D02*
X156238095Y-84952381D01*
X156000000Y-84952381D01*
X155857142Y-85000000D01*
X155761904Y-85095238D01*
X155714285Y-85190476D01*
X155666666Y-85380952D01*
X155666666Y-85523810D01*
X155714285Y-85714286D01*
X155761904Y-85809524D01*
X155857142Y-85904762D01*
X156000000Y-85952381D01*
X156238095Y-85952381D01*
X154761904Y-84952381D02*
X155238095Y-84952381D01*
X155285714Y-85428571D01*
X155238095Y-85380952D01*
X155142857Y-85333333D01*
X154904761Y-85333333D01*
X154809523Y-85380952D01*
X154761904Y-85428571D01*
X154714285Y-85523810D01*
X154714285Y-85761905D01*
X154761904Y-85857143D01*
X154809523Y-85904762D01*
X154904761Y-85952381D01*
X155142857Y-85952381D01*
X155238095Y-85904762D01*
X155285714Y-85857143D01*
X170552381Y-119857143D02*
X170552381Y-119285714D01*
X170552381Y-119571428D02*
X169552381Y-119571428D01*
X169695238Y-119476190D01*
X169790476Y-119380952D01*
X169838095Y-119285714D01*
X170552381Y-120285714D02*
X169552381Y-120285714D01*
X170552381Y-120857143D01*
X169552381Y-120857143D01*
X169552381Y-121809524D02*
X169552381Y-121333333D01*
X170028571Y-121285714D01*
X169980952Y-121333333D01*
X169933333Y-121428571D01*
X169933333Y-121666667D01*
X169980952Y-121761905D01*
X170028571Y-121809524D01*
X170123810Y-121857143D01*
X170361905Y-121857143D01*
X170457143Y-121809524D01*
X170504762Y-121761905D01*
X170552381Y-121666667D01*
X170552381Y-121428571D01*
X170504762Y-121333333D01*
X170457143Y-121285714D01*
X169980952Y-122428571D02*
X169933333Y-122333333D01*
X169885714Y-122285714D01*
X169790476Y-122238095D01*
X169742857Y-122238095D01*
X169647619Y-122285714D01*
X169600000Y-122333333D01*
X169552381Y-122428571D01*
X169552381Y-122619048D01*
X169600000Y-122714286D01*
X169647619Y-122761905D01*
X169742857Y-122809524D01*
X169790476Y-122809524D01*
X169885714Y-122761905D01*
X169933333Y-122714286D01*
X169980952Y-122619048D01*
X169980952Y-122428571D01*
X170028571Y-122333333D01*
X170076190Y-122285714D01*
X170171429Y-122238095D01*
X170361905Y-122238095D01*
X170457143Y-122285714D01*
X170504762Y-122333333D01*
X170552381Y-122428571D01*
X170552381Y-122619048D01*
X170504762Y-122714286D01*
X170457143Y-122761905D01*
X170361905Y-122809524D01*
X170171429Y-122809524D01*
X170076190Y-122761905D01*
X170028571Y-122714286D01*
X169980952Y-122619048D01*
X170552381Y-123761905D02*
X170552381Y-123190476D01*
X170552381Y-123476190D02*
X169552381Y-123476190D01*
X169695238Y-123380952D01*
X169790476Y-123285714D01*
X169838095Y-123190476D01*
X170552381Y-124238095D02*
X170552381Y-124428571D01*
X170504762Y-124523810D01*
X170457143Y-124571429D01*
X170314286Y-124666667D01*
X170123810Y-124714286D01*
X169742857Y-124714286D01*
X169647619Y-124666667D01*
X169600000Y-124619048D01*
X169552381Y-124523810D01*
X169552381Y-124333333D01*
X169600000Y-124238095D01*
X169647619Y-124190476D01*
X169742857Y-124142857D01*
X169980952Y-124142857D01*
X170076190Y-124190476D01*
X170123810Y-124238095D01*
X170171429Y-124333333D01*
X170171429Y-124523810D01*
X170123810Y-124619048D01*
X170076190Y-124666667D01*
X169980952Y-124714286D01*
X166452381Y-121261905D02*
X165452381Y-121261905D01*
X165452381Y-121500000D01*
X165500000Y-121642858D01*
X165595238Y-121738096D01*
X165690476Y-121785715D01*
X165880952Y-121833334D01*
X166023810Y-121833334D01*
X166214286Y-121785715D01*
X166309524Y-121738096D01*
X166404762Y-121642858D01*
X166452381Y-121500000D01*
X166452381Y-121261905D01*
X165452381Y-122690477D02*
X165452381Y-122500000D01*
X165500000Y-122404762D01*
X165547619Y-122357143D01*
X165690476Y-122261905D01*
X165880952Y-122214286D01*
X166261905Y-122214286D01*
X166357143Y-122261905D01*
X166404762Y-122309524D01*
X166452381Y-122404762D01*
X166452381Y-122595239D01*
X166404762Y-122690477D01*
X166357143Y-122738096D01*
X166261905Y-122785715D01*
X166023810Y-122785715D01*
X165928571Y-122738096D01*
X165880952Y-122690477D01*
X165833333Y-122595239D01*
X165833333Y-122404762D01*
X165880952Y-122309524D01*
X165928571Y-122261905D01*
X166023810Y-122214286D01*
X148452381Y-101880952D02*
X147452381Y-101880952D01*
X147452381Y-102261905D01*
X147500000Y-102357143D01*
X147547619Y-102404762D01*
X147642857Y-102452381D01*
X147785714Y-102452381D01*
X147880952Y-102404762D01*
X147928571Y-102357143D01*
X147976190Y-102261905D01*
X147976190Y-101880952D01*
X148452381Y-102880952D02*
X147452381Y-102880952D01*
X148166667Y-103214286D01*
X147452381Y-103547619D01*
X148452381Y-103547619D01*
X148452381Y-104500000D02*
X148452381Y-104023809D01*
X147452381Y-104023809D01*
X148452381Y-105309524D02*
X148452381Y-104833333D01*
X147452381Y-104833333D01*
X147785714Y-106071429D02*
X148452381Y-106071429D01*
X147404762Y-105833333D02*
X148119048Y-105595238D01*
X148119048Y-106214286D01*
X148452381Y-107119048D02*
X148452381Y-106547619D01*
X148452381Y-106833333D02*
X147452381Y-106833333D01*
X147595238Y-106738095D01*
X147690476Y-106642857D01*
X147738095Y-106547619D01*
X147785714Y-107976191D02*
X148452381Y-107976191D01*
X147404762Y-107738095D02*
X148119048Y-107500000D01*
X148119048Y-108119048D01*
X147880952Y-108642857D02*
X147833333Y-108547619D01*
X147785714Y-108500000D01*
X147690476Y-108452381D01*
X147642857Y-108452381D01*
X147547619Y-108500000D01*
X147500000Y-108547619D01*
X147452381Y-108642857D01*
X147452381Y-108833334D01*
X147500000Y-108928572D01*
X147547619Y-108976191D01*
X147642857Y-109023810D01*
X147690476Y-109023810D01*
X147785714Y-108976191D01*
X147833333Y-108928572D01*
X147880952Y-108833334D01*
X147880952Y-108642857D01*
X147928571Y-108547619D01*
X147976190Y-108500000D01*
X148071429Y-108452381D01*
X148261905Y-108452381D01*
X148357143Y-108500000D01*
X148404762Y-108547619D01*
X148452381Y-108642857D01*
X148452381Y-108833334D01*
X148404762Y-108928572D01*
X148357143Y-108976191D01*
X148261905Y-109023810D01*
X148071429Y-109023810D01*
X147976190Y-108976191D01*
X147928571Y-108928572D01*
X147880952Y-108833334D01*
X148452381Y-109928572D02*
X148452381Y-109452381D01*
X147452381Y-109452381D01*
X148357143Y-110261905D02*
X148404762Y-110309524D01*
X148452381Y-110261905D01*
X148404762Y-110214286D01*
X148357143Y-110261905D01*
X148452381Y-110261905D01*
X148452381Y-111261905D02*
X148452381Y-110690476D01*
X148452381Y-110976190D02*
X147452381Y-110976190D01*
X147595238Y-110880952D01*
X147690476Y-110785714D01*
X147738095Y-110690476D01*
X148452381Y-112214286D02*
X148452381Y-111642857D01*
X148452381Y-111928571D02*
X147452381Y-111928571D01*
X147595238Y-111833333D01*
X147690476Y-111738095D01*
X147738095Y-111642857D01*
X147452381Y-113119048D02*
X147452381Y-112642857D01*
X147928571Y-112595238D01*
X147880952Y-112642857D01*
X147833333Y-112738095D01*
X147833333Y-112976191D01*
X147880952Y-113071429D01*
X147928571Y-113119048D01*
X148023810Y-113166667D01*
X148261905Y-113166667D01*
X148357143Y-113119048D01*
X148404762Y-113071429D01*
X148452381Y-112976191D01*
X148452381Y-112738095D01*
X148404762Y-112642857D01*
X148357143Y-112595238D01*
X145552381Y-106761905D02*
X144552381Y-106761905D01*
X144552381Y-107000000D01*
X144600000Y-107142858D01*
X144695238Y-107238096D01*
X144790476Y-107285715D01*
X144980952Y-107333334D01*
X145123810Y-107333334D01*
X145314286Y-107285715D01*
X145409524Y-107238096D01*
X145504762Y-107142858D01*
X145552381Y-107000000D01*
X145552381Y-106761905D01*
X144552381Y-107666667D02*
X144552381Y-108333334D01*
X145552381Y-107904762D01*
X155119048Y-106452381D02*
X155119048Y-105452381D01*
X154738095Y-105452381D01*
X154642857Y-105500000D01*
X154595238Y-105547619D01*
X154547619Y-105642857D01*
X154547619Y-105785714D01*
X154595238Y-105880952D01*
X154642857Y-105928571D01*
X154738095Y-105976190D01*
X155119048Y-105976190D01*
X154119048Y-106452381D02*
X154119048Y-105452381D01*
X153785714Y-106166667D01*
X153452381Y-105452381D01*
X153452381Y-106452381D01*
X152500000Y-106452381D02*
X152976191Y-106452381D01*
X152976191Y-105452381D01*
X151690476Y-106452381D02*
X152166667Y-106452381D01*
X152166667Y-105452381D01*
X150928571Y-105785714D02*
X150928571Y-106452381D01*
X151166667Y-105404762D02*
X151404762Y-106119048D01*
X150785714Y-106119048D01*
X149880952Y-106452381D02*
X150452381Y-106452381D01*
X150166667Y-106452381D02*
X150166667Y-105452381D01*
X150261905Y-105595238D01*
X150357143Y-105690476D01*
X150452381Y-105738095D01*
X149023809Y-105785714D02*
X149023809Y-106452381D01*
X149261905Y-105404762D02*
X149500000Y-106119048D01*
X148880952Y-106119048D01*
X148357143Y-105880952D02*
X148452381Y-105833333D01*
X148500000Y-105785714D01*
X148547619Y-105690476D01*
X148547619Y-105642857D01*
X148500000Y-105547619D01*
X148452381Y-105500000D01*
X148357143Y-105452381D01*
X148166666Y-105452381D01*
X148071428Y-105500000D01*
X148023809Y-105547619D01*
X147976190Y-105642857D01*
X147976190Y-105690476D01*
X148023809Y-105785714D01*
X148071428Y-105833333D01*
X148166666Y-105880952D01*
X148357143Y-105880952D01*
X148452381Y-105928571D01*
X148500000Y-105976190D01*
X148547619Y-106071429D01*
X148547619Y-106261905D01*
X148500000Y-106357143D01*
X148452381Y-106404762D01*
X148357143Y-106452381D01*
X148166666Y-106452381D01*
X148071428Y-106404762D01*
X148023809Y-106357143D01*
X147976190Y-106261905D01*
X147976190Y-106071429D01*
X148023809Y-105976190D01*
X148071428Y-105928571D01*
X148166666Y-105880952D01*
X147071428Y-106452381D02*
X147547619Y-106452381D01*
X147547619Y-105452381D01*
X146738095Y-106357143D02*
X146690476Y-106404762D01*
X146738095Y-106452381D01*
X146785714Y-106404762D01*
X146738095Y-106357143D01*
X146738095Y-106452381D01*
X145738095Y-106452381D02*
X146309524Y-106452381D01*
X146023810Y-106452381D02*
X146023810Y-105452381D01*
X146119048Y-105595238D01*
X146214286Y-105690476D01*
X146309524Y-105738095D01*
X144785714Y-106452381D02*
X145357143Y-106452381D01*
X145071429Y-106452381D02*
X145071429Y-105452381D01*
X145166667Y-105595238D01*
X145261905Y-105690476D01*
X145357143Y-105738095D01*
X143880952Y-105452381D02*
X144357143Y-105452381D01*
X144404762Y-105928571D01*
X144357143Y-105880952D01*
X144261905Y-105833333D01*
X144023809Y-105833333D01*
X143928571Y-105880952D01*
X143880952Y-105928571D01*
X143833333Y-106023810D01*
X143833333Y-106261905D01*
X143880952Y-106357143D01*
X143928571Y-106404762D01*
X144023809Y-106452381D01*
X144261905Y-106452381D01*
X144357143Y-106404762D01*
X144404762Y-106357143D01*
X150238095Y-109352381D02*
X150238095Y-108352381D01*
X150000000Y-108352381D01*
X149857142Y-108400000D01*
X149761904Y-108495238D01*
X149714285Y-108590476D01*
X149666666Y-108780952D01*
X149666666Y-108923810D01*
X149714285Y-109114286D01*
X149761904Y-109209524D01*
X149857142Y-109304762D01*
X150000000Y-109352381D01*
X150238095Y-109352381D01*
X149095238Y-108780952D02*
X149190476Y-108733333D01*
X149238095Y-108685714D01*
X149285714Y-108590476D01*
X149285714Y-108542857D01*
X149238095Y-108447619D01*
X149190476Y-108400000D01*
X149095238Y-108352381D01*
X148904761Y-108352381D01*
X148809523Y-108400000D01*
X148761904Y-108447619D01*
X148714285Y-108542857D01*
X148714285Y-108590476D01*
X148761904Y-108685714D01*
X148809523Y-108733333D01*
X148904761Y-108780952D01*
X149095238Y-108780952D01*
X149190476Y-108828571D01*
X149238095Y-108876190D01*
X149285714Y-108971429D01*
X149285714Y-109161905D01*
X149238095Y-109257143D01*
X149190476Y-109304762D01*
X149095238Y-109352381D01*
X148904761Y-109352381D01*
X148809523Y-109304762D01*
X148761904Y-109257143D01*
X148714285Y-109161905D01*
X148714285Y-108971429D01*
X148761904Y-108876190D01*
X148809523Y-108828571D01*
X148904761Y-108780952D01*
X121335714Y-97702381D02*
X121526191Y-97702381D01*
X121621429Y-97750000D01*
X121669048Y-97797619D01*
X121764286Y-97940476D01*
X121811905Y-98130952D01*
X121811905Y-98511905D01*
X121764286Y-98607143D01*
X121716667Y-98654762D01*
X121621429Y-98702381D01*
X121430952Y-98702381D01*
X121335714Y-98654762D01*
X121288095Y-98607143D01*
X121240476Y-98511905D01*
X121240476Y-98273810D01*
X121288095Y-98178571D01*
X121335714Y-98130952D01*
X121430952Y-98083333D01*
X121621429Y-98083333D01*
X121716667Y-98130952D01*
X121764286Y-98178571D01*
X121811905Y-98273810D01*
X120621429Y-97702381D02*
X120526190Y-97702381D01*
X120430952Y-97750000D01*
X120383333Y-97797619D01*
X120335714Y-97892857D01*
X120288095Y-98083333D01*
X120288095Y-98321429D01*
X120335714Y-98511905D01*
X120383333Y-98607143D01*
X120430952Y-98654762D01*
X120526190Y-98702381D01*
X120621429Y-98702381D01*
X120716667Y-98654762D01*
X120764286Y-98607143D01*
X120811905Y-98511905D01*
X120859524Y-98321429D01*
X120859524Y-98083333D01*
X120811905Y-97892857D01*
X120764286Y-97797619D01*
X120716667Y-97750000D01*
X120621429Y-97702381D01*
D12*
X121133333Y-100226190D02*
X121300000Y-99988095D01*
X121419047Y-100226190D02*
X121419047Y-99726190D01*
X121228571Y-99726190D01*
X121180952Y-99750000D01*
X121157143Y-99773810D01*
X121133333Y-99821429D01*
X121133333Y-99892857D01*
X121157143Y-99940476D01*
X121180952Y-99964286D01*
X121228571Y-99988095D01*
X121419047Y-99988095D01*
X120680952Y-99726190D02*
X120919047Y-99726190D01*
X120942857Y-99964286D01*
X120919047Y-99940476D01*
X120871428Y-99916667D01*
X120752381Y-99916667D01*
X120704762Y-99940476D01*
X120680952Y-99964286D01*
X120657143Y-100011905D01*
X120657143Y-100130952D01*
X120680952Y-100178571D01*
X120704762Y-100202381D01*
X120752381Y-100226190D01*
X120871428Y-100226190D01*
X120919047Y-100202381D01*
X120942857Y-100178571D01*
D11*
X121335714Y-95702381D02*
X121526191Y-95702381D01*
X121621429Y-95750000D01*
X121669048Y-95797619D01*
X121764286Y-95940476D01*
X121811905Y-96130952D01*
X121811905Y-96511905D01*
X121764286Y-96607143D01*
X121716667Y-96654762D01*
X121621429Y-96702381D01*
X121430952Y-96702381D01*
X121335714Y-96654762D01*
X121288095Y-96607143D01*
X121240476Y-96511905D01*
X121240476Y-96273810D01*
X121288095Y-96178571D01*
X121335714Y-96130952D01*
X121430952Y-96083333D01*
X121621429Y-96083333D01*
X121716667Y-96130952D01*
X121764286Y-96178571D01*
X121811905Y-96273810D01*
X120621429Y-95702381D02*
X120526190Y-95702381D01*
X120430952Y-95750000D01*
X120383333Y-95797619D01*
X120335714Y-95892857D01*
X120288095Y-96083333D01*
X120288095Y-96321429D01*
X120335714Y-96511905D01*
X120383333Y-96607143D01*
X120430952Y-96654762D01*
X120526190Y-96702381D01*
X120621429Y-96702381D01*
X120716667Y-96654762D01*
X120764286Y-96607143D01*
X120811905Y-96511905D01*
X120859524Y-96321429D01*
X120859524Y-96083333D01*
X120811905Y-95892857D01*
X120764286Y-95797619D01*
X120716667Y-95750000D01*
X120621429Y-95702381D01*
D12*
X121133333Y-98226190D02*
X121300000Y-97988095D01*
X121419047Y-98226190D02*
X121419047Y-97726190D01*
X121228571Y-97726190D01*
X121180952Y-97750000D01*
X121157143Y-97773810D01*
X121133333Y-97821429D01*
X121133333Y-97892857D01*
X121157143Y-97940476D01*
X121180952Y-97964286D01*
X121228571Y-97988095D01*
X121419047Y-97988095D01*
X120704762Y-97726190D02*
X120800000Y-97726190D01*
X120847619Y-97750000D01*
X120871428Y-97773810D01*
X120919047Y-97845238D01*
X120942857Y-97940476D01*
X120942857Y-98130952D01*
X120919047Y-98178571D01*
X120895238Y-98202381D01*
X120847619Y-98226190D01*
X120752381Y-98226190D01*
X120704762Y-98202381D01*
X120680952Y-98178571D01*
X120657143Y-98130952D01*
X120657143Y-98011905D01*
X120680952Y-97964286D01*
X120704762Y-97940476D01*
X120752381Y-97916667D01*
X120847619Y-97916667D01*
X120895238Y-97940476D01*
X120919047Y-97964286D01*
X120942857Y-98011905D01*
D11*
X128702381Y-105714286D02*
X128702381Y-105523809D01*
X128750000Y-105428571D01*
X128797619Y-105380952D01*
X128940476Y-105285714D01*
X129130952Y-105238095D01*
X129511905Y-105238095D01*
X129607143Y-105285714D01*
X129654762Y-105333333D01*
X129702381Y-105428571D01*
X129702381Y-105619048D01*
X129654762Y-105714286D01*
X129607143Y-105761905D01*
X129511905Y-105809524D01*
X129273810Y-105809524D01*
X129178571Y-105761905D01*
X129130952Y-105714286D01*
X129083333Y-105619048D01*
X129083333Y-105428571D01*
X129130952Y-105333333D01*
X129178571Y-105285714D01*
X129273810Y-105238095D01*
X128702381Y-106428571D02*
X128702381Y-106523810D01*
X128750000Y-106619048D01*
X128797619Y-106666667D01*
X128892857Y-106714286D01*
X129083333Y-106761905D01*
X129321429Y-106761905D01*
X129511905Y-106714286D01*
X129607143Y-106666667D01*
X129654762Y-106619048D01*
X129702381Y-106523810D01*
X129702381Y-106428571D01*
X129654762Y-106333333D01*
X129607143Y-106285714D01*
X129511905Y-106238095D01*
X129321429Y-106190476D01*
X129083333Y-106190476D01*
X128892857Y-106238095D01*
X128797619Y-106285714D01*
X128750000Y-106333333D01*
X128702381Y-106428571D01*
D12*
X127726190Y-105916667D02*
X127488095Y-105750000D01*
X127726190Y-105630953D02*
X127226190Y-105630953D01*
X127226190Y-105821429D01*
X127250000Y-105869048D01*
X127273810Y-105892857D01*
X127321429Y-105916667D01*
X127392857Y-105916667D01*
X127440476Y-105892857D01*
X127464286Y-105869048D01*
X127488095Y-105821429D01*
X127488095Y-105630953D01*
X127226190Y-106083334D02*
X127226190Y-106416667D01*
X127726190Y-106202381D01*
D11*
X123202381Y-105714286D02*
X123202381Y-105523809D01*
X123250000Y-105428571D01*
X123297619Y-105380952D01*
X123440476Y-105285714D01*
X123630952Y-105238095D01*
X124011905Y-105238095D01*
X124107143Y-105285714D01*
X124154762Y-105333333D01*
X124202381Y-105428571D01*
X124202381Y-105619048D01*
X124154762Y-105714286D01*
X124107143Y-105761905D01*
X124011905Y-105809524D01*
X123773810Y-105809524D01*
X123678571Y-105761905D01*
X123630952Y-105714286D01*
X123583333Y-105619048D01*
X123583333Y-105428571D01*
X123630952Y-105333333D01*
X123678571Y-105285714D01*
X123773810Y-105238095D01*
X123202381Y-106428571D02*
X123202381Y-106523810D01*
X123250000Y-106619048D01*
X123297619Y-106666667D01*
X123392857Y-106714286D01*
X123583333Y-106761905D01*
X123821429Y-106761905D01*
X124011905Y-106714286D01*
X124107143Y-106666667D01*
X124154762Y-106619048D01*
X124202381Y-106523810D01*
X124202381Y-106428571D01*
X124154762Y-106333333D01*
X124107143Y-106285714D01*
X124011905Y-106238095D01*
X123821429Y-106190476D01*
X123583333Y-106190476D01*
X123392857Y-106238095D01*
X123297619Y-106285714D01*
X123250000Y-106333333D01*
X123202381Y-106428571D01*
D12*
X125726190Y-105916667D02*
X125488095Y-105750000D01*
X125726190Y-105630953D02*
X125226190Y-105630953D01*
X125226190Y-105821429D01*
X125250000Y-105869048D01*
X125273810Y-105892857D01*
X125321429Y-105916667D01*
X125392857Y-105916667D01*
X125440476Y-105892857D01*
X125464286Y-105869048D01*
X125488095Y-105821429D01*
X125488095Y-105630953D01*
X125440476Y-106202381D02*
X125416667Y-106154762D01*
X125392857Y-106130953D01*
X125345238Y-106107143D01*
X125321429Y-106107143D01*
X125273810Y-106130953D01*
X125250000Y-106154762D01*
X125226190Y-106202381D01*
X125226190Y-106297619D01*
X125250000Y-106345238D01*
X125273810Y-106369048D01*
X125321429Y-106392857D01*
X125345238Y-106392857D01*
X125392857Y-106369048D01*
X125416667Y-106345238D01*
X125440476Y-106297619D01*
X125440476Y-106202381D01*
X125464286Y-106154762D01*
X125488095Y-106130953D01*
X125535714Y-106107143D01*
X125630952Y-106107143D01*
X125678571Y-106130953D01*
X125702381Y-106154762D01*
X125726190Y-106202381D01*
X125726190Y-106297619D01*
X125702381Y-106345238D01*
X125678571Y-106369048D01*
X125630952Y-106392857D01*
X125535714Y-106392857D01*
X125488095Y-106369048D01*
X125464286Y-106345238D01*
X125440476Y-106297619D01*
D11*
X195095238Y-96702381D02*
X194904762Y-96702381D01*
X194809523Y-96654762D01*
X194761904Y-96607143D01*
X194666666Y-96464286D01*
X194619047Y-96273810D01*
X194619047Y-95892857D01*
X194666666Y-95797619D01*
X194714285Y-95750000D01*
X194809523Y-95702381D01*
X195000000Y-95702381D01*
X195095238Y-95750000D01*
X195142857Y-95797619D01*
X195190476Y-95892857D01*
X195190476Y-96130952D01*
X195142857Y-96226190D01*
X195095238Y-96273810D01*
X195000000Y-96321429D01*
X194809523Y-96321429D01*
X194714285Y-96273810D01*
X194666666Y-96226190D01*
X194619047Y-96130952D01*
X194190476Y-96702381D02*
X194190476Y-95702381D01*
X194095238Y-96321429D02*
X193809523Y-96702381D01*
X193809523Y-96035714D02*
X194190476Y-96416667D01*
D12*
X194821428Y-98226190D02*
X194988095Y-97988095D01*
X195107142Y-98226190D02*
X195107142Y-97726190D01*
X194916666Y-97726190D01*
X194869047Y-97750000D01*
X194845238Y-97773810D01*
X194821428Y-97821429D01*
X194821428Y-97892857D01*
X194845238Y-97940476D01*
X194869047Y-97964286D01*
X194916666Y-97988095D01*
X195107142Y-97988095D01*
X194345238Y-98226190D02*
X194630952Y-98226190D01*
X194488095Y-98226190D02*
X194488095Y-97726190D01*
X194535714Y-97797619D01*
X194583333Y-97845238D01*
X194630952Y-97869048D01*
X193869048Y-98226190D02*
X194154762Y-98226190D01*
X194011905Y-98226190D02*
X194011905Y-97726190D01*
X194059524Y-97797619D01*
X194107143Y-97845238D01*
X194154762Y-97869048D01*
D11*
X195095238Y-93202381D02*
X194904762Y-93202381D01*
X194809523Y-93154762D01*
X194761904Y-93107143D01*
X194666666Y-92964286D01*
X194619047Y-92773810D01*
X194619047Y-92392857D01*
X194666666Y-92297619D01*
X194714285Y-92250000D01*
X194809523Y-92202381D01*
X195000000Y-92202381D01*
X195095238Y-92250000D01*
X195142857Y-92297619D01*
X195190476Y-92392857D01*
X195190476Y-92630952D01*
X195142857Y-92726190D01*
X195095238Y-92773810D01*
X195000000Y-92821429D01*
X194809523Y-92821429D01*
X194714285Y-92773810D01*
X194666666Y-92726190D01*
X194619047Y-92630952D01*
X194190476Y-93202381D02*
X194190476Y-92202381D01*
X194095238Y-92821429D02*
X193809523Y-93202381D01*
X193809523Y-92535714D02*
X194190476Y-92916667D01*
D12*
X194821428Y-94726190D02*
X194988095Y-94488095D01*
X195107142Y-94726190D02*
X195107142Y-94226190D01*
X194916666Y-94226190D01*
X194869047Y-94250000D01*
X194845238Y-94273810D01*
X194821428Y-94321429D01*
X194821428Y-94392857D01*
X194845238Y-94440476D01*
X194869047Y-94464286D01*
X194916666Y-94488095D01*
X195107142Y-94488095D01*
X194345238Y-94726190D02*
X194630952Y-94726190D01*
X194488095Y-94726190D02*
X194488095Y-94226190D01*
X194535714Y-94297619D01*
X194583333Y-94345238D01*
X194630952Y-94369048D01*
X194154762Y-94273810D02*
X194130952Y-94250000D01*
X194083333Y-94226190D01*
X193964286Y-94226190D01*
X193916667Y-94250000D01*
X193892857Y-94273810D01*
X193869048Y-94321429D01*
X193869048Y-94369048D01*
X193892857Y-94440476D01*
X194178571Y-94726190D01*
X193869048Y-94726190D01*
D11*
X192404762Y-95797619D02*
X192357143Y-95750000D01*
X192261905Y-95702381D01*
X192023809Y-95702381D01*
X191928571Y-95750000D01*
X191880952Y-95797619D01*
X191833333Y-95892857D01*
X191833333Y-95988095D01*
X191880952Y-96130952D01*
X192452381Y-96702381D01*
X191833333Y-96702381D01*
X191404762Y-96607143D02*
X191357143Y-96654762D01*
X191404762Y-96702381D01*
X191452381Y-96654762D01*
X191404762Y-96607143D01*
X191404762Y-96702381D01*
X190976191Y-95797619D02*
X190928572Y-95750000D01*
X190833334Y-95702381D01*
X190595238Y-95702381D01*
X190500000Y-95750000D01*
X190452381Y-95797619D01*
X190404762Y-95892857D01*
X190404762Y-95988095D01*
X190452381Y-96130952D01*
X191023810Y-96702381D01*
X190404762Y-96702381D01*
X189976191Y-96702381D02*
X189976191Y-95702381D01*
X189880953Y-96321429D02*
X189595238Y-96702381D01*
X189595238Y-96035714D02*
X189976191Y-96416667D01*
D12*
X191321428Y-98226190D02*
X191488095Y-97988095D01*
X191607142Y-98226190D02*
X191607142Y-97726190D01*
X191416666Y-97726190D01*
X191369047Y-97750000D01*
X191345238Y-97773810D01*
X191321428Y-97821429D01*
X191321428Y-97892857D01*
X191345238Y-97940476D01*
X191369047Y-97964286D01*
X191416666Y-97988095D01*
X191607142Y-97988095D01*
X190845238Y-98226190D02*
X191130952Y-98226190D01*
X190988095Y-98226190D02*
X190988095Y-97726190D01*
X191035714Y-97797619D01*
X191083333Y-97845238D01*
X191130952Y-97869048D01*
X190678571Y-97726190D02*
X190369048Y-97726190D01*
X190535714Y-97916667D01*
X190464286Y-97916667D01*
X190416667Y-97940476D01*
X190392857Y-97964286D01*
X190369048Y-98011905D01*
X190369048Y-98130952D01*
X190392857Y-98178571D01*
X190416667Y-98202381D01*
X190464286Y-98226190D01*
X190607143Y-98226190D01*
X190654762Y-98202381D01*
X190678571Y-98178571D01*
D11*
X192404762Y-92297619D02*
X192357143Y-92250000D01*
X192261905Y-92202381D01*
X192023809Y-92202381D01*
X191928571Y-92250000D01*
X191880952Y-92297619D01*
X191833333Y-92392857D01*
X191833333Y-92488095D01*
X191880952Y-92630952D01*
X192452381Y-93202381D01*
X191833333Y-93202381D01*
X191404762Y-93107143D02*
X191357143Y-93154762D01*
X191404762Y-93202381D01*
X191452381Y-93154762D01*
X191404762Y-93107143D01*
X191404762Y-93202381D01*
X190976191Y-92297619D02*
X190928572Y-92250000D01*
X190833334Y-92202381D01*
X190595238Y-92202381D01*
X190500000Y-92250000D01*
X190452381Y-92297619D01*
X190404762Y-92392857D01*
X190404762Y-92488095D01*
X190452381Y-92630952D01*
X191023810Y-93202381D01*
X190404762Y-93202381D01*
X189976191Y-93202381D02*
X189976191Y-92202381D01*
X189880953Y-92821429D02*
X189595238Y-93202381D01*
X189595238Y-92535714D02*
X189976191Y-92916667D01*
D12*
X191321428Y-94726190D02*
X191488095Y-94488095D01*
X191607142Y-94726190D02*
X191607142Y-94226190D01*
X191416666Y-94226190D01*
X191369047Y-94250000D01*
X191345238Y-94273810D01*
X191321428Y-94321429D01*
X191321428Y-94392857D01*
X191345238Y-94440476D01*
X191369047Y-94464286D01*
X191416666Y-94488095D01*
X191607142Y-94488095D01*
X190845238Y-94726190D02*
X191130952Y-94726190D01*
X190988095Y-94726190D02*
X190988095Y-94226190D01*
X191035714Y-94297619D01*
X191083333Y-94345238D01*
X191130952Y-94369048D01*
X190416667Y-94392857D02*
X190416667Y-94726190D01*
X190535714Y-94202381D02*
X190654762Y-94559524D01*
X190345238Y-94559524D01*
D11*
X139335714Y-122702381D02*
X139526191Y-122702381D01*
X139621429Y-122750000D01*
X139669048Y-122797619D01*
X139764286Y-122940476D01*
X139811905Y-123130952D01*
X139811905Y-123511905D01*
X139764286Y-123607143D01*
X139716667Y-123654762D01*
X139621429Y-123702381D01*
X139430952Y-123702381D01*
X139335714Y-123654762D01*
X139288095Y-123607143D01*
X139240476Y-123511905D01*
X139240476Y-123273810D01*
X139288095Y-123178571D01*
X139335714Y-123130952D01*
X139430952Y-123083333D01*
X139621429Y-123083333D01*
X139716667Y-123130952D01*
X139764286Y-123178571D01*
X139811905Y-123273810D01*
X138621429Y-122702381D02*
X138526190Y-122702381D01*
X138430952Y-122750000D01*
X138383333Y-122797619D01*
X138335714Y-122892857D01*
X138288095Y-123083333D01*
X138288095Y-123321429D01*
X138335714Y-123511905D01*
X138383333Y-123607143D01*
X138430952Y-123654762D01*
X138526190Y-123702381D01*
X138621429Y-123702381D01*
X138716667Y-123654762D01*
X138764286Y-123607143D01*
X138811905Y-123511905D01*
X138859524Y-123321429D01*
X138859524Y-123083333D01*
X138811905Y-122892857D01*
X138764286Y-122797619D01*
X138716667Y-122750000D01*
X138621429Y-122702381D01*
D12*
X139371428Y-121726190D02*
X139538095Y-121488095D01*
X139657142Y-121726190D02*
X139657142Y-121226190D01*
X139466666Y-121226190D01*
X139419047Y-121250000D01*
X139395238Y-121273810D01*
X139371428Y-121321429D01*
X139371428Y-121392857D01*
X139395238Y-121440476D01*
X139419047Y-121464286D01*
X139466666Y-121488095D01*
X139657142Y-121488095D01*
X139180952Y-121273810D02*
X139157142Y-121250000D01*
X139109523Y-121226190D01*
X138990476Y-121226190D01*
X138942857Y-121250000D01*
X138919047Y-121273810D01*
X138895238Y-121321429D01*
X138895238Y-121369048D01*
X138919047Y-121440476D01*
X139204761Y-121726190D01*
X138895238Y-121726190D01*
X138585714Y-121226190D02*
X138538095Y-121226190D01*
X138490476Y-121250000D01*
X138466667Y-121273810D01*
X138442857Y-121321429D01*
X138419048Y-121416667D01*
X138419048Y-121535714D01*
X138442857Y-121630952D01*
X138466667Y-121678571D01*
X138490476Y-121702381D01*
X138538095Y-121726190D01*
X138585714Y-121726190D01*
X138633333Y-121702381D01*
X138657143Y-121678571D01*
X138680952Y-121630952D01*
X138704762Y-121535714D01*
X138704762Y-121416667D01*
X138680952Y-121321429D01*
X138657143Y-121273810D01*
X138633333Y-121250000D01*
X138585714Y-121226190D01*
D11*
X139335714Y-117202381D02*
X139526191Y-117202381D01*
X139621429Y-117250000D01*
X139669048Y-117297619D01*
X139764286Y-117440476D01*
X139811905Y-117630952D01*
X139811905Y-118011905D01*
X139764286Y-118107143D01*
X139716667Y-118154762D01*
X139621429Y-118202381D01*
X139430952Y-118202381D01*
X139335714Y-118154762D01*
X139288095Y-118107143D01*
X139240476Y-118011905D01*
X139240476Y-117773810D01*
X139288095Y-117678571D01*
X139335714Y-117630952D01*
X139430952Y-117583333D01*
X139621429Y-117583333D01*
X139716667Y-117630952D01*
X139764286Y-117678571D01*
X139811905Y-117773810D01*
X138621429Y-117202381D02*
X138526190Y-117202381D01*
X138430952Y-117250000D01*
X138383333Y-117297619D01*
X138335714Y-117392857D01*
X138288095Y-117583333D01*
X138288095Y-117821429D01*
X138335714Y-118011905D01*
X138383333Y-118107143D01*
X138430952Y-118154762D01*
X138526190Y-118202381D01*
X138621429Y-118202381D01*
X138716667Y-118154762D01*
X138764286Y-118107143D01*
X138811905Y-118011905D01*
X138859524Y-117821429D01*
X138859524Y-117583333D01*
X138811905Y-117392857D01*
X138764286Y-117297619D01*
X138716667Y-117250000D01*
X138621429Y-117202381D01*
D12*
X139371428Y-119726190D02*
X139538095Y-119488095D01*
X139657142Y-119726190D02*
X139657142Y-119226190D01*
X139466666Y-119226190D01*
X139419047Y-119250000D01*
X139395238Y-119273810D01*
X139371428Y-119321429D01*
X139371428Y-119392857D01*
X139395238Y-119440476D01*
X139419047Y-119464286D01*
X139466666Y-119488095D01*
X139657142Y-119488095D01*
X139180952Y-119273810D02*
X139157142Y-119250000D01*
X139109523Y-119226190D01*
X138990476Y-119226190D01*
X138942857Y-119250000D01*
X138919047Y-119273810D01*
X138895238Y-119321429D01*
X138895238Y-119369048D01*
X138919047Y-119440476D01*
X139204761Y-119726190D01*
X138895238Y-119726190D01*
X138419048Y-119726190D02*
X138704762Y-119726190D01*
X138561905Y-119726190D02*
X138561905Y-119226190D01*
X138609524Y-119297619D01*
X138657143Y-119345238D01*
X138704762Y-119369048D01*
D11*
X139285714Y-116202381D02*
X139476191Y-116202381D01*
X139571429Y-116250000D01*
X139619048Y-116297619D01*
X139714286Y-116440476D01*
X139761905Y-116630952D01*
X139761905Y-117011905D01*
X139714286Y-117107143D01*
X139666667Y-117154762D01*
X139571429Y-117202381D01*
X139380952Y-117202381D01*
X139285714Y-117154762D01*
X139238095Y-117107143D01*
X139190476Y-117011905D01*
X139190476Y-116773810D01*
X139238095Y-116678571D01*
X139285714Y-116630952D01*
X139380952Y-116583333D01*
X139571429Y-116583333D01*
X139666667Y-116630952D01*
X139714286Y-116678571D01*
X139761905Y-116773810D01*
X138571429Y-116202381D02*
X138476190Y-116202381D01*
X138380952Y-116250000D01*
X138333333Y-116297619D01*
X138285714Y-116392857D01*
X138238095Y-116583333D01*
X138238095Y-116821429D01*
X138285714Y-117011905D01*
X138333333Y-117107143D01*
X138380952Y-117154762D01*
X138476190Y-117202381D01*
X138571429Y-117202381D01*
X138666667Y-117154762D01*
X138714286Y-117107143D01*
X138761905Y-117011905D01*
X138809524Y-116821429D01*
X138809524Y-116583333D01*
X138761905Y-116392857D01*
X138714286Y-116297619D01*
X138666667Y-116250000D01*
X138571429Y-116202381D01*
D12*
X139321428Y-115226190D02*
X139488095Y-114988095D01*
X139607142Y-115226190D02*
X139607142Y-114726190D01*
X139416666Y-114726190D01*
X139369047Y-114750000D01*
X139345238Y-114773810D01*
X139321428Y-114821429D01*
X139321428Y-114892857D01*
X139345238Y-114940476D01*
X139369047Y-114964286D01*
X139416666Y-114988095D01*
X139607142Y-114988095D01*
X139130952Y-114773810D02*
X139107142Y-114750000D01*
X139059523Y-114726190D01*
X138940476Y-114726190D01*
X138892857Y-114750000D01*
X138869047Y-114773810D01*
X138845238Y-114821429D01*
X138845238Y-114869048D01*
X138869047Y-114940476D01*
X139154761Y-115226190D01*
X138845238Y-115226190D01*
X138654762Y-114773810D02*
X138630952Y-114750000D01*
X138583333Y-114726190D01*
X138464286Y-114726190D01*
X138416667Y-114750000D01*
X138392857Y-114773810D01*
X138369048Y-114821429D01*
X138369048Y-114869048D01*
X138392857Y-114940476D01*
X138678571Y-115226190D01*
X138369048Y-115226190D01*
D11*
X139285714Y-110702381D02*
X139476191Y-110702381D01*
X139571429Y-110750000D01*
X139619048Y-110797619D01*
X139714286Y-110940476D01*
X139761905Y-111130952D01*
X139761905Y-111511905D01*
X139714286Y-111607143D01*
X139666667Y-111654762D01*
X139571429Y-111702381D01*
X139380952Y-111702381D01*
X139285714Y-111654762D01*
X139238095Y-111607143D01*
X139190476Y-111511905D01*
X139190476Y-111273810D01*
X139238095Y-111178571D01*
X139285714Y-111130952D01*
X139380952Y-111083333D01*
X139571429Y-111083333D01*
X139666667Y-111130952D01*
X139714286Y-111178571D01*
X139761905Y-111273810D01*
X138571429Y-110702381D02*
X138476190Y-110702381D01*
X138380952Y-110750000D01*
X138333333Y-110797619D01*
X138285714Y-110892857D01*
X138238095Y-111083333D01*
X138238095Y-111321429D01*
X138285714Y-111511905D01*
X138333333Y-111607143D01*
X138380952Y-111654762D01*
X138476190Y-111702381D01*
X138571429Y-111702381D01*
X138666667Y-111654762D01*
X138714286Y-111607143D01*
X138761905Y-111511905D01*
X138809524Y-111321429D01*
X138809524Y-111083333D01*
X138761905Y-110892857D01*
X138714286Y-110797619D01*
X138666667Y-110750000D01*
X138571429Y-110702381D01*
D12*
X139321428Y-113226190D02*
X139488095Y-112988095D01*
X139607142Y-113226190D02*
X139607142Y-112726190D01*
X139416666Y-112726190D01*
X139369047Y-112750000D01*
X139345238Y-112773810D01*
X139321428Y-112821429D01*
X139321428Y-112892857D01*
X139345238Y-112940476D01*
X139369047Y-112964286D01*
X139416666Y-112988095D01*
X139607142Y-112988095D01*
X139130952Y-112773810D02*
X139107142Y-112750000D01*
X139059523Y-112726190D01*
X138940476Y-112726190D01*
X138892857Y-112750000D01*
X138869047Y-112773810D01*
X138845238Y-112821429D01*
X138845238Y-112869048D01*
X138869047Y-112940476D01*
X139154761Y-113226190D01*
X138845238Y-113226190D01*
X138678571Y-112726190D02*
X138369048Y-112726190D01*
X138535714Y-112916667D01*
X138464286Y-112916667D01*
X138416667Y-112940476D01*
X138392857Y-112964286D01*
X138369048Y-113011905D01*
X138369048Y-113130952D01*
X138392857Y-113178571D01*
X138416667Y-113202381D01*
X138464286Y-113226190D01*
X138607143Y-113226190D01*
X138654762Y-113202381D01*
X138678571Y-113178571D01*
D11*
X197857381Y-118561905D02*
X197857381Y-119228572D01*
X198857381Y-118800000D01*
X198190714Y-120038096D02*
X198857381Y-120038096D01*
X197809762Y-119800000D02*
X198524048Y-119561905D01*
X198524048Y-120180953D01*
X198857381Y-120561905D02*
X197857381Y-120561905D01*
X198333571Y-120561905D02*
X198333571Y-121133334D01*
X198857381Y-121133334D02*
X197857381Y-121133334D01*
X198762143Y-122180953D02*
X198809762Y-122133334D01*
X198857381Y-121990477D01*
X198857381Y-121895239D01*
X198809762Y-121752381D01*
X198714524Y-121657143D01*
X198619286Y-121609524D01*
X198428810Y-121561905D01*
X198285952Y-121561905D01*
X198095476Y-121609524D01*
X198000238Y-121657143D01*
X197905000Y-121752381D01*
X197857381Y-121895239D01*
X197857381Y-121990477D01*
X197905000Y-122133334D01*
X197952619Y-122180953D01*
X198190714Y-123038096D02*
X198857381Y-123038096D01*
X197809762Y-122800000D02*
X198524048Y-122561905D01*
X198524048Y-123180953D01*
X197857381Y-123752381D02*
X197857381Y-123847620D01*
X197905000Y-123942858D01*
X197952619Y-123990477D01*
X198047857Y-124038096D01*
X198238333Y-124085715D01*
X198476429Y-124085715D01*
X198666905Y-124038096D01*
X198762143Y-123990477D01*
X198809762Y-123942858D01*
X198857381Y-123847620D01*
X198857381Y-123752381D01*
X198809762Y-123657143D01*
X198762143Y-123609524D01*
X198666905Y-123561905D01*
X198476429Y-123514286D01*
X198238333Y-123514286D01*
X198047857Y-123561905D01*
X197952619Y-123609524D01*
X197905000Y-123657143D01*
X197857381Y-123752381D01*
X197857381Y-124990477D02*
X197857381Y-124514286D01*
X198333571Y-124466667D01*
X198285952Y-124514286D01*
X198238333Y-124609524D01*
X198238333Y-124847620D01*
X198285952Y-124942858D01*
X198333571Y-124990477D01*
X198428810Y-125038096D01*
X198666905Y-125038096D01*
X198762143Y-124990477D01*
X198809762Y-124942858D01*
X198857381Y-124847620D01*
X198857381Y-124609524D01*
X198809762Y-124514286D01*
X198762143Y-124466667D01*
X197857381Y-125657143D02*
X197857381Y-125752382D01*
X197905000Y-125847620D01*
X197952619Y-125895239D01*
X198047857Y-125942858D01*
X198238333Y-125990477D01*
X198476429Y-125990477D01*
X198666905Y-125942858D01*
X198762143Y-125895239D01*
X198809762Y-125847620D01*
X198857381Y-125752382D01*
X198857381Y-125657143D01*
X198809762Y-125561905D01*
X198762143Y-125514286D01*
X198666905Y-125466667D01*
X198476429Y-125419048D01*
X198238333Y-125419048D01*
X198047857Y-125466667D01*
X197952619Y-125514286D01*
X197905000Y-125561905D01*
X197857381Y-125657143D01*
X198857381Y-126419048D02*
X197857381Y-126419048D01*
X197857381Y-126657143D01*
X197905000Y-126800001D01*
X198000238Y-126895239D01*
X198095476Y-126942858D01*
X198285952Y-126990477D01*
X198428810Y-126990477D01*
X198619286Y-126942858D01*
X198714524Y-126895239D01*
X198809762Y-126800001D01*
X198857381Y-126657143D01*
X198857381Y-126419048D01*
D13*
X191912143Y-122114286D02*
X192640714Y-122114286D01*
X192726429Y-122157143D01*
X192769286Y-122200000D01*
X192812143Y-122285714D01*
X192812143Y-122457143D01*
X192769286Y-122542857D01*
X192726429Y-122585714D01*
X192640714Y-122628571D01*
X191912143Y-122628571D01*
X192297857Y-123185714D02*
X192255000Y-123100000D01*
X192212143Y-123057143D01*
X192126429Y-123014286D01*
X192083571Y-123014286D01*
X191997857Y-123057143D01*
X191955000Y-123100000D01*
X191912143Y-123185714D01*
X191912143Y-123357143D01*
X191955000Y-123442857D01*
X191997857Y-123485714D01*
X192083571Y-123528571D01*
X192126429Y-123528571D01*
X192212143Y-123485714D01*
X192255000Y-123442857D01*
X192297857Y-123357143D01*
X192297857Y-123185714D01*
X192340714Y-123100000D01*
X192383571Y-123057143D01*
X192469286Y-123014286D01*
X192640714Y-123014286D01*
X192726429Y-123057143D01*
X192769286Y-123100000D01*
X192812143Y-123185714D01*
X192812143Y-123357143D01*
X192769286Y-123442857D01*
X192726429Y-123485714D01*
X192640714Y-123528571D01*
X192469286Y-123528571D01*
X192383571Y-123485714D01*
X192340714Y-123442857D01*
X192297857Y-123357143D01*
D11*
X198007381Y-109561905D02*
X198007381Y-110228572D01*
X199007381Y-109800000D01*
X198340714Y-111038096D02*
X199007381Y-111038096D01*
X197959762Y-110800000D02*
X198674048Y-110561905D01*
X198674048Y-111180953D01*
X199007381Y-111561905D02*
X198007381Y-111561905D01*
X198483571Y-111561905D02*
X198483571Y-112133334D01*
X199007381Y-112133334D02*
X198007381Y-112133334D01*
X198912143Y-113180953D02*
X198959762Y-113133334D01*
X199007381Y-112990477D01*
X199007381Y-112895239D01*
X198959762Y-112752381D01*
X198864524Y-112657143D01*
X198769286Y-112609524D01*
X198578810Y-112561905D01*
X198435952Y-112561905D01*
X198245476Y-112609524D01*
X198150238Y-112657143D01*
X198055000Y-112752381D01*
X198007381Y-112895239D01*
X198007381Y-112990477D01*
X198055000Y-113133334D01*
X198102619Y-113180953D01*
X198340714Y-114038096D02*
X199007381Y-114038096D01*
X197959762Y-113800000D02*
X198674048Y-113561905D01*
X198674048Y-114180953D01*
X198007381Y-114752381D02*
X198007381Y-114847620D01*
X198055000Y-114942858D01*
X198102619Y-114990477D01*
X198197857Y-115038096D01*
X198388333Y-115085715D01*
X198626429Y-115085715D01*
X198816905Y-115038096D01*
X198912143Y-114990477D01*
X198959762Y-114942858D01*
X199007381Y-114847620D01*
X199007381Y-114752381D01*
X198959762Y-114657143D01*
X198912143Y-114609524D01*
X198816905Y-114561905D01*
X198626429Y-114514286D01*
X198388333Y-114514286D01*
X198197857Y-114561905D01*
X198102619Y-114609524D01*
X198055000Y-114657143D01*
X198007381Y-114752381D01*
X198007381Y-115990477D02*
X198007381Y-115514286D01*
X198483571Y-115466667D01*
X198435952Y-115514286D01*
X198388333Y-115609524D01*
X198388333Y-115847620D01*
X198435952Y-115942858D01*
X198483571Y-115990477D01*
X198578810Y-116038096D01*
X198816905Y-116038096D01*
X198912143Y-115990477D01*
X198959762Y-115942858D01*
X199007381Y-115847620D01*
X199007381Y-115609524D01*
X198959762Y-115514286D01*
X198912143Y-115466667D01*
X198007381Y-116657143D02*
X198007381Y-116752382D01*
X198055000Y-116847620D01*
X198102619Y-116895239D01*
X198197857Y-116942858D01*
X198388333Y-116990477D01*
X198626429Y-116990477D01*
X198816905Y-116942858D01*
X198912143Y-116895239D01*
X198959762Y-116847620D01*
X199007381Y-116752382D01*
X199007381Y-116657143D01*
X198959762Y-116561905D01*
X198912143Y-116514286D01*
X198816905Y-116466667D01*
X198626429Y-116419048D01*
X198388333Y-116419048D01*
X198197857Y-116466667D01*
X198102619Y-116514286D01*
X198055000Y-116561905D01*
X198007381Y-116657143D01*
X199007381Y-117419048D02*
X198007381Y-117419048D01*
X198007381Y-117657143D01*
X198055000Y-117800001D01*
X198150238Y-117895239D01*
X198245476Y-117942858D01*
X198435952Y-117990477D01*
X198578810Y-117990477D01*
X198769286Y-117942858D01*
X198864524Y-117895239D01*
X198959762Y-117800001D01*
X199007381Y-117657143D01*
X199007381Y-117419048D01*
D13*
X192062143Y-112685715D02*
X192790714Y-112685715D01*
X192876429Y-112728572D01*
X192919286Y-112771429D01*
X192962143Y-112857143D01*
X192962143Y-113028572D01*
X192919286Y-113114286D01*
X192876429Y-113157143D01*
X192790714Y-113200000D01*
X192062143Y-113200000D01*
X192962143Y-114100000D02*
X192962143Y-113585715D01*
X192962143Y-113842857D02*
X192062143Y-113842857D01*
X192190714Y-113757143D01*
X192276429Y-113671429D01*
X192319286Y-113585715D01*
X192062143Y-114657143D02*
X192062143Y-114742858D01*
X192105000Y-114828572D01*
X192147857Y-114871429D01*
X192233571Y-114914286D01*
X192405000Y-114957143D01*
X192619286Y-114957143D01*
X192790714Y-114914286D01*
X192876429Y-114871429D01*
X192919286Y-114828572D01*
X192962143Y-114742858D01*
X192962143Y-114657143D01*
X192919286Y-114571429D01*
X192876429Y-114528572D01*
X192790714Y-114485715D01*
X192619286Y-114442858D01*
X192405000Y-114442858D01*
X192233571Y-114485715D01*
X192147857Y-114528572D01*
X192105000Y-114571429D01*
X192062143Y-114657143D01*
D11*
X148047620Y-89157143D02*
X148095239Y-89204762D01*
X148238096Y-89252381D01*
X148333334Y-89252381D01*
X148476192Y-89204762D01*
X148571430Y-89109524D01*
X148619049Y-89014286D01*
X148666668Y-88823810D01*
X148666668Y-88680952D01*
X148619049Y-88490476D01*
X148571430Y-88395238D01*
X148476192Y-88300000D01*
X148333334Y-88252381D01*
X148238096Y-88252381D01*
X148095239Y-88300000D01*
X148047620Y-88347619D01*
X147619049Y-89252381D02*
X147619049Y-88585714D01*
X147619049Y-88776190D02*
X147571430Y-88680952D01*
X147523811Y-88633333D01*
X147428573Y-88585714D01*
X147333334Y-88585714D01*
X147095239Y-88585714D02*
X146857144Y-89252381D01*
X146619048Y-88585714D02*
X146857144Y-89252381D01*
X146952382Y-89490476D01*
X147000001Y-89538095D01*
X147095239Y-89585714D01*
X146285715Y-89204762D02*
X146190477Y-89252381D01*
X146000001Y-89252381D01*
X145904762Y-89204762D01*
X145857143Y-89109524D01*
X145857143Y-89061905D01*
X145904762Y-88966667D01*
X146000001Y-88919048D01*
X146142858Y-88919048D01*
X146238096Y-88871429D01*
X146285715Y-88776190D01*
X146285715Y-88728571D01*
X146238096Y-88633333D01*
X146142858Y-88585714D01*
X146000001Y-88585714D01*
X145904762Y-88633333D01*
X145571429Y-88585714D02*
X145190477Y-88585714D01*
X145428572Y-88252381D02*
X145428572Y-89109524D01*
X145380953Y-89204762D01*
X145285715Y-89252381D01*
X145190477Y-89252381D01*
X144428571Y-89252381D02*
X144428571Y-88728571D01*
X144476190Y-88633333D01*
X144571428Y-88585714D01*
X144761905Y-88585714D01*
X144857143Y-88633333D01*
X144428571Y-89204762D02*
X144523809Y-89252381D01*
X144761905Y-89252381D01*
X144857143Y-89204762D01*
X144904762Y-89109524D01*
X144904762Y-89014286D01*
X144857143Y-88919048D01*
X144761905Y-88871429D01*
X144523809Y-88871429D01*
X144428571Y-88823810D01*
X143809524Y-89252381D02*
X143904762Y-89204762D01*
X143952381Y-89109524D01*
X143952381Y-88252381D01*
X142666666Y-89252381D02*
X142666666Y-88252381D01*
X142095237Y-89252381D02*
X142523809Y-88680952D01*
X142095237Y-88252381D02*
X142666666Y-88823810D01*
X141761904Y-88252381D02*
X141095237Y-89252381D01*
X141095237Y-88252381D02*
X141761904Y-89252381D01*
X140714285Y-88871429D02*
X139952380Y-88871429D01*
X138952380Y-89252381D02*
X139523809Y-89252381D01*
X139238095Y-89252381D02*
X139238095Y-88252381D01*
X139333333Y-88395238D01*
X139428571Y-88490476D01*
X139523809Y-88538095D01*
X138619047Y-88252381D02*
X137999999Y-88252381D01*
X138333333Y-88633333D01*
X138190475Y-88633333D01*
X138095237Y-88680952D01*
X138047618Y-88728571D01*
X137999999Y-88823810D01*
X137999999Y-89061905D01*
X138047618Y-89157143D01*
X138095237Y-89204762D01*
X138190475Y-89252381D01*
X138476190Y-89252381D01*
X138571428Y-89204762D01*
X138619047Y-89157143D01*
X136857142Y-88347619D02*
X136809523Y-88300000D01*
X136714285Y-88252381D01*
X136476189Y-88252381D01*
X136380951Y-88300000D01*
X136333332Y-88347619D01*
X136285713Y-88442857D01*
X136285713Y-88538095D01*
X136333332Y-88680952D01*
X136904761Y-89252381D01*
X136285713Y-89252381D01*
X135380951Y-88252381D02*
X135857142Y-88252381D01*
X135904761Y-88728571D01*
X135857142Y-88680952D01*
X135761904Y-88633333D01*
X135523808Y-88633333D01*
X135428570Y-88680952D01*
X135380951Y-88728571D01*
X135333332Y-88823810D01*
X135333332Y-89061905D01*
X135380951Y-89157143D01*
X135428570Y-89204762D01*
X135523808Y-89252381D01*
X135761904Y-89252381D01*
X135857142Y-89204762D01*
X135904761Y-89157143D01*
X134904761Y-89252381D02*
X134904761Y-88252381D01*
X134571427Y-88966667D01*
X134238094Y-88252381D01*
X134238094Y-89252381D01*
X133761904Y-89252381D02*
X133761904Y-88252381D01*
X133761904Y-88728571D02*
X133190475Y-88728571D01*
X133190475Y-89252381D02*
X133190475Y-88252381D01*
X132809523Y-88585714D02*
X132285713Y-88585714D01*
X132809523Y-89252381D01*
X132285713Y-89252381D01*
X140976191Y-92476190D02*
X140976191Y-92952381D01*
X141309524Y-91952381D02*
X140976191Y-92476190D01*
X140642857Y-91952381D01*
X139785714Y-92952381D02*
X140357143Y-92952381D01*
X140071429Y-92952381D02*
X140071429Y-91952381D01*
X140166667Y-92095238D01*
X140261905Y-92190476D01*
X140357143Y-92238095D01*
X141157143Y-108952380D02*
X141204762Y-108904761D01*
X141252381Y-108761904D01*
X141252381Y-108666666D01*
X141204762Y-108523808D01*
X141109524Y-108428570D01*
X141014286Y-108380951D01*
X140823810Y-108333332D01*
X140680952Y-108333332D01*
X140490476Y-108380951D01*
X140395238Y-108428570D01*
X140300000Y-108523808D01*
X140252381Y-108666666D01*
X140252381Y-108761904D01*
X140300000Y-108904761D01*
X140347619Y-108952380D01*
X141252381Y-109380951D02*
X140585714Y-109380951D01*
X140776190Y-109380951D02*
X140680952Y-109428570D01*
X140633333Y-109476189D01*
X140585714Y-109571427D01*
X140585714Y-109666666D01*
X140585714Y-109904761D02*
X141252381Y-110142856D01*
X140585714Y-110380952D02*
X141252381Y-110142856D01*
X141490476Y-110047618D01*
X141538095Y-109999999D01*
X141585714Y-109904761D01*
X141204762Y-110714285D02*
X141252381Y-110809523D01*
X141252381Y-110999999D01*
X141204762Y-111095238D01*
X141109524Y-111142857D01*
X141061905Y-111142857D01*
X140966667Y-111095238D01*
X140919048Y-110999999D01*
X140919048Y-110857142D01*
X140871429Y-110761904D01*
X140776190Y-110714285D01*
X140728571Y-110714285D01*
X140633333Y-110761904D01*
X140585714Y-110857142D01*
X140585714Y-110999999D01*
X140633333Y-111095238D01*
X140585714Y-111428571D02*
X140585714Y-111809523D01*
X140252381Y-111571428D02*
X141109524Y-111571428D01*
X141204762Y-111619047D01*
X141252381Y-111714285D01*
X141252381Y-111809523D01*
X141252381Y-112571429D02*
X140728571Y-112571429D01*
X140633333Y-112523810D01*
X140585714Y-112428572D01*
X140585714Y-112238095D01*
X140633333Y-112142857D01*
X141204762Y-112571429D02*
X141252381Y-112476191D01*
X141252381Y-112238095D01*
X141204762Y-112142857D01*
X141109524Y-112095238D01*
X141014286Y-112095238D01*
X140919048Y-112142857D01*
X140871429Y-112238095D01*
X140871429Y-112476191D01*
X140823810Y-112571429D01*
X141252381Y-113190476D02*
X141204762Y-113095238D01*
X141109524Y-113047619D01*
X140252381Y-113047619D01*
X141252381Y-114333334D02*
X140252381Y-114333334D01*
X141252381Y-114904763D02*
X140680952Y-114476191D01*
X140252381Y-114904763D02*
X140823810Y-114333334D01*
X140252381Y-115238096D02*
X141252381Y-115904763D01*
X140252381Y-115904763D02*
X141252381Y-115238096D01*
X140871429Y-116285715D02*
X140871429Y-117047620D01*
X141252381Y-118047620D02*
X141252381Y-117476191D01*
X141252381Y-117761905D02*
X140252381Y-117761905D01*
X140395238Y-117666667D01*
X140490476Y-117571429D01*
X140538095Y-117476191D01*
X140252381Y-118380953D02*
X140252381Y-119000001D01*
X140633333Y-118666667D01*
X140633333Y-118809525D01*
X140680952Y-118904763D01*
X140728571Y-118952382D01*
X140823810Y-119000001D01*
X141061905Y-119000001D01*
X141157143Y-118952382D01*
X141204762Y-118904763D01*
X141252381Y-118809525D01*
X141252381Y-118523810D01*
X141204762Y-118428572D01*
X141157143Y-118380953D01*
X140347619Y-120142858D02*
X140300000Y-120190477D01*
X140252381Y-120285715D01*
X140252381Y-120523811D01*
X140300000Y-120619049D01*
X140347619Y-120666668D01*
X140442857Y-120714287D01*
X140538095Y-120714287D01*
X140680952Y-120666668D01*
X141252381Y-120095239D01*
X141252381Y-120714287D01*
X140252381Y-121619049D02*
X140252381Y-121142858D01*
X140728571Y-121095239D01*
X140680952Y-121142858D01*
X140633333Y-121238096D01*
X140633333Y-121476192D01*
X140680952Y-121571430D01*
X140728571Y-121619049D01*
X140823810Y-121666668D01*
X141061905Y-121666668D01*
X141157143Y-121619049D01*
X141204762Y-121571430D01*
X141252381Y-121476192D01*
X141252381Y-121238096D01*
X141204762Y-121142858D01*
X141157143Y-121095239D01*
X141252381Y-122095239D02*
X140252381Y-122095239D01*
X140966667Y-122428573D01*
X140252381Y-122761906D01*
X141252381Y-122761906D01*
X141252381Y-123238096D02*
X140252381Y-123238096D01*
X140728571Y-123238096D02*
X140728571Y-123809525D01*
X141252381Y-123809525D02*
X140252381Y-123809525D01*
X140585714Y-124190477D02*
X140585714Y-124714287D01*
X141252381Y-124190477D01*
X141252381Y-124714287D01*
X144476190Y-116023809D02*
X144952381Y-116023809D01*
X143952381Y-115690476D02*
X144476190Y-116023809D01*
X143952381Y-116357143D01*
X144047619Y-116642857D02*
X144000000Y-116690476D01*
X143952381Y-116785714D01*
X143952381Y-117023810D01*
X144000000Y-117119048D01*
X144047619Y-117166667D01*
X144142857Y-117214286D01*
X144238095Y-117214286D01*
X144380952Y-117166667D01*
X144952381Y-116595238D01*
X144952381Y-117214286D01*
X146854762Y-96416666D02*
X146902381Y-96559523D01*
X146902381Y-96797619D01*
X146854762Y-96892857D01*
X146807143Y-96940476D01*
X146711905Y-96988095D01*
X146616667Y-96988095D01*
X146521429Y-96940476D01*
X146473810Y-96892857D01*
X146426190Y-96797619D01*
X146378571Y-96607142D01*
X146330952Y-96511904D01*
X146283333Y-96464285D01*
X146188095Y-96416666D01*
X146092857Y-96416666D01*
X145997619Y-96464285D01*
X145950000Y-96511904D01*
X145902381Y-96607142D01*
X145902381Y-96845238D01*
X145950000Y-96988095D01*
X145902381Y-97273809D02*
X145902381Y-97845238D01*
X146902381Y-97559523D02*
X145902381Y-97559523D01*
X146902381Y-98178571D02*
X145902381Y-98178571D01*
X146616667Y-98511905D01*
X145902381Y-98845238D01*
X146902381Y-98845238D01*
X145902381Y-99226190D02*
X145902381Y-99845238D01*
X146283333Y-99511904D01*
X146283333Y-99654762D01*
X146330952Y-99750000D01*
X146378571Y-99797619D01*
X146473810Y-99845238D01*
X146711905Y-99845238D01*
X146807143Y-99797619D01*
X146854762Y-99750000D01*
X146902381Y-99654762D01*
X146902381Y-99369047D01*
X146854762Y-99273809D01*
X146807143Y-99226190D01*
X145997619Y-100226190D02*
X145950000Y-100273809D01*
X145902381Y-100369047D01*
X145902381Y-100607143D01*
X145950000Y-100702381D01*
X145997619Y-100750000D01*
X146092857Y-100797619D01*
X146188095Y-100797619D01*
X146330952Y-100750000D01*
X146902381Y-100178571D01*
X146902381Y-100797619D01*
X146378571Y-101559524D02*
X146378571Y-101226190D01*
X146902381Y-101226190D02*
X145902381Y-101226190D01*
X145902381Y-101702381D01*
X146902381Y-102607143D02*
X146902381Y-102035714D01*
X146902381Y-102321428D02*
X145902381Y-102321428D01*
X146045238Y-102226190D01*
X146140476Y-102130952D01*
X146188095Y-102035714D01*
X145902381Y-103226190D02*
X145902381Y-103321429D01*
X145950000Y-103416667D01*
X145997619Y-103464286D01*
X146092857Y-103511905D01*
X146283333Y-103559524D01*
X146521429Y-103559524D01*
X146711905Y-103511905D01*
X146807143Y-103464286D01*
X146854762Y-103416667D01*
X146902381Y-103321429D01*
X146902381Y-103226190D01*
X146854762Y-103130952D01*
X146807143Y-103083333D01*
X146711905Y-103035714D01*
X146521429Y-102988095D01*
X146283333Y-102988095D01*
X146092857Y-103035714D01*
X145997619Y-103083333D01*
X145950000Y-103130952D01*
X145902381Y-103226190D01*
X145902381Y-104464286D02*
X145902381Y-103988095D01*
X146378571Y-103940476D01*
X146330952Y-103988095D01*
X146283333Y-104083333D01*
X146283333Y-104321429D01*
X146330952Y-104416667D01*
X146378571Y-104464286D01*
X146473810Y-104511905D01*
X146711905Y-104511905D01*
X146807143Y-104464286D01*
X146854762Y-104416667D01*
X146902381Y-104321429D01*
X146902381Y-104083333D01*
X146854762Y-103988095D01*
X146807143Y-103940476D01*
X146902381Y-105511905D02*
X146426190Y-105178571D01*
X146902381Y-104940476D02*
X145902381Y-104940476D01*
X145902381Y-105321429D01*
X145950000Y-105416667D01*
X145997619Y-105464286D01*
X146092857Y-105511905D01*
X146235714Y-105511905D01*
X146330952Y-105464286D01*
X146378571Y-105416667D01*
X146426190Y-105321429D01*
X146426190Y-104940476D01*
X146378571Y-106273810D02*
X146426190Y-106416667D01*
X146473810Y-106464286D01*
X146569048Y-106511905D01*
X146711905Y-106511905D01*
X146807143Y-106464286D01*
X146854762Y-106416667D01*
X146902381Y-106321429D01*
X146902381Y-105940476D01*
X145902381Y-105940476D01*
X145902381Y-106273810D01*
X145950000Y-106369048D01*
X145997619Y-106416667D01*
X146092857Y-106464286D01*
X146188095Y-106464286D01*
X146283333Y-106416667D01*
X146330952Y-106369048D01*
X146378571Y-106273810D01*
X146378571Y-105940476D01*
X145902381Y-106797619D02*
X145902381Y-107369048D01*
X146902381Y-107083333D02*
X145902381Y-107083333D01*
X146902381Y-107607143D02*
X146235714Y-108130953D01*
X146235714Y-107607143D02*
X146902381Y-108130953D01*
X138702381Y-101488095D02*
X139511905Y-101488095D01*
X139607143Y-101535714D01*
X139654762Y-101583333D01*
X139702381Y-101678571D01*
X139702381Y-101869048D01*
X139654762Y-101964286D01*
X139607143Y-102011905D01*
X139511905Y-102059524D01*
X138702381Y-102059524D01*
X138702381Y-103011905D02*
X138702381Y-102535714D01*
X139178571Y-102488095D01*
X139130952Y-102535714D01*
X139083333Y-102630952D01*
X139083333Y-102869048D01*
X139130952Y-102964286D01*
X139178571Y-103011905D01*
X139273810Y-103059524D01*
X139511905Y-103059524D01*
X139607143Y-103011905D01*
X139654762Y-102964286D01*
X139702381Y-102869048D01*
X139702381Y-102630952D01*
X139654762Y-102535714D01*
X139607143Y-102488095D01*
X160583334Y-107954762D02*
X160440477Y-108002381D01*
X160202381Y-108002381D01*
X160107143Y-107954762D01*
X160059524Y-107907143D01*
X160011905Y-107811905D01*
X160011905Y-107716667D01*
X160059524Y-107621429D01*
X160107143Y-107573810D01*
X160202381Y-107526190D01*
X160392858Y-107478571D01*
X160488096Y-107430952D01*
X160535715Y-107383333D01*
X160583334Y-107288095D01*
X160583334Y-107192857D01*
X160535715Y-107097619D01*
X160488096Y-107050000D01*
X160392858Y-107002381D01*
X160154762Y-107002381D01*
X160011905Y-107050000D01*
X159726191Y-107002381D02*
X159154762Y-107002381D01*
X159440477Y-108002381D02*
X159440477Y-107002381D01*
X158821429Y-108002381D02*
X158821429Y-107002381D01*
X158488095Y-107716667D01*
X158154762Y-107002381D01*
X158154762Y-108002381D01*
X157773810Y-107002381D02*
X157154762Y-107002381D01*
X157488096Y-107383333D01*
X157345238Y-107383333D01*
X157250000Y-107430952D01*
X157202381Y-107478571D01*
X157154762Y-107573810D01*
X157154762Y-107811905D01*
X157202381Y-107907143D01*
X157250000Y-107954762D01*
X157345238Y-108002381D01*
X157630953Y-108002381D01*
X157726191Y-107954762D01*
X157773810Y-107907143D01*
X156773810Y-107097619D02*
X156726191Y-107050000D01*
X156630953Y-107002381D01*
X156392857Y-107002381D01*
X156297619Y-107050000D01*
X156250000Y-107097619D01*
X156202381Y-107192857D01*
X156202381Y-107288095D01*
X156250000Y-107430952D01*
X156821429Y-108002381D01*
X156202381Y-108002381D01*
X155440476Y-107478571D02*
X155773810Y-107478571D01*
X155773810Y-108002381D02*
X155773810Y-107002381D01*
X155297619Y-107002381D01*
X154392857Y-108002381D02*
X154964286Y-108002381D01*
X154678572Y-108002381D02*
X154678572Y-107002381D01*
X154773810Y-107145238D01*
X154869048Y-107240476D01*
X154964286Y-107288095D01*
X153773810Y-107002381D02*
X153678571Y-107002381D01*
X153583333Y-107050000D01*
X153535714Y-107097619D01*
X153488095Y-107192857D01*
X153440476Y-107383333D01*
X153440476Y-107621429D01*
X153488095Y-107811905D01*
X153535714Y-107907143D01*
X153583333Y-107954762D01*
X153678571Y-108002381D01*
X153773810Y-108002381D01*
X153869048Y-107954762D01*
X153916667Y-107907143D01*
X153964286Y-107811905D01*
X154011905Y-107621429D01*
X154011905Y-107383333D01*
X153964286Y-107192857D01*
X153916667Y-107097619D01*
X153869048Y-107050000D01*
X153773810Y-107002381D01*
X152535714Y-107002381D02*
X153011905Y-107002381D01*
X153059524Y-107478571D01*
X153011905Y-107430952D01*
X152916667Y-107383333D01*
X152678571Y-107383333D01*
X152583333Y-107430952D01*
X152535714Y-107478571D01*
X152488095Y-107573810D01*
X152488095Y-107811905D01*
X152535714Y-107907143D01*
X152583333Y-107954762D01*
X152678571Y-108002381D01*
X152916667Y-108002381D01*
X153011905Y-107954762D01*
X153059524Y-107907143D01*
X151488095Y-108002381D02*
X151821429Y-107526190D01*
X152059524Y-108002381D02*
X152059524Y-107002381D01*
X151678571Y-107002381D01*
X151583333Y-107050000D01*
X151535714Y-107097619D01*
X151488095Y-107192857D01*
X151488095Y-107335714D01*
X151535714Y-107430952D01*
X151583333Y-107478571D01*
X151678571Y-107526190D01*
X152059524Y-107526190D01*
X150726190Y-107478571D02*
X150583333Y-107526190D01*
X150535714Y-107573810D01*
X150488095Y-107669048D01*
X150488095Y-107811905D01*
X150535714Y-107907143D01*
X150583333Y-107954762D01*
X150678571Y-108002381D01*
X151059524Y-108002381D01*
X151059524Y-107002381D01*
X150726190Y-107002381D01*
X150630952Y-107050000D01*
X150583333Y-107097619D01*
X150535714Y-107192857D01*
X150535714Y-107288095D01*
X150583333Y-107383333D01*
X150630952Y-107430952D01*
X150726190Y-107478571D01*
X151059524Y-107478571D01*
X150202381Y-107002381D02*
X149630952Y-107002381D01*
X149916667Y-108002381D02*
X149916667Y-107002381D01*
X149392857Y-108002381D02*
X148869047Y-107335714D01*
X149392857Y-107335714D02*
X148869047Y-108002381D01*
X155511905Y-114202381D02*
X155511905Y-115011905D01*
X155464286Y-115107143D01*
X155416667Y-115154762D01*
X155321429Y-115202381D01*
X155130952Y-115202381D01*
X155035714Y-115154762D01*
X154988095Y-115107143D01*
X154940476Y-115011905D01*
X154940476Y-114202381D01*
X154416667Y-115202381D02*
X154226191Y-115202381D01*
X154130952Y-115154762D01*
X154083333Y-115107143D01*
X153988095Y-114964286D01*
X153940476Y-114773810D01*
X153940476Y-114392857D01*
X153988095Y-114297619D01*
X154035714Y-114250000D01*
X154130952Y-114202381D01*
X154321429Y-114202381D01*
X154416667Y-114250000D01*
X154464286Y-114297619D01*
X154511905Y-114392857D01*
X154511905Y-114630952D01*
X154464286Y-114726190D01*
X154416667Y-114773810D01*
X154321429Y-114821429D01*
X154130952Y-114821429D01*
X154035714Y-114773810D01*
X153988095Y-114726190D01*
X153940476Y-114630952D01*
X125047619Y-111304762D02*
X124904762Y-111352381D01*
X124666666Y-111352381D01*
X124571428Y-111304762D01*
X124523809Y-111257143D01*
X124476190Y-111161905D01*
X124476190Y-111066667D01*
X124523809Y-110971429D01*
X124571428Y-110923810D01*
X124666666Y-110876190D01*
X124857143Y-110828571D01*
X124952381Y-110780952D01*
X125000000Y-110733333D01*
X125047619Y-110638095D01*
X125047619Y-110542857D01*
X125000000Y-110447619D01*
X124952381Y-110400000D01*
X124857143Y-110352381D01*
X124619047Y-110352381D01*
X124476190Y-110400000D01*
X124047619Y-111352381D02*
X124047619Y-110352381D01*
X123714285Y-111066667D01*
X123380952Y-110352381D01*
X123380952Y-111352381D01*
X122952381Y-111066667D02*
X122476190Y-111066667D01*
X123047619Y-111352381D02*
X122714286Y-110352381D01*
X122380952Y-111352381D01*
X121761904Y-110352381D02*
X121761904Y-111066667D01*
X121809524Y-111209524D01*
X121904762Y-111304762D01*
X122047619Y-111352381D01*
X122142857Y-111352381D01*
X121380952Y-110352381D02*
X120761904Y-110352381D01*
X121095238Y-110733333D01*
X120952380Y-110733333D01*
X120857142Y-110780952D01*
X120809523Y-110828571D01*
X120761904Y-110923810D01*
X120761904Y-111161905D01*
X120809523Y-111257143D01*
X120857142Y-111304762D01*
X120952380Y-111352381D01*
X121238095Y-111352381D01*
X121333333Y-111304762D01*
X121380952Y-111257143D01*
X120428571Y-110352381D02*
X119809523Y-110352381D01*
X120142857Y-110733333D01*
X119999999Y-110733333D01*
X119904761Y-110780952D01*
X119857142Y-110828571D01*
X119809523Y-110923810D01*
X119809523Y-111161905D01*
X119857142Y-111257143D01*
X119904761Y-111304762D01*
X119999999Y-111352381D01*
X120285714Y-111352381D01*
X120380952Y-111304762D01*
X120428571Y-111257143D01*
X118809523Y-111257143D02*
X118857142Y-111304762D01*
X118999999Y-111352381D01*
X119095237Y-111352381D01*
X119238095Y-111304762D01*
X119333333Y-111209524D01*
X119380952Y-111114286D01*
X119428571Y-110923810D01*
X119428571Y-110780952D01*
X119380952Y-110590476D01*
X119333333Y-110495238D01*
X119238095Y-110400000D01*
X119095237Y-110352381D01*
X118999999Y-110352381D01*
X118857142Y-110400000D01*
X118809523Y-110447619D01*
X118428571Y-111066667D02*
X117952380Y-111066667D01*
X118523809Y-111352381D02*
X118190476Y-110352381D01*
X117857142Y-111352381D01*
X117523809Y-110971429D02*
X116761904Y-110971429D01*
X116428571Y-110352381D02*
X115857142Y-110352381D01*
X116142857Y-111352381D02*
X116142857Y-110352381D01*
X114952380Y-111352381D02*
X115285714Y-110876190D01*
X115523809Y-111352381D02*
X115523809Y-110352381D01*
X115142856Y-110352381D01*
X115047618Y-110400000D01*
X114999999Y-110447619D01*
X114952380Y-110542857D01*
X114952380Y-110685714D01*
X114999999Y-110780952D01*
X115047618Y-110828571D01*
X115142856Y-110876190D01*
X115523809Y-110876190D01*
X120738095Y-116452381D02*
X120738095Y-115452381D01*
X120500000Y-115452381D01*
X120357142Y-115500000D01*
X120261904Y-115595238D01*
X120214285Y-115690476D01*
X120166666Y-115880952D01*
X120166666Y-116023810D01*
X120214285Y-116214286D01*
X120261904Y-116309524D01*
X120357142Y-116404762D01*
X120500000Y-116452381D01*
X120738095Y-116452381D01*
X119690476Y-116452381D02*
X119500000Y-116452381D01*
X119404761Y-116404762D01*
X119357142Y-116357143D01*
X119261904Y-116214286D01*
X119214285Y-116023810D01*
X119214285Y-115642857D01*
X119261904Y-115547619D01*
X119309523Y-115500000D01*
X119404761Y-115452381D01*
X119595238Y-115452381D01*
X119690476Y-115500000D01*
X119738095Y-115547619D01*
X119785714Y-115642857D01*
X119785714Y-115880952D01*
X119738095Y-115976190D01*
X119690476Y-116023810D01*
X119595238Y-116071429D01*
X119404761Y-116071429D01*
X119309523Y-116023810D01*
X119261904Y-115976190D01*
X119214285Y-115880952D01*
X125047619Y-120004762D02*
X124904762Y-120052381D01*
X124666666Y-120052381D01*
X124571428Y-120004762D01*
X124523809Y-119957143D01*
X124476190Y-119861905D01*
X124476190Y-119766667D01*
X124523809Y-119671429D01*
X124571428Y-119623810D01*
X124666666Y-119576190D01*
X124857143Y-119528571D01*
X124952381Y-119480952D01*
X125000000Y-119433333D01*
X125047619Y-119338095D01*
X125047619Y-119242857D01*
X125000000Y-119147619D01*
X124952381Y-119100000D01*
X124857143Y-119052381D01*
X124619047Y-119052381D01*
X124476190Y-119100000D01*
X124047619Y-120052381D02*
X124047619Y-119052381D01*
X123714285Y-119766667D01*
X123380952Y-119052381D01*
X123380952Y-120052381D01*
X122952381Y-119766667D02*
X122476190Y-119766667D01*
X123047619Y-120052381D02*
X122714286Y-119052381D01*
X122380952Y-120052381D01*
X121761904Y-119052381D02*
X121761904Y-119766667D01*
X121809524Y-119909524D01*
X121904762Y-120004762D01*
X122047619Y-120052381D01*
X122142857Y-120052381D01*
X121380952Y-119052381D02*
X120761904Y-119052381D01*
X121095238Y-119433333D01*
X120952380Y-119433333D01*
X120857142Y-119480952D01*
X120809523Y-119528571D01*
X120761904Y-119623810D01*
X120761904Y-119861905D01*
X120809523Y-119957143D01*
X120857142Y-120004762D01*
X120952380Y-120052381D01*
X121238095Y-120052381D01*
X121333333Y-120004762D01*
X121380952Y-119957143D01*
X120428571Y-119052381D02*
X119809523Y-119052381D01*
X120142857Y-119433333D01*
X119999999Y-119433333D01*
X119904761Y-119480952D01*
X119857142Y-119528571D01*
X119809523Y-119623810D01*
X119809523Y-119861905D01*
X119857142Y-119957143D01*
X119904761Y-120004762D01*
X119999999Y-120052381D01*
X120285714Y-120052381D01*
X120380952Y-120004762D01*
X120428571Y-119957143D01*
X118809523Y-119957143D02*
X118857142Y-120004762D01*
X118999999Y-120052381D01*
X119095237Y-120052381D01*
X119238095Y-120004762D01*
X119333333Y-119909524D01*
X119380952Y-119814286D01*
X119428571Y-119623810D01*
X119428571Y-119480952D01*
X119380952Y-119290476D01*
X119333333Y-119195238D01*
X119238095Y-119100000D01*
X119095237Y-119052381D01*
X118999999Y-119052381D01*
X118857142Y-119100000D01*
X118809523Y-119147619D01*
X118428571Y-119766667D02*
X117952380Y-119766667D01*
X118523809Y-120052381D02*
X118190476Y-119052381D01*
X117857142Y-120052381D01*
X117523809Y-119671429D02*
X116761904Y-119671429D01*
X116428571Y-119052381D02*
X115857142Y-119052381D01*
X116142857Y-120052381D02*
X116142857Y-119052381D01*
X114952380Y-120052381D02*
X115285714Y-119576190D01*
X115523809Y-120052381D02*
X115523809Y-119052381D01*
X115142856Y-119052381D01*
X115047618Y-119100000D01*
X114999999Y-119147619D01*
X114952380Y-119242857D01*
X114952380Y-119385714D01*
X114999999Y-119480952D01*
X115047618Y-119528571D01*
X115142856Y-119576190D01*
X115523809Y-119576190D01*
X121214286Y-114952381D02*
X121214286Y-113952381D01*
X120976191Y-113952381D01*
X120833333Y-114000000D01*
X120738095Y-114095238D01*
X120690476Y-114190476D01*
X120642857Y-114380952D01*
X120642857Y-114523810D01*
X120690476Y-114714286D01*
X120738095Y-114809524D01*
X120833333Y-114904762D01*
X120976191Y-114952381D01*
X121214286Y-114952381D01*
X119690476Y-114952381D02*
X120261905Y-114952381D01*
X119976191Y-114952381D02*
X119976191Y-113952381D01*
X120071429Y-114095238D01*
X120166667Y-114190476D01*
X120261905Y-114238095D01*
X119071429Y-113952381D02*
X118976190Y-113952381D01*
X118880952Y-114000000D01*
X118833333Y-114047619D01*
X118785714Y-114142857D01*
X118738095Y-114333333D01*
X118738095Y-114571429D01*
X118785714Y-114761905D01*
X118833333Y-114857143D01*
X118880952Y-114904762D01*
X118976190Y-114952381D01*
X119071429Y-114952381D01*
X119166667Y-114904762D01*
X119214286Y-114857143D01*
X119261905Y-114761905D01*
X119309524Y-114571429D01*
X119309524Y-114333333D01*
X119261905Y-114142857D01*
X119214286Y-114047619D01*
X119166667Y-114000000D01*
X119071429Y-113952381D01*
X125047619Y-104304762D02*
X124904762Y-104352381D01*
X124666666Y-104352381D01*
X124571428Y-104304762D01*
X124523809Y-104257143D01*
X124476190Y-104161905D01*
X124476190Y-104066667D01*
X124523809Y-103971429D01*
X124571428Y-103923810D01*
X124666666Y-103876190D01*
X124857143Y-103828571D01*
X124952381Y-103780952D01*
X125000000Y-103733333D01*
X125047619Y-103638095D01*
X125047619Y-103542857D01*
X125000000Y-103447619D01*
X124952381Y-103400000D01*
X124857143Y-103352381D01*
X124619047Y-103352381D01*
X124476190Y-103400000D01*
X124047619Y-104352381D02*
X124047619Y-103352381D01*
X123714285Y-104066667D01*
X123380952Y-103352381D01*
X123380952Y-104352381D01*
X122952381Y-104066667D02*
X122476190Y-104066667D01*
X123047619Y-104352381D02*
X122714286Y-103352381D01*
X122380952Y-104352381D01*
X121761904Y-103352381D02*
X121761904Y-104066667D01*
X121809524Y-104209524D01*
X121904762Y-104304762D01*
X122047619Y-104352381D01*
X122142857Y-104352381D01*
X121380952Y-103352381D02*
X120761904Y-103352381D01*
X121095238Y-103733333D01*
X120952380Y-103733333D01*
X120857142Y-103780952D01*
X120809523Y-103828571D01*
X120761904Y-103923810D01*
X120761904Y-104161905D01*
X120809523Y-104257143D01*
X120857142Y-104304762D01*
X120952380Y-104352381D01*
X121238095Y-104352381D01*
X121333333Y-104304762D01*
X121380952Y-104257143D01*
X120428571Y-103352381D02*
X119809523Y-103352381D01*
X120142857Y-103733333D01*
X119999999Y-103733333D01*
X119904761Y-103780952D01*
X119857142Y-103828571D01*
X119809523Y-103923810D01*
X119809523Y-104161905D01*
X119857142Y-104257143D01*
X119904761Y-104304762D01*
X119999999Y-104352381D01*
X120285714Y-104352381D01*
X120380952Y-104304762D01*
X120428571Y-104257143D01*
X118809523Y-104257143D02*
X118857142Y-104304762D01*
X118999999Y-104352381D01*
X119095237Y-104352381D01*
X119238095Y-104304762D01*
X119333333Y-104209524D01*
X119380952Y-104114286D01*
X119428571Y-103923810D01*
X119428571Y-103780952D01*
X119380952Y-103590476D01*
X119333333Y-103495238D01*
X119238095Y-103400000D01*
X119095237Y-103352381D01*
X118999999Y-103352381D01*
X118857142Y-103400000D01*
X118809523Y-103447619D01*
X118428571Y-104066667D02*
X117952380Y-104066667D01*
X118523809Y-104352381D02*
X118190476Y-103352381D01*
X117857142Y-104352381D01*
X117523809Y-103971429D02*
X116761904Y-103971429D01*
X116428571Y-103352381D02*
X115857142Y-103352381D01*
X116142857Y-104352381D02*
X116142857Y-103352381D01*
X114952380Y-104352381D02*
X115285714Y-103876190D01*
X115523809Y-104352381D02*
X115523809Y-103352381D01*
X115142856Y-103352381D01*
X115047618Y-103400000D01*
X114999999Y-103447619D01*
X114952380Y-103542857D01*
X114952380Y-103685714D01*
X114999999Y-103780952D01*
X115047618Y-103828571D01*
X115142856Y-103876190D01*
X115523809Y-103876190D01*
X121214286Y-109452381D02*
X121214286Y-108452381D01*
X120976191Y-108452381D01*
X120833333Y-108500000D01*
X120738095Y-108595238D01*
X120690476Y-108690476D01*
X120642857Y-108880952D01*
X120642857Y-109023810D01*
X120690476Y-109214286D01*
X120738095Y-109309524D01*
X120833333Y-109404762D01*
X120976191Y-109452381D01*
X121214286Y-109452381D01*
X119690476Y-109452381D02*
X120261905Y-109452381D01*
X119976191Y-109452381D02*
X119976191Y-108452381D01*
X120071429Y-108595238D01*
X120166667Y-108690476D01*
X120261905Y-108738095D01*
X118738095Y-109452381D02*
X119309524Y-109452381D01*
X119023810Y-109452381D02*
X119023810Y-108452381D01*
X119119048Y-108595238D01*
X119214286Y-108690476D01*
X119309524Y-108738095D01*
X125047619Y-113004762D02*
X124904762Y-113052381D01*
X124666666Y-113052381D01*
X124571428Y-113004762D01*
X124523809Y-112957143D01*
X124476190Y-112861905D01*
X124476190Y-112766667D01*
X124523809Y-112671429D01*
X124571428Y-112623810D01*
X124666666Y-112576190D01*
X124857143Y-112528571D01*
X124952381Y-112480952D01*
X125000000Y-112433333D01*
X125047619Y-112338095D01*
X125047619Y-112242857D01*
X125000000Y-112147619D01*
X124952381Y-112100000D01*
X124857143Y-112052381D01*
X124619047Y-112052381D01*
X124476190Y-112100000D01*
X124047619Y-113052381D02*
X124047619Y-112052381D01*
X123714285Y-112766667D01*
X123380952Y-112052381D01*
X123380952Y-113052381D01*
X122952381Y-112766667D02*
X122476190Y-112766667D01*
X123047619Y-113052381D02*
X122714286Y-112052381D01*
X122380952Y-113052381D01*
X121761904Y-112052381D02*
X121761904Y-112766667D01*
X121809524Y-112909524D01*
X121904762Y-113004762D01*
X122047619Y-113052381D01*
X122142857Y-113052381D01*
X121380952Y-112052381D02*
X120761904Y-112052381D01*
X121095238Y-112433333D01*
X120952380Y-112433333D01*
X120857142Y-112480952D01*
X120809523Y-112528571D01*
X120761904Y-112623810D01*
X120761904Y-112861905D01*
X120809523Y-112957143D01*
X120857142Y-113004762D01*
X120952380Y-113052381D01*
X121238095Y-113052381D01*
X121333333Y-113004762D01*
X121380952Y-112957143D01*
X120428571Y-112052381D02*
X119809523Y-112052381D01*
X120142857Y-112433333D01*
X119999999Y-112433333D01*
X119904761Y-112480952D01*
X119857142Y-112528571D01*
X119809523Y-112623810D01*
X119809523Y-112861905D01*
X119857142Y-112957143D01*
X119904761Y-113004762D01*
X119999999Y-113052381D01*
X120285714Y-113052381D01*
X120380952Y-113004762D01*
X120428571Y-112957143D01*
X118809523Y-112957143D02*
X118857142Y-113004762D01*
X118999999Y-113052381D01*
X119095237Y-113052381D01*
X119238095Y-113004762D01*
X119333333Y-112909524D01*
X119380952Y-112814286D01*
X119428571Y-112623810D01*
X119428571Y-112480952D01*
X119380952Y-112290476D01*
X119333333Y-112195238D01*
X119238095Y-112100000D01*
X119095237Y-112052381D01*
X118999999Y-112052381D01*
X118857142Y-112100000D01*
X118809523Y-112147619D01*
X118428571Y-112766667D02*
X117952380Y-112766667D01*
X118523809Y-113052381D02*
X118190476Y-112052381D01*
X117857142Y-113052381D01*
X117523809Y-112671429D02*
X116761904Y-112671429D01*
X116428571Y-112052381D02*
X115857142Y-112052381D01*
X116142857Y-113052381D02*
X116142857Y-112052381D01*
X114952380Y-113052381D02*
X115285714Y-112576190D01*
X115523809Y-113052381D02*
X115523809Y-112052381D01*
X115142856Y-112052381D01*
X115047618Y-112100000D01*
X114999999Y-112147619D01*
X114952380Y-112242857D01*
X114952380Y-112385714D01*
X114999999Y-112480952D01*
X115047618Y-112528571D01*
X115142856Y-112576190D01*
X115523809Y-112576190D01*
X121214286Y-107952381D02*
X121214286Y-106952381D01*
X120976191Y-106952381D01*
X120833333Y-107000000D01*
X120738095Y-107095238D01*
X120690476Y-107190476D01*
X120642857Y-107380952D01*
X120642857Y-107523810D01*
X120690476Y-107714286D01*
X120738095Y-107809524D01*
X120833333Y-107904762D01*
X120976191Y-107952381D01*
X121214286Y-107952381D01*
X119690476Y-107952381D02*
X120261905Y-107952381D01*
X119976191Y-107952381D02*
X119976191Y-106952381D01*
X120071429Y-107095238D01*
X120166667Y-107190476D01*
X120261905Y-107238095D01*
X119309524Y-107047619D02*
X119261905Y-107000000D01*
X119166667Y-106952381D01*
X118928571Y-106952381D01*
X118833333Y-107000000D01*
X118785714Y-107047619D01*
X118738095Y-107142857D01*
X118738095Y-107238095D01*
X118785714Y-107380952D01*
X119357143Y-107952381D01*
X118738095Y-107952381D01*
X127142857Y-85402381D02*
X127619048Y-85402381D01*
X127619048Y-84402381D01*
X126809524Y-84878571D02*
X126476190Y-84878571D01*
X126333333Y-85402381D02*
X126809524Y-85402381D01*
X126809524Y-84402381D01*
X126333333Y-84402381D01*
X125904762Y-85402381D02*
X125904762Y-84402381D01*
X125666667Y-84402381D01*
X125523809Y-84450000D01*
X125428571Y-84545238D01*
X125380952Y-84640476D01*
X125333333Y-84830952D01*
X125333333Y-84973810D01*
X125380952Y-85164286D01*
X125428571Y-85259524D01*
X125523809Y-85354762D01*
X125666667Y-85402381D01*
X125904762Y-85402381D01*
D10*
X126985714Y-87930952D02*
X126985714Y-87530952D01*
X126890476Y-87530952D01*
X126833333Y-87550000D01*
X126795238Y-87588095D01*
X126776190Y-87626190D01*
X126757142Y-87702381D01*
X126757142Y-87759524D01*
X126776190Y-87835714D01*
X126795238Y-87873810D01*
X126833333Y-87911905D01*
X126890476Y-87930952D01*
X126985714Y-87930952D01*
X126376190Y-87930952D02*
X126604762Y-87930952D01*
X126490476Y-87930952D02*
X126490476Y-87530952D01*
X126528571Y-87588095D01*
X126566666Y-87626190D01*
X126604762Y-87645238D01*
X126242857Y-87530952D02*
X125995238Y-87530952D01*
X126128571Y-87683333D01*
X126071429Y-87683333D01*
X126033333Y-87702381D01*
X126014286Y-87721429D01*
X125995238Y-87759524D01*
X125995238Y-87854762D01*
X126014286Y-87892857D01*
X126033333Y-87911905D01*
X126071429Y-87930952D01*
X126185714Y-87930952D01*
X126223810Y-87911905D01*
X126242857Y-87892857D01*
D11*
X127142857Y-128402381D02*
X127619048Y-128402381D01*
X127619048Y-127402381D01*
X126809524Y-127878571D02*
X126476190Y-127878571D01*
X126333333Y-128402381D02*
X126809524Y-128402381D01*
X126809524Y-127402381D01*
X126333333Y-127402381D01*
X125904762Y-128402381D02*
X125904762Y-127402381D01*
X125666667Y-127402381D01*
X125523809Y-127450000D01*
X125428571Y-127545238D01*
X125380952Y-127640476D01*
X125333333Y-127830952D01*
X125333333Y-127973810D01*
X125380952Y-128164286D01*
X125428571Y-128259524D01*
X125523809Y-128354762D01*
X125666667Y-128402381D01*
X125904762Y-128402381D01*
D10*
X126985714Y-130930952D02*
X126985714Y-130530952D01*
X126890476Y-130530952D01*
X126833333Y-130550000D01*
X126795238Y-130588095D01*
X126776190Y-130626190D01*
X126757142Y-130702381D01*
X126757142Y-130759524D01*
X126776190Y-130835714D01*
X126795238Y-130873810D01*
X126833333Y-130911905D01*
X126890476Y-130930952D01*
X126985714Y-130930952D01*
X126376190Y-130930952D02*
X126604762Y-130930952D01*
X126490476Y-130930952D02*
X126490476Y-130530952D01*
X126528571Y-130588095D01*
X126566666Y-130626190D01*
X126604762Y-130645238D01*
X126033333Y-130664286D02*
X126033333Y-130930952D01*
X126128571Y-130511905D02*
X126223810Y-130797619D01*
X125976190Y-130797619D01*
D11*
X126619047Y-88202381D02*
X127190476Y-88202381D01*
X126904762Y-88202381D02*
X126904762Y-87202381D01*
X127000000Y-87345238D01*
X127095238Y-87440476D01*
X127190476Y-87488095D01*
X126190476Y-88202381D02*
X126190476Y-87202381D01*
X126095238Y-87821429D02*
X125809523Y-88202381D01*
X125809523Y-87535714D02*
X126190476Y-87916667D01*
D12*
X126821428Y-89726190D02*
X126988095Y-89488095D01*
X127107142Y-89726190D02*
X127107142Y-89226190D01*
X126916666Y-89226190D01*
X126869047Y-89250000D01*
X126845238Y-89273810D01*
X126821428Y-89321429D01*
X126821428Y-89392857D01*
X126845238Y-89440476D01*
X126869047Y-89464286D01*
X126916666Y-89488095D01*
X127107142Y-89488095D01*
X126345238Y-89726190D02*
X126630952Y-89726190D01*
X126488095Y-89726190D02*
X126488095Y-89226190D01*
X126535714Y-89297619D01*
X126583333Y-89345238D01*
X126630952Y-89369048D01*
X125892857Y-89226190D02*
X126130952Y-89226190D01*
X126154762Y-89464286D01*
X126130952Y-89440476D01*
X126083333Y-89416667D01*
X125964286Y-89416667D01*
X125916667Y-89440476D01*
X125892857Y-89464286D01*
X125869048Y-89511905D01*
X125869048Y-89630952D01*
X125892857Y-89678571D01*
X125916667Y-89702381D01*
X125964286Y-89726190D01*
X126083333Y-89726190D01*
X126130952Y-89702381D01*
X126154762Y-89678571D01*
D11*
X127095238Y-128202381D02*
X127666667Y-128202381D01*
X127380953Y-128202381D02*
X127380953Y-127202381D01*
X127476191Y-127345238D01*
X127571429Y-127440476D01*
X127666667Y-127488095D01*
X126476191Y-127202381D02*
X126380952Y-127202381D01*
X126285714Y-127250000D01*
X126238095Y-127297619D01*
X126190476Y-127392857D01*
X126142857Y-127583333D01*
X126142857Y-127821429D01*
X126190476Y-128011905D01*
X126238095Y-128107143D01*
X126285714Y-128154762D01*
X126380952Y-128202381D01*
X126476191Y-128202381D01*
X126571429Y-128154762D01*
X126619048Y-128107143D01*
X126666667Y-128011905D01*
X126714286Y-127821429D01*
X126714286Y-127583333D01*
X126666667Y-127392857D01*
X126619048Y-127297619D01*
X126571429Y-127250000D01*
X126476191Y-127202381D01*
X125714286Y-128202381D02*
X125714286Y-127202381D01*
X125619048Y-127821429D02*
X125333333Y-128202381D01*
X125333333Y-127535714D02*
X125714286Y-127916667D01*
D12*
X126821428Y-126226190D02*
X126988095Y-125988095D01*
X127107142Y-126226190D02*
X127107142Y-125726190D01*
X126916666Y-125726190D01*
X126869047Y-125750000D01*
X126845238Y-125773810D01*
X126821428Y-125821429D01*
X126821428Y-125892857D01*
X126845238Y-125940476D01*
X126869047Y-125964286D01*
X126916666Y-125988095D01*
X127107142Y-125988095D01*
X126345238Y-126226190D02*
X126630952Y-126226190D01*
X126488095Y-126226190D02*
X126488095Y-125726190D01*
X126535714Y-125797619D01*
X126583333Y-125845238D01*
X126630952Y-125869048D01*
X125916667Y-125726190D02*
X126011905Y-125726190D01*
X126059524Y-125750000D01*
X126083333Y-125773810D01*
X126130952Y-125845238D01*
X126154762Y-125940476D01*
X126154762Y-126130952D01*
X126130952Y-126178571D01*
X126107143Y-126202381D01*
X126059524Y-126226190D01*
X125964286Y-126226190D01*
X125916667Y-126202381D01*
X125892857Y-126178571D01*
X125869048Y-126130952D01*
X125869048Y-126011905D01*
X125892857Y-125964286D01*
X125916667Y-125940476D01*
X125964286Y-125916667D01*
X126059524Y-125916667D01*
X126107143Y-125940476D01*
X126130952Y-125964286D01*
X126154762Y-126011905D01*
M02*
